# SSTK version 0.8.0
# 7
mtllib original-7.mtl
o 3dw.115f49c3c7206ae58e62780ddf14e62c/Model/Komponente_1_1/Komponente_1/mesh1/mesh1-geometry/material_0/component_6#mesh1-geometry
v 0.062039 -0.536063 -0.005534
v 0.059875 -0.582997 -0.021968
v 0.059875 -0.536063 -0.021968
v 0.059875 -0.536063 -0.021968
v 0.059875 -0.582997 -0.021968
v 0.062039 -0.536063 -0.005534
v 0.059875 -0.536063 -0.021968
v 0.053531 -0.582997 -0.037283
v 0.053531 -0.536063 -0.037283
v 0.053531 -0.536063 -0.037283
v 0.053531 -0.582997 -0.037283
v 0.059875 -0.536063 -0.021968
v 0.059875 -0.536063 0.010901
v 0.062039 -0.582997 -0.005534
v 0.062039 -0.536063 -0.005534
v 0.062039 -0.536063 -0.005534
v 0.062039 -0.582997 -0.005534
v 0.059875 -0.536063 0.010901
v 0.053531 -0.536063 -0.037283
v 0.043440 -0.582997 -0.050434
v 0.043440 -0.536063 -0.050434
v 0.043440 -0.536063 -0.050434
v 0.043440 -0.582997 -0.050434
v 0.053531 -0.536063 -0.037283
v 0.059875 -0.536063 0.010901
v 0.053531 -0.582997 0.026216
v 0.053531 -0.536063 0.026216
v 0.053531 -0.536063 0.026216
v 0.053531 -0.582997 0.026216
v 0.059875 -0.536063 0.010901
v 0.059875 -0.582997 -0.021968
v 0.062039 -0.536063 -0.005534
v 0.062039 -0.582997 -0.005534
v 0.062039 -0.582997 -0.005534
v 0.062039 -0.536063 -0.005534
v 0.059875 -0.582997 -0.021968
v 0.053531 -0.582997 -0.037283
v 0.059875 -0.536063 -0.021968
v 0.059875 -0.582997 -0.021968
v 0.059875 -0.582997 -0.021968
v 0.059875 -0.536063 -0.021968
v 0.053531 -0.582997 -0.037283
v 0.043440 -0.582997 -0.050434
v 0.053531 -0.536063 -0.037283
v 0.053531 -0.582997 -0.037283
v 0.053531 -0.582997 -0.037283
v 0.053531 -0.536063 -0.037283
v 0.043440 -0.582997 -0.050434
v 0.062039 -0.582997 -0.005534
v 0.059875 -0.536063 0.010901
v 0.059875 -0.582997 0.010901
v 0.059875 -0.582997 0.010901
v 0.059875 -0.536063 0.010901
v 0.062039 -0.582997 -0.005534
v 0.043440 -0.536063 -0.050434
v 0.030289 -0.582997 -0.060525
v 0.043440 -0.582997 -0.050434
v 0.043440 -0.582997 -0.050434
v 0.030289 -0.582997 -0.060525
v 0.043440 -0.536063 -0.050434
v 0.030289 -0.582997 -0.060525
v 0.043440 -0.536063 -0.050434
v 0.030289 -0.536063 -0.060525
v 0.030289 -0.536063 -0.060525
v 0.043440 -0.536063 -0.050434
v 0.030289 -0.582997 -0.060525
v 0.053531 -0.536063 0.026216
v 0.043440 -0.582997 0.039367
v 0.043440 -0.536063 0.039367
v 0.043440 -0.536063 0.039367
v 0.043440 -0.582997 0.039367
v 0.053531 -0.536063 0.026216
v 0.053531 -0.582997 0.026216
v 0.059875 -0.536063 0.010901
v 0.059875 -0.582997 0.010901
v 0.059875 -0.582997 0.010901
v 0.059875 -0.536063 0.010901
v 0.053531 -0.582997 0.026216
v 0.043440 -0.582997 0.039367
v 0.053531 -0.536063 0.026216
v 0.053531 -0.582997 0.026216
v 0.053531 -0.582997 0.026216
v 0.053531 -0.536063 0.026216
v 0.043440 -0.582997 0.039367
v 0.030289 -0.536063 -0.060525
v 0.014975 -0.582997 -0.066869
v 0.030289 -0.582997 -0.060525
v 0.030289 -0.582997 -0.060525
v 0.014975 -0.582997 -0.066869
v 0.030289 -0.536063 -0.060525
v 0.014975 -0.582997 -0.066869
v 0.030289 -0.536063 -0.060525
v 0.014975 -0.536063 -0.066869
v 0.014975 -0.536063 -0.066869
v 0.030289 -0.536063 -0.060525
v 0.014975 -0.582997 -0.066869
v 0.043440 -0.582997 0.039367
v 0.030289 -0.536063 0.049458
v 0.043440 -0.536063 0.039367
v 0.043440 -0.536063 0.039367
v 0.030289 -0.536063 0.049458
v 0.043440 -0.582997 0.039367
v 0.014975 -0.536063 -0.066869
v -0.001460 -0.582997 -0.069032
v 0.014975 -0.582997 -0.066869
v 0.014975 -0.582997 -0.066869
v -0.001460 -0.582997 -0.069032
v 0.014975 -0.536063 -0.066869
v 0.030289 -0.536063 0.049458
v 0.043440 -0.582997 0.039367
v 0.030289 -0.582997 0.049458
v 0.030289 -0.582997 0.049458
v 0.043440 -0.582997 0.039367
v 0.030289 -0.536063 0.049458
v -0.001460 -0.582997 -0.069032
v 0.014975 -0.536063 -0.066869
v -0.001460 -0.536063 -0.069032
v -0.001460 -0.536063 -0.069032
v 0.014975 -0.536063 -0.066869
v -0.001460 -0.582997 -0.069032
v 0.030289 -0.582997 0.049458
v 0.014975 -0.536063 0.055801
v 0.030289 -0.536063 0.049458
v 0.030289 -0.536063 0.049458
v 0.014975 -0.536063 0.055801
v 0.030289 -0.582997 0.049458
v 0.014975 -0.582997 0.055801
v -0.001460 -0.536063 0.057965
v 0.014975 -0.536063 0.055801
v 0.014975 -0.536063 0.055801
v -0.001460 -0.536063 0.057965
v 0.014975 -0.582997 0.055801
v -0.001460 -0.536063 -0.069032
v -0.017894 -0.582997 -0.066869
v -0.001460 -0.582997 -0.069032
v -0.001460 -0.582997 -0.069032
v -0.017894 -0.582997 -0.066869
v -0.001460 -0.536063 -0.069032
v -0.001460 -0.582997 0.057965
v -0.017894 -0.536063 0.055801
v -0.001460 -0.536063 0.057965
v -0.001460 -0.536063 0.057965
v -0.017894 -0.536063 0.055801
v -0.001460 -0.582997 0.057965
v 0.014975 -0.536063 0.055801
v 0.030289 -0.582997 0.049458
v 0.014975 -0.582997 0.055801
v 0.014975 -0.582997 0.055801
v 0.030289 -0.582997 0.049458
v 0.014975 -0.536063 0.055801
v -0.001460 -0.536063 0.057965
v 0.014975 -0.582997 0.055801
v -0.001460 -0.582997 0.057965
v -0.001460 -0.582997 0.057965
v 0.014975 -0.582997 0.055801
v -0.001460 -0.536063 0.057965
v -0.017894 -0.582997 -0.066869
v -0.001460 -0.536063 -0.069032
v -0.017894 -0.536063 -0.066869
v -0.017894 -0.536063 -0.066869
v -0.001460 -0.536063 -0.069032
v -0.017894 -0.582997 -0.066869
v -0.017894 -0.536063 0.055801
v -0.001460 -0.582997 0.057965
v -0.017894 -0.582997 0.055801
v -0.017894 -0.582997 0.055801
v -0.001460 -0.582997 0.057965
v -0.017894 -0.536063 0.055801
v -0.017894 -0.536063 -0.066869
v -0.033209 -0.582997 -0.060525
v -0.017894 -0.582997 -0.066869
v -0.017894 -0.582997 -0.066869
v -0.033209 -0.582997 -0.060525
v -0.017894 -0.536063 -0.066869
v -0.017894 -0.582997 0.055801
v -0.033209 -0.536063 0.049458
v -0.017894 -0.536063 0.055801
v -0.017894 -0.536063 0.055801
v -0.033209 -0.536063 0.049458
v -0.017894 -0.582997 0.055801
v -0.033209 -0.582997 -0.060525
v -0.017894 -0.536063 -0.066869
v -0.033209 -0.536063 -0.060525
v -0.033209 -0.536063 -0.060525
v -0.017894 -0.536063 -0.066869
v -0.033209 -0.582997 -0.060525
v -0.033209 -0.536063 0.049458
v -0.017894 -0.582997 0.055801
v -0.033209 -0.582997 0.049458
v -0.033209 -0.582997 0.049458
v -0.017894 -0.582997 0.055801
v -0.033209 -0.536063 0.049458
v -0.033209 -0.582997 0.049458
v -0.046360 -0.536063 0.039367
v -0.033209 -0.536063 0.049458
v -0.033209 -0.536063 0.049458
v -0.046360 -0.536063 0.039367
v -0.033209 -0.582997 0.049458
v -0.033209 -0.582997 -0.060525
v -0.046360 -0.536063 -0.050434
v -0.033209 -0.536063 -0.060525
v -0.033209 -0.536063 -0.060525
v -0.046360 -0.536063 -0.050434
v -0.033209 -0.582997 -0.060525
v -0.046360 -0.536063 0.039367
v -0.033209 -0.582997 0.049458
v -0.046360 -0.582997 0.039367
v -0.046360 -0.582997 0.039367
v -0.033209 -0.582997 0.049458
v -0.046360 -0.536063 0.039367
v -0.046360 -0.536063 -0.050434
v -0.033209 -0.582997 -0.060525
v -0.046360 -0.582997 -0.050434
v -0.046360 -0.582997 -0.050434
v -0.033209 -0.582997 -0.060525
v -0.046360 -0.536063 -0.050434
v -0.056451 -0.582997 0.026216
v -0.046360 -0.536063 0.039367
v -0.046360 -0.582997 0.039367
v -0.046360 -0.582997 0.039367
v -0.046360 -0.536063 0.039367
v -0.056451 -0.582997 0.026216
v -0.046360 -0.536063 -0.050434
v -0.056451 -0.582997 -0.037283
v -0.056451 -0.536063 -0.037283
v -0.056451 -0.536063 -0.037283
v -0.056451 -0.582997 -0.037283
v -0.046360 -0.536063 -0.050434
v -0.056451 -0.582997 -0.037283
v -0.046360 -0.536063 -0.050434
v -0.046360 -0.582997 -0.050434
v -0.046360 -0.582997 -0.050434
v -0.046360 -0.536063 -0.050434
v -0.056451 -0.582997 -0.037283
v -0.046360 -0.536063 0.039367
v -0.056451 -0.582997 0.026216
v -0.056451 -0.536063 0.026216
v -0.056451 -0.536063 0.026216
v -0.056451 -0.582997 0.026216
v -0.046360 -0.536063 0.039367
v -0.062795 -0.582997 -0.021968
v -0.056451 -0.536063 -0.037283
v -0.056451 -0.582997 -0.037283
v -0.056451 -0.582997 -0.037283
v -0.056451 -0.536063 -0.037283
v -0.062795 -0.582997 -0.021968
v -0.056451 -0.536063 -0.037283
v -0.062795 -0.582997 -0.021968
v -0.062795 -0.536063 -0.021968
v -0.062795 -0.536063 -0.021968
v -0.062795 -0.582997 -0.021968
v -0.056451 -0.536063 -0.037283
v -0.062795 -0.582997 0.010901
v -0.056451 -0.536063 0.026216
v -0.056451 -0.582997 0.026216
v -0.056451 -0.582997 0.026216
v -0.056451 -0.536063 0.026216
v -0.062795 -0.582997 0.010901
v -0.064958 -0.536063 -0.005534
v -0.062795 -0.582997 -0.021968
v -0.062795 -0.536063 -0.021968
v -0.062795 -0.536063 -0.021968
v -0.062795 -0.582997 -0.021968
v -0.064958 -0.536063 -0.005534
v -0.056451 -0.536063 0.026216
v -0.062795 -0.582997 0.010901
v -0.062795 -0.536063 0.010901
v -0.062795 -0.536063 0.010901
v -0.062795 -0.582997 0.010901
v -0.056451 -0.536063 0.026216
v -0.062795 -0.582997 -0.021968
v -0.064958 -0.536063 -0.005534
v -0.064958 -0.582997 -0.005534
v -0.064958 -0.582997 -0.005534
v -0.064958 -0.536063 -0.005534
v -0.062795 -0.582997 -0.021968
v -0.064958 -0.582997 -0.005534
v -0.062795 -0.536063 0.010901
v -0.062795 -0.582997 0.010901
v -0.062795 -0.582997 0.010901
v -0.062795 -0.536063 0.010901
v -0.064958 -0.582997 -0.005534
v -0.062795 -0.536063 0.010901
v -0.064958 -0.582997 -0.005534
v -0.064958 -0.536063 -0.005534
v -0.064958 -0.536063 -0.005534
v -0.064958 -0.582997 -0.005534
v -0.062795 -0.536063 0.010901
vn 1 0 0
vn 0.9659258451755842 0 -0.25881897461707376
vn -0.9659258451755842 0 0.25881897461707376
vn -1 0 0
vn 0.8660252955903434 0 -0.5000001873976233
vn -0.8660252955903434 0 0.5000001873976233
vn 0.25881897461707376 0 -0.9659258451755842
vn -0.25881897461707376 0 0.9659258451755842
vn 0.7071067811865476 0 0.7071067811865476
vn -0.7071067811865476 0 -0.7071067811865476
vn -0.8660252955903434 0 -0.5000001873976233
vn 0.8660252955903434 0 0.5000001873976233
vn -0.5000001873976233 0 0.8660252955903434
vn 0.5000001873976233 0 -0.8660252955903434
vn -0.5000001873976233 0 -0.8660252955903434
vn 0.5000001873976233 0 0.8660252955903434
vn 0 0 1
vn 0 0 -1
vn -0.25881897461707376 0 -0.9659258451755842
vn 0.25881897461707376 0 0.9659258451755842
vn 0.7071067811865476 0 -0.7071067811865476
vn -0.7071067811865476 0 0.7071067811865476
usemtl material_0_0
f 1//1 2//2 3//2
f 4//3 5//3 6//4
f 7//2 8//5 9//5
f 10//6 11//6 12//3
f 13//7 14//1 15//1
f 16//4 17//4 18//8
f 19//5 20//9 21//9
f 22//10 23//10 24//6
f 25//7 26//11 27//11
f 28//12 29//12 30//8
f 31//2 32//1 33//1
f 34//4 35//4 36//3
f 37//5 38//2 39//2
f 40//3 41//3 42//6
f 43//9 44//5 45//5
f 46//6 47//6 48//10
f 49//1 50//7 51//7
f 52//8 53//8 54//4
f 55//9 56//13 57//9
f 58//10 59//14 60//10
f 61//13 62//9 63//13
f 64//14 65//10 66//14
f 67//11 68//10 69//10
f 70//9 71//9 72//12
f 73//11 74//7 75//7
f 76//8 77//8 78//12
f 79//10 80//11 81//11
f 82//12 83//12 84//9
f 85//13 86//8 87//13
f 88//14 89//7 90//14
f 91//8 92//13 93//8
f 94//7 95//14 96//7
f 97//10 98//15 99//10
f 100//9 101//16 102//9
f 103//8 104//17 105//8
f 106//7 107//18 108//7
f 109//15 110//10 111//15
f 112//16 113//9 114//16
f 115//17 116//8 117//17
f 118//18 119//7 120//18
f 121//15 122//19 123//15
f 124//16 125//20 126//16
f 127//19 128//18 129//19
f 130//20 131//17 132//20
f 133//17 134//20 135//17
f 136//18 137//19 138//18
f 139//18 140//7 141//18
f 142//17 143//8 144//17
f 145//19 146//15 147//19
f 148//20 149//16 150//20
f 151//18 152//19 153//18
f 154//17 155//20 156//17
f 157//20 158//17 159//20
f 160//19 161//18 162//19
f 163//7 164//18 165//7
f 166//8 167//17 168//8
f 169//20 170//6 171//20
f 172//19 173//5 174//19
f 175//7 176//14 177//7
f 178//8 179//13 180//8
f 181//6 182//20 183//6
f 184//5 185//19 186//5
f 187//14 188//7 189//14
f 190//13 191//8 192//13
f 193//14 194//21 195//14
f 196//13 197//22 198//13
f 199//6 200//10 201//6
f 202//5 203//9 204//5
f 205//21 206//14 207//21
f 208//22 209//13 210//22
f 211//10 212//6 213//10
f 214//9 215//5 216//9
f 217//5 218//21 219//21
f 220//22 221//22 222//6
f 223//10 224//11 225//11
f 226//12 227//12 228//9
f 229//11 230//10 231//10
f 232//9 233//9 234//12
f 235//21 236//5 237//5
f 238//6 239//6 240//22
f 241//7 242//11 243//11
f 244//12 245//12 246//8
f 247//11 248//7 249//7
f 250//8 251//8 252//12
f 253//2 254//5 255//5
f 256//6 257//6 258//3
f 259//1 260//7 261//7
f 262//8 263//8 264//4
f 265//5 266//2 267//2
f 268//3 269//3 270//6
f 271//7 272//1 273//1
f 274//4 275//4 276//8
f 277//1 278//2 279//2
f 280//3 281//3 282//4
f 283//2 284//1 285//1
f 286//4 287//4 288//3
