# SSTK version 0.8.0
# 9
mtllib original-9.mtl
o 3dw.115f49c3c7206ae58e62780ddf14e62c/Model/Komponente_1_1/Komponente_1/mesh1/mesh1-geometry/material_0/component_8#mesh1-geometry
v 0.059875 -0.588519 -0.021968
v 0.062039 -0.635452 -0.005534
v 0.062039 -0.588519 -0.005534
v 0.062039 -0.588519 -0.005534
v 0.062039 -0.635452 -0.005534
v 0.059875 -0.588519 -0.021968
v 0.059875 -0.588519 -0.021968
v 0.053531 -0.635452 -0.037283
v 0.053531 -0.588519 -0.037283
v 0.053531 -0.588519 -0.037283
v 0.053531 -0.635452 -0.037283
v 0.059875 -0.588519 -0.021968
v 0.053531 -0.588519 -0.037283
v 0.043440 -0.635452 -0.050434
v 0.043440 -0.588519 -0.050434
v 0.043440 -0.588519 -0.050434
v 0.043440 -0.635452 -0.050434
v 0.053531 -0.588519 -0.037283
v 0.059875 -0.588519 0.010901
v 0.062039 -0.635452 -0.005534
v 0.062039 -0.588519 -0.005534
v 0.062039 -0.588519 -0.005534
v 0.062039 -0.635452 -0.005534
v 0.059875 -0.588519 0.010901
v 0.030289 -0.635452 -0.060525
v 0.043440 -0.588519 -0.050434
v 0.030289 -0.588519 -0.060525
v 0.030289 -0.588519 -0.060525
v 0.043440 -0.588519 -0.050434
v 0.030289 -0.635452 -0.060525
v 0.053531 -0.588519 0.026216
v 0.059875 -0.635452 0.010901
v 0.059875 -0.588519 0.010901
v 0.059875 -0.588519 0.010901
v 0.059875 -0.635452 0.010901
v 0.053531 -0.588519 0.026216
v 0.053531 -0.588519 0.026216
v 0.043440 -0.635452 0.039367
v 0.043440 -0.588519 0.039367
v 0.043440 -0.588519 0.039367
v 0.043440 -0.635452 0.039367
v 0.053531 -0.588519 0.026216
v 0.062039 -0.635452 -0.005534
v 0.059875 -0.588519 -0.021968
v 0.059875 -0.635452 -0.021968
v 0.059875 -0.635452 -0.021968
v 0.059875 -0.588519 -0.021968
v 0.062039 -0.635452 -0.005534
v 0.053531 -0.635452 -0.037283
v 0.059875 -0.588519 -0.021968
v 0.059875 -0.635452 -0.021968
v 0.059875 -0.635452 -0.021968
v 0.059875 -0.588519 -0.021968
v 0.053531 -0.635452 -0.037283
v 0.043440 -0.635452 -0.050434
v 0.053531 -0.588519 -0.037283
v 0.053531 -0.635452 -0.037283
v 0.053531 -0.635452 -0.037283
v 0.053531 -0.588519 -0.037283
v 0.043440 -0.635452 -0.050434
v 0.043440 -0.588519 -0.050434
v 0.030289 -0.635452 -0.060525
v 0.043440 -0.635452 -0.050434
v 0.043440 -0.635452 -0.050434
v 0.030289 -0.635452 -0.060525
v 0.043440 -0.588519 -0.050434
v 0.062039 -0.635452 -0.005534
v 0.059875 -0.588519 0.010901
v 0.059875 -0.635452 0.010901
v 0.059875 -0.635452 0.010901
v 0.059875 -0.588519 0.010901
v 0.062039 -0.635452 -0.005534
v 0.030289 -0.588519 -0.060525
v 0.014975 -0.635452 -0.066869
v 0.030289 -0.635452 -0.060525
v 0.030289 -0.635452 -0.060525
v 0.014975 -0.635452 -0.066869
v 0.030289 -0.588519 -0.060525
v 0.014975 -0.635452 -0.066869
v 0.030289 -0.588519 -0.060525
v 0.014975 -0.588519 -0.066869
v 0.014975 -0.588519 -0.066869
v 0.030289 -0.588519 -0.060525
v 0.014975 -0.635452 -0.066869
v 0.059875 -0.635452 0.010901
v 0.053531 -0.588519 0.026216
v 0.053531 -0.635452 0.026216
v 0.053531 -0.635452 0.026216
v 0.053531 -0.588519 0.026216
v 0.059875 -0.635452 0.010901
v 0.030289 -0.635452 0.049458
v 0.043440 -0.588519 0.039367
v 0.030289 -0.588519 0.049458
v 0.030289 -0.588519 0.049458
v 0.043440 -0.588519 0.039367
v 0.030289 -0.635452 0.049458
v 0.043440 -0.635452 0.039367
v 0.053531 -0.588519 0.026216
v 0.053531 -0.635452 0.026216
v 0.053531 -0.635452 0.026216
v 0.053531 -0.588519 0.026216
v 0.043440 -0.635452 0.039367
v 0.043440 -0.588519 0.039367
v 0.030289 -0.635452 0.049458
v 0.043440 -0.635452 0.039367
v 0.043440 -0.635452 0.039367
v 0.030289 -0.635452 0.049458
v 0.043440 -0.588519 0.039367
v 0.014975 -0.588519 -0.066869
v -0.001460 -0.635452 -0.069032
v 0.014975 -0.635452 -0.066869
v 0.014975 -0.635452 -0.066869
v -0.001460 -0.635452 -0.069032
v 0.014975 -0.588519 -0.066869
v -0.001460 -0.635452 -0.069032
v 0.014975 -0.588519 -0.066869
v -0.001460 -0.588519 -0.069032
v -0.001460 -0.588519 -0.069032
v 0.014975 -0.588519 -0.066869
v -0.001460 -0.635452 -0.069032
v 0.014975 -0.635452 0.055801
v 0.030289 -0.588519 0.049458
v 0.014975 -0.588519 0.055801
v 0.014975 -0.588519 0.055801
v 0.030289 -0.588519 0.049458
v 0.014975 -0.635452 0.055801
v 0.030289 -0.588519 0.049458
v 0.014975 -0.635452 0.055801
v 0.030289 -0.635452 0.049458
v 0.030289 -0.635452 0.049458
v 0.014975 -0.635452 0.055801
v 0.030289 -0.588519 0.049458
v -0.001460 -0.588519 -0.069032
v -0.017894 -0.635452 -0.066869
v -0.001460 -0.635452 -0.069032
v -0.001460 -0.635452 -0.069032
v -0.017894 -0.635452 -0.066869
v -0.001460 -0.588519 -0.069032
v 0.014975 -0.635452 0.055801
v -0.001460 -0.588519 0.057965
v 0.014975 -0.588519 0.055801
v 0.014975 -0.588519 0.055801
v -0.001460 -0.588519 0.057965
v 0.014975 -0.635452 0.055801
v -0.017894 -0.635452 -0.066869
v -0.001460 -0.588519 -0.069032
v -0.017894 -0.588519 -0.066869
v -0.017894 -0.588519 -0.066869
v -0.001460 -0.588519 -0.069032
v -0.017894 -0.635452 -0.066869
v -0.001460 -0.635452 0.057965
v -0.017894 -0.588519 0.055801
v -0.001460 -0.588519 0.057965
v -0.001460 -0.588519 0.057965
v -0.017894 -0.588519 0.055801
v -0.001460 -0.635452 0.057965
v -0.001460 -0.588519 0.057965
v 0.014975 -0.635452 0.055801
v -0.001460 -0.635452 0.057965
v -0.001460 -0.635452 0.057965
v 0.014975 -0.635452 0.055801
v -0.001460 -0.588519 0.057965
v -0.017894 -0.635452 -0.066869
v -0.033209 -0.588519 -0.060525
v -0.017894 -0.588519 -0.066869
v -0.017894 -0.588519 -0.066869
v -0.033209 -0.588519 -0.060525
v -0.017894 -0.635452 -0.066869
v -0.017894 -0.635452 0.055801
v -0.033209 -0.588519 0.049458
v -0.017894 -0.588519 0.055801
v -0.017894 -0.588519 0.055801
v -0.033209 -0.588519 0.049458
v -0.017894 -0.635452 0.055801
v -0.017894 -0.588519 0.055801
v -0.001460 -0.635452 0.057965
v -0.017894 -0.635452 0.055801
v -0.017894 -0.635452 0.055801
v -0.001460 -0.635452 0.057965
v -0.017894 -0.588519 0.055801
v -0.033209 -0.588519 -0.060525
v -0.017894 -0.635452 -0.066869
v -0.033209 -0.635452 -0.060525
v -0.033209 -0.635452 -0.060525
v -0.017894 -0.635452 -0.066869
v -0.033209 -0.588519 -0.060525
v -0.033209 -0.588519 0.049458
v -0.017894 -0.635452 0.055801
v -0.033209 -0.635452 0.049458
v -0.033209 -0.635452 0.049458
v -0.017894 -0.635452 0.055801
v -0.033209 -0.588519 0.049458
v -0.033209 -0.588519 -0.060525
v -0.046360 -0.635452 -0.050434
v -0.033209 -0.635452 -0.060525
v -0.033209 -0.635452 -0.060525
v -0.046360 -0.635452 -0.050434
v -0.033209 -0.588519 -0.060525
v -0.033209 -0.635452 0.049458
v -0.046360 -0.588519 0.039367
v -0.033209 -0.588519 0.049458
v -0.033209 -0.588519 0.049458
v -0.046360 -0.588519 0.039367
v -0.033209 -0.635452 0.049458
v -0.046360 -0.635452 -0.050434
v -0.033209 -0.588519 -0.060525
v -0.046360 -0.588519 -0.050434
v -0.046360 -0.588519 -0.050434
v -0.033209 -0.588519 -0.060525
v -0.046360 -0.635452 -0.050434
v -0.046360 -0.588519 0.039367
v -0.033209 -0.635452 0.049458
v -0.046360 -0.635452 0.039367
v -0.046360 -0.635452 0.039367
v -0.033209 -0.635452 0.049458
v -0.046360 -0.588519 0.039367
v -0.056451 -0.588519 -0.037283
v -0.046360 -0.635452 -0.050434
v -0.046360 -0.588519 -0.050434
v -0.046360 -0.588519 -0.050434
v -0.046360 -0.635452 -0.050434
v -0.056451 -0.588519 -0.037283
v -0.056451 -0.635452 0.026216
v -0.046360 -0.588519 0.039367
v -0.046360 -0.635452 0.039367
v -0.046360 -0.635452 0.039367
v -0.046360 -0.588519 0.039367
v -0.056451 -0.635452 0.026216
v -0.046360 -0.588519 0.039367
v -0.056451 -0.635452 0.026216
v -0.056451 -0.588519 0.026216
v -0.056451 -0.588519 0.026216
v -0.056451 -0.635452 0.026216
v -0.046360 -0.588519 0.039367
v -0.062795 -0.588519 -0.021968
v -0.056451 -0.635452 -0.037283
v -0.056451 -0.588519 -0.037283
v -0.056451 -0.588519 -0.037283
v -0.056451 -0.635452 -0.037283
v -0.062795 -0.588519 -0.021968
v -0.046360 -0.635452 -0.050434
v -0.056451 -0.588519 -0.037283
v -0.056451 -0.635452 -0.037283
v -0.056451 -0.635452 -0.037283
v -0.056451 -0.588519 -0.037283
v -0.046360 -0.635452 -0.050434
v -0.062795 -0.635452 0.010901
v -0.056451 -0.588519 0.026216
v -0.056451 -0.635452 0.026216
v -0.056451 -0.635452 0.026216
v -0.056451 -0.588519 0.026216
v -0.062795 -0.635452 0.010901
v -0.062795 -0.588519 -0.021968
v -0.064958 -0.635452 -0.005534
v -0.064958 -0.588519 -0.005534
v -0.064958 -0.588519 -0.005534
v -0.064958 -0.635452 -0.005534
v -0.062795 -0.588519 -0.021968
v -0.056451 -0.635452 -0.037283
v -0.062795 -0.588519 -0.021968
v -0.062795 -0.635452 -0.021968
v -0.062795 -0.635452 -0.021968
v -0.062795 -0.588519 -0.021968
v -0.056451 -0.635452 -0.037283
v -0.056451 -0.588519 0.026216
v -0.062795 -0.635452 0.010901
v -0.062795 -0.588519 0.010901
v -0.062795 -0.588519 0.010901
v -0.062795 -0.635452 0.010901
v -0.056451 -0.588519 0.026216
v -0.064958 -0.635452 -0.005534
v -0.062795 -0.588519 -0.021968
v -0.062795 -0.635452 -0.021968
v -0.062795 -0.635452 -0.021968
v -0.062795 -0.588519 -0.021968
v -0.064958 -0.635452 -0.005534
v -0.062795 -0.635452 0.010901
v -0.064958 -0.588519 -0.005534
v -0.064958 -0.635452 -0.005534
v -0.064958 -0.635452 -0.005534
v -0.064958 -0.588519 -0.005534
v -0.062795 -0.635452 0.010901
v -0.064958 -0.588519 -0.005534
v -0.062795 -0.635452 0.010901
v -0.062795 -0.588519 0.010901
v -0.062795 -0.588519 0.010901
v -0.062795 -0.635452 0.010901
v -0.064958 -0.588519 -0.005534
vn -0.25881897461707376 0 -0.9659258451755842
vn 0 0 1
vn 0 0 -1
vn 0.25881897461707376 0 0.9659258451755842
vn 0.8660252955903434 0 -0.5000001873976233
vn -0.8660252955903434 0 0.5000001873976233
vn 0.7071067811865476 0 0.7071067811865476
vn -0.7071067811865476 0 -0.7071067811865476
vn 0.9659258451755842 0 0.25881897461707376
vn -0.9659258451755842 0 -0.25881897461707376
vn -0.5000001873976233 0 0.8660252955903434
vn 0.5000001873976233 0 -0.8660252955903434
vn -0.7071067811865476 0 0.7071067811865476
vn 0.7071067811865476 0 -0.7071067811865476
vn -0.25881897461707376 0 0.9659258451755842
vn 0.25881897461707376 0 -0.9659258451755842
vn 0.5000001873976233 0 0.8660252955903434
vn -0.5000001873976233 0 -0.8660252955903434
vn 0.9659258451755842 0 -0.25881897461707376
vn -0.9659258451755842 0 0.25881897461707376
vn 0.8660252955903434 0 0.5000001873976233
vn -0.8660252955903434 0 -0.5000001873976233
vn -1 0 0
vn 1 0 0
usemtl material_0_0
f 1//1 2//2 3//2
f 4//3 5//3 6//4
f 7//1 8//5 9//5
f 10//6 11//6 12//4
f 13//5 14//7 15//7
f 16//8 17//8 18//6
f 19//9 20//2 21//2
f 22//3 23//3 24//10
f 25//11 26//7 27//11
f 28//12 29//8 30//12
f 31//12 32//9 33//9
f 34//10 35//10 36//11
f 37//12 38//13 39//13
f 40//14 41//14 42//11
f 43//2 44//1 45//1
f 46//4 47//4 48//3
f 49//5 50//1 51//1
f 52//4 53//4 54//6
f 55//7 56//5 57//5
f 58//6 59//6 60//8
f 61//7 62//11 63//7
f 64//8 65//12 66//8
f 67//2 68//9 69//9
f 70//10 71//10 72//3
f 73//11 74//15 75//11
f 76//12 77//16 78//12
f 79//15 80//11 81//15
f 82//16 83//12 84//16
f 85//9 86//12 87//12
f 88//11 89//11 90//10
f 91//17 92//13 93//17
f 94//18 95//14 96//18
f 97//13 98//12 99//12
f 100//11 101//11 102//14
f 103//13 104//17 105//13
f 106//14 107//18 108//14
f 109//15 110//2 111//15
f 112//16 113//3 114//16
f 115//2 116//15 117//2
f 118//3 119//16 120//3
f 121//19 122//17 123//19
f 124//20 125//18 126//20
f 127//17 128//19 129//17
f 130//18 131//20 132//18
f 133//2 134//20 135//2
f 136//3 137//19 138//3
f 139//19 140//3 141//19
f 142//20 143//2 144//20
f 145//20 146//2 147//20
f 148//19 149//3 150//19
f 151//3 152//16 153//3
f 154//2 155//15 156//2
f 157//3 158//19 159//3
f 160//2 161//20 162//2
f 163//20 164//5 165//20
f 166//19 167//6 168//19
f 169//16 170//12 171//16
f 172//15 173//11 174//15
f 175//16 176//3 177//16
f 178//15 179//2 180//15
f 181//5 182//20 183//5
f 184//6 185//19 186//6
f 187//12 188//16 189//12
f 190//11 191//15 192//11
f 193//5 194//7 195//5
f 196//6 197//8 198//6
f 199//12 200//14 201//12
f 202//11 203//13 204//11
f 205//7 206//5 207//7
f 208//8 209//6 210//8
f 211//14 212//12 213//14
f 214//13 215//11 216//13
f 217//21 218//7 219//7
f 220//8 221//8 222//22
f 223//5 224//14 225//14
f 226//13 227//13 228//6
f 229//14 230//5 231//5
f 232//6 233//6 234//13
f 235//15 236//21 237//21
f 238//22 239//22 240//16
f 241//7 242//21 243//21
f 244//22 245//22 246//8
f 247//1 248//5 249//5
f 250//6 251//6 252//4
f 253//15 254//23 255//23
f 256//24 257//24 258//16
f 259//21 260//15 261//15
f 262//16 263//16 264//22
f 265//5 266//1 267//1
f 268//4 269//4 270//6
f 271//23 272//15 273//15
f 274//16 275//16 276//24
f 277//1 278//23 279//23
f 280//24 281//24 282//4
f 283//23 284//1 285//1
f 286//4 287//4 288//24
