# SSTK version 0.8.0
# 5
mtllib original-5.mtl
o 3dw.115f49c3c7206ae58e62780ddf14e62c/Model/Komponente_1_1/Komponente_1/mesh1/mesh1-geometry/material_0/component_4#mesh1-geometry
v 0.059875 -0.483608 -0.021968
v 0.062039 -0.530542 -0.005534
v 0.062039 -0.483608 -0.005534
v 0.062039 -0.483608 -0.005534
v 0.062039 -0.530542 -0.005534
v 0.059875 -0.483608 -0.021968
v 0.053531 -0.483608 -0.037283
v 0.059875 -0.530542 -0.021968
v 0.059875 -0.483608 -0.021968
v 0.059875 -0.483608 -0.021968
v 0.059875 -0.530542 -0.021968
v 0.053531 -0.483608 -0.037283
v 0.043440 -0.483608 -0.050434
v 0.053531 -0.530542 -0.037283
v 0.053531 -0.483608 -0.037283
v 0.053531 -0.483608 -0.037283
v 0.053531 -0.530542 -0.037283
v 0.043440 -0.483608 -0.050434
v 0.062039 -0.483608 -0.005534
v 0.059875 -0.530542 0.010901
v 0.059875 -0.483608 0.010901
v 0.059875 -0.483608 0.010901
v 0.059875 -0.530542 0.010901
v 0.062039 -0.483608 -0.005534
v 0.062039 -0.530542 -0.005534
v 0.059875 -0.483608 -0.021968
v 0.059875 -0.530542 -0.021968
v 0.059875 -0.530542 -0.021968
v 0.059875 -0.483608 -0.021968
v 0.062039 -0.530542 -0.005534
v 0.059875 -0.530542 0.010901
v 0.062039 -0.483608 -0.005534
v 0.062039 -0.530542 -0.005534
v 0.062039 -0.530542 -0.005534
v 0.062039 -0.483608 -0.005534
v 0.059875 -0.530542 0.010901
v 0.059875 -0.530542 -0.021968
v 0.053531 -0.483608 -0.037283
v 0.053531 -0.530542 -0.037283
v 0.053531 -0.530542 -0.037283
v 0.053531 -0.483608 -0.037283
v 0.059875 -0.530542 -0.021968
v 0.053531 -0.530542 -0.037283
v 0.043440 -0.483608 -0.050434
v 0.043440 -0.530542 -0.050434
v 0.043440 -0.530542 -0.050434
v 0.043440 -0.483608 -0.050434
v 0.053531 -0.530542 -0.037283
v 0.059875 -0.483608 0.010901
v 0.053531 -0.530542 0.026216
v 0.053531 -0.483608 0.026216
v 0.053531 -0.483608 0.026216
v 0.053531 -0.530542 0.026216
v 0.059875 -0.483608 0.010901
v 0.053531 -0.530542 0.026216
v 0.059875 -0.483608 0.010901
v 0.059875 -0.530542 0.010901
v 0.059875 -0.530542 0.010901
v 0.059875 -0.483608 0.010901
v 0.053531 -0.530542 0.026216
v 0.043440 -0.483608 -0.050434
v 0.030289 -0.530542 -0.060525
v 0.043440 -0.530542 -0.050434
v 0.043440 -0.530542 -0.050434
v 0.030289 -0.530542 -0.060525
v 0.043440 -0.483608 -0.050434
v 0.030289 -0.530542 -0.060525
v 0.043440 -0.483608 -0.050434
v 0.030289 -0.483608 -0.060525
v 0.030289 -0.483608 -0.060525
v 0.043440 -0.483608 -0.050434
v 0.030289 -0.530542 -0.060525
v 0.043440 -0.530542 0.039367
v 0.053531 -0.483608 0.026216
v 0.053531 -0.530542 0.026216
v 0.053531 -0.530542 0.026216
v 0.053531 -0.483608 0.026216
v 0.043440 -0.530542 0.039367
v 0.030289 -0.483608 -0.060525
v 0.014975 -0.530542 -0.066869
v 0.030289 -0.530542 -0.060525
v 0.030289 -0.530542 -0.060525
v 0.014975 -0.530542 -0.066869
v 0.030289 -0.483608 -0.060525
v 0.053531 -0.483608 0.026216
v 0.043440 -0.530542 0.039367
v 0.043440 -0.483608 0.039367
v 0.043440 -0.483608 0.039367
v 0.043440 -0.530542 0.039367
v 0.053531 -0.483608 0.026216
v 0.014975 -0.530542 -0.066869
v 0.030289 -0.483608 -0.060525
v 0.014975 -0.483608 -0.066869
v 0.014975 -0.483608 -0.066869
v 0.030289 -0.483608 -0.060525
v 0.014975 -0.530542 -0.066869
v 0.043440 -0.530542 0.039367
v 0.030289 -0.483608 0.049458
v 0.043440 -0.483608 0.039367
v 0.043440 -0.483608 0.039367
v 0.030289 -0.483608 0.049458
v 0.043440 -0.530542 0.039367
v 0.030289 -0.530542 0.049458
v 0.014975 -0.483608 0.055801
v 0.030289 -0.483608 0.049458
v 0.030289 -0.483608 0.049458
v 0.014975 -0.483608 0.055801
v 0.030289 -0.530542 0.049458
v 0.014975 -0.483608 -0.066869
v -0.001460 -0.530542 -0.069032
v 0.014975 -0.530542 -0.066869
v 0.014975 -0.530542 -0.066869
v -0.001460 -0.530542 -0.069032
v 0.014975 -0.483608 -0.066869
v 0.014975 -0.530542 0.055801
v -0.001460 -0.483608 0.057965
v 0.014975 -0.483608 0.055801
v 0.014975 -0.483608 0.055801
v -0.001460 -0.483608 0.057965
v 0.014975 -0.530542 0.055801
v 0.030289 -0.483608 0.049458
v 0.043440 -0.530542 0.039367
v 0.030289 -0.530542 0.049458
v 0.030289 -0.530542 0.049458
v 0.043440 -0.530542 0.039367
v 0.030289 -0.483608 0.049458
v 0.014975 -0.483608 0.055801
v 0.030289 -0.530542 0.049458
v 0.014975 -0.530542 0.055801
v 0.014975 -0.530542 0.055801
v 0.030289 -0.530542 0.049458
v 0.014975 -0.483608 0.055801
v -0.001460 -0.530542 -0.069032
v 0.014975 -0.483608 -0.066869
v -0.001460 -0.483608 -0.069032
v -0.001460 -0.483608 -0.069032
v 0.014975 -0.483608 -0.066869
v -0.001460 -0.530542 -0.069032
v -0.001460 -0.483608 0.057965
v 0.014975 -0.530542 0.055801
v -0.001460 -0.530542 0.057965
v -0.001460 -0.530542 0.057965
v 0.014975 -0.530542 0.055801
v -0.001460 -0.483608 0.057965
v -0.001460 -0.483608 -0.069032
v -0.017894 -0.530542 -0.066869
v -0.001460 -0.530542 -0.069032
v -0.001460 -0.530542 -0.069032
v -0.017894 -0.530542 -0.066869
v -0.001460 -0.483608 -0.069032
v -0.001460 -0.530542 0.057965
v -0.017894 -0.483608 0.055801
v -0.001460 -0.483608 0.057965
v -0.001460 -0.483608 0.057965
v -0.017894 -0.483608 0.055801
v -0.001460 -0.530542 0.057965
v -0.017894 -0.530542 -0.066869
v -0.001460 -0.483608 -0.069032
v -0.017894 -0.483608 -0.066869
v -0.017894 -0.483608 -0.066869
v -0.001460 -0.483608 -0.069032
v -0.017894 -0.530542 -0.066869
v -0.017894 -0.483608 0.055801
v -0.001460 -0.530542 0.057965
v -0.017894 -0.530542 0.055801
v -0.017894 -0.530542 0.055801
v -0.001460 -0.530542 0.057965
v -0.017894 -0.483608 0.055801
v -0.017894 -0.530542 0.055801
v -0.033209 -0.483608 0.049458
v -0.017894 -0.483608 0.055801
v -0.017894 -0.483608 0.055801
v -0.033209 -0.483608 0.049458
v -0.017894 -0.530542 0.055801
v -0.017894 -0.483608 -0.066869
v -0.033209 -0.530542 -0.060525
v -0.017894 -0.530542 -0.066869
v -0.017894 -0.530542 -0.066869
v -0.033209 -0.530542 -0.060525
v -0.017894 -0.483608 -0.066869
v -0.033209 -0.483608 0.049458
v -0.017894 -0.530542 0.055801
v -0.033209 -0.530542 0.049458
v -0.033209 -0.530542 0.049458
v -0.017894 -0.530542 0.055801
v -0.033209 -0.483608 0.049458
v -0.033209 -0.530542 -0.060525
v -0.017894 -0.483608 -0.066869
v -0.033209 -0.483608 -0.060525
v -0.033209 -0.483608 -0.060525
v -0.017894 -0.483608 -0.066869
v -0.033209 -0.530542 -0.060525
v -0.033209 -0.530542 0.049458
v -0.046360 -0.483608 0.039367
v -0.033209 -0.483608 0.049458
v -0.033209 -0.483608 0.049458
v -0.046360 -0.483608 0.039367
v -0.033209 -0.530542 0.049458
v -0.033209 -0.483608 -0.060525
v -0.046360 -0.530542 -0.050434
v -0.033209 -0.530542 -0.060525
v -0.033209 -0.530542 -0.060525
v -0.046360 -0.530542 -0.050434
v -0.033209 -0.483608 -0.060525
v -0.046360 -0.483608 0.039367
v -0.033209 -0.530542 0.049458
v -0.046360 -0.530542 0.039367
v -0.046360 -0.530542 0.039367
v -0.033209 -0.530542 0.049458
v -0.046360 -0.483608 0.039367
v -0.046360 -0.530542 -0.050434
v -0.033209 -0.483608 -0.060525
v -0.046360 -0.483608 -0.050434
v -0.046360 -0.483608 -0.050434
v -0.033209 -0.483608 -0.060525
v -0.046360 -0.530542 -0.050434
v -0.056451 -0.530542 0.026216
v -0.046360 -0.483608 0.039367
v -0.046360 -0.530542 0.039367
v -0.046360 -0.530542 0.039367
v -0.046360 -0.483608 0.039367
v -0.056451 -0.530542 0.026216
v -0.056451 -0.483608 -0.037283
v -0.046360 -0.530542 -0.050434
v -0.046360 -0.483608 -0.050434
v -0.046360 -0.483608 -0.050434
v -0.046360 -0.530542 -0.050434
v -0.056451 -0.483608 -0.037283
v -0.062795 -0.483608 -0.021968
v -0.056451 -0.530542 -0.037283
v -0.056451 -0.483608 -0.037283
v -0.056451 -0.483608 -0.037283
v -0.056451 -0.530542 -0.037283
v -0.062795 -0.483608 -0.021968
v -0.046360 -0.483608 0.039367
v -0.056451 -0.530542 0.026216
v -0.056451 -0.483608 0.026216
v -0.056451 -0.483608 0.026216
v -0.056451 -0.530542 0.026216
v -0.046360 -0.483608 0.039367
v -0.046360 -0.530542 -0.050434
v -0.056451 -0.483608 -0.037283
v -0.056451 -0.530542 -0.037283
v -0.056451 -0.530542 -0.037283
v -0.056451 -0.483608 -0.037283
v -0.046360 -0.530542 -0.050434
v -0.056451 -0.530542 -0.037283
v -0.062795 -0.483608 -0.021968
v -0.062795 -0.530542 -0.021968
v -0.062795 -0.530542 -0.021968
v -0.062795 -0.483608 -0.021968
v -0.056451 -0.530542 -0.037283
v -0.062795 -0.530542 0.010901
v -0.056451 -0.483608 0.026216
v -0.056451 -0.530542 0.026216
v -0.056451 -0.530542 0.026216
v -0.056451 -0.483608 0.026216
v -0.062795 -0.530542 0.010901
v -0.064958 -0.483608 -0.005534
v -0.062795 -0.530542 -0.021968
v -0.062795 -0.483608 -0.021968
v -0.062795 -0.483608 -0.021968
v -0.062795 -0.530542 -0.021968
v -0.064958 -0.483608 -0.005534
v -0.056451 -0.483608 0.026216
v -0.062795 -0.530542 0.010901
v -0.062795 -0.483608 0.010901
v -0.062795 -0.483608 0.010901
v -0.062795 -0.530542 0.010901
v -0.056451 -0.483608 0.026216
v -0.062795 -0.483608 0.010901
v -0.064958 -0.530542 -0.005534
v -0.064958 -0.483608 -0.005534
v -0.064958 -0.483608 -0.005534
v -0.064958 -0.530542 -0.005534
v -0.062795 -0.483608 0.010901
v -0.062795 -0.530542 -0.021968
v -0.064958 -0.483608 -0.005534
v -0.064958 -0.530542 -0.005534
v -0.064958 -0.530542 -0.005534
v -0.064958 -0.483608 -0.005534
v -0.062795 -0.530542 -0.021968
v -0.064958 -0.530542 -0.005534
v -0.062795 -0.483608 0.010901
v -0.062795 -0.530542 0.010901
v -0.062795 -0.530542 0.010901
v -0.062795 -0.483608 0.010901
v -0.064958 -0.530542 -0.005534
vn -0.9659258451755842 0 0.25881897461707376
vn -1 0 0
vn 1 0 0
vn 0.9659258451755842 0 -0.25881897461707376
vn -0.8660252955903434 0 0.5000001873976233
vn 0.8660252955903434 0 -0.5000001873976233
vn -0.7071067811865476 0 0.7071067811865476
vn 0.7071067811865476 0 -0.7071067811865476
vn -0.9659258451755842 0 -0.25881897461707376
vn 0.9659258451755842 0 0.25881897461707376
vn -0.8660252955903434 0 -0.5000001873976233
vn 0.8660252955903434 0 0.5000001873976233
vn -0.5000001873976233 0 0.8660252955903434
vn 0.5000001873976233 0 -0.8660252955903434
vn -0.7071067811865476 0 -0.7071067811865476
vn 0.7071067811865476 0 0.7071067811865476
vn -0.25881897461707376 0 0.9659258451755842
vn 0.25881897461707376 0 -0.9659258451755842
vn -0.5000001873976233 0 -0.8660252955903434
vn 0.5000001873976233 0 0.8660252955903434
vn -0.25881897461707376 0 -0.9659258451755842
vn 0.25881897461707376 0 0.9659258451755842
vn 0 0 1
vn 0 0 -1
usemtl material_0_0
f 1//1 2//2 3//2
f 4//3 5//3 6//4
f 7//5 8//1 9//1
f 10//4 11//4 12//6
f 13//7 14//5 15//5
f 16//6 17//6 18//8
f 19//2 20//9 21//9
f 22//10 23//10 24//3
f 25//2 26//1 27//1
f 28//4 29//4 30//3
f 31//9 32//2 33//2
f 34//3 35//3 36//10
f 37//1 38//5 39//5
f 40//6 41//6 42//4
f 43//5 44//7 45//7
f 46//8 47//8 48//6
f 49//9 50//11 51//11
f 52//12 53//12 54//10
f 55//11 56//9 57//9
f 58//10 59//10 60//12
f 61//7 62//13 63//7
f 64//8 65//14 66//8
f 67//13 68//7 69//13
f 70//14 71//8 72//14
f 73//15 74//11 75//11
f 76//12 77//12 78//16
f 79//13 80//17 81//13
f 82//14 83//18 84//14
f 85//11 86//15 87//15
f 88//16 89//16 90//12
f 91//17 92//13 93//17
f 94//18 95//14 96//18
f 97//15 98//19 99//15
f 100//16 101//20 102//16
f 103//19 104//21 105//19
f 106//20 107//22 108//20
f 109//17 110//23 111//17
f 112//18 113//24 114//18
f 115//21 116//24 117//21
f 118//22 119//23 120//22
f 121//19 122//15 123//19
f 124//20 125//16 126//20
f 127//21 128//19 129//21
f 130//22 131//20 132//22
f 133//23 134//17 135//23
f 136//24 137//18 138//24
f 139//24 140//21 141//24
f 142//23 143//22 144//23
f 145//23 146//22 147//23
f 148//24 149//21 150//24
f 151//24 152//18 153//24
f 154//23 155//17 156//23
f 157//22 158//23 159//22
f 160//21 161//24 162//21
f 163//18 164//24 165//18
f 166//17 167//23 168//17
f 169//18 170//14 171//18
f 172//17 173//13 174//17
f 175//22 176//20 177//22
f 178//21 179//19 180//21
f 181//14 182//18 183//14
f 184//13 185//17 186//13
f 187//20 188//22 189//20
f 190//19 191//21 192//19
f 193//14 194//8 195//14
f 196//13 197//7 198//13
f 199//20 200//16 201//20
f 202//19 203//15 204//19
f 205//8 206//14 207//8
f 208//7 209//13 210//7
f 211//16 212//20 213//16
f 214//15 215//19 216//15
f 217//6 218//8 219//8
f 220//7 221//7 222//5
f 223//12 224//16 225//16
f 226//15 227//15 228//11
f 229//10 230//12 231//12
f 232//11 233//11 234//9
f 235//8 236//6 237//6
f 238//5 239//5 240//7
f 241//16 242//12 243//12
f 244//11 245//11 246//15
f 247//12 248//10 249//10
f 250//9 251//9 252//11
f 253//4 254//6 255//6
f 256//5 257//5 258//1
f 259//3 260//10 261//10
f 262//9 263//9 264//2
f 265//6 266//4 267//4
f 268//1 269//1 270//5
f 271//4 272//3 273//3
f 274//2 275//2 276//1
f 277//10 278//3 279//3
f 280//2 281//2 282//9
f 283//3 284//4 285//4
f 286//1 287//1 288//2
