# SSTK version 0.8.0
# 4
mtllib original-4.mtl
o 3dw.115f49c3c7206ae58e62780ddf14e62c/Model/Komponente_1_1/Komponente_1/mesh1/mesh1-geometry/material_0/component_3#mesh1-geometry
v 0.059875 -0.320721 -0.021968
v 0.062039 -0.273787 -0.005534
v 0.062039 -0.320721 -0.005534
v 0.062039 -0.320721 -0.005534
v 0.062039 -0.273787 -0.005534
v 0.059875 -0.320721 -0.021968
v 0.062039 -0.320721 -0.005534
v 0.059875 -0.273787 0.010901
v 0.059875 -0.320721 0.010901
v 0.059875 -0.320721 0.010901
v 0.059875 -0.273787 0.010901
v 0.062039 -0.320721 -0.005534
v 0.059875 -0.320721 0.010901
v 0.053531 -0.273787 0.026216
v 0.053531 -0.320721 0.026216
v 0.053531 -0.320721 0.026216
v 0.053531 -0.273787 0.026216
v 0.059875 -0.320721 0.010901
v 0.053531 -0.320721 0.026216
v 0.043440 -0.273787 0.039367
v 0.043440 -0.320721 0.039367
v 0.043440 -0.320721 0.039367
v 0.043440 -0.273787 0.039367
v 0.053531 -0.320721 0.026216
v 0.053531 -0.320721 -0.037283
v 0.059875 -0.273787 -0.021968
v 0.059875 -0.320721 -0.021968
v 0.059875 -0.320721 -0.021968
v 0.059875 -0.273787 -0.021968
v 0.053531 -0.320721 -0.037283
v 0.062039 -0.273787 -0.005534
v 0.059875 -0.320721 -0.021968
v 0.059875 -0.273787 -0.021968
v 0.059875 -0.273787 -0.021968
v 0.059875 -0.320721 -0.021968
v 0.062039 -0.273787 -0.005534
v 0.059875 -0.273787 0.010901
v 0.062039 -0.320721 -0.005534
v 0.062039 -0.273787 -0.005534
v 0.062039 -0.273787 -0.005534
v 0.062039 -0.320721 -0.005534
v 0.059875 -0.273787 0.010901
v 0.053531 -0.273787 0.026216
v 0.059875 -0.320721 0.010901
v 0.059875 -0.273787 0.010901
v 0.059875 -0.273787 0.010901
v 0.059875 -0.320721 0.010901
v 0.053531 -0.273787 0.026216
v 0.043440 -0.273787 0.039367
v 0.053531 -0.320721 0.026216
v 0.053531 -0.273787 0.026216
v 0.053531 -0.273787 0.026216
v 0.053531 -0.320721 0.026216
v 0.043440 -0.273787 0.039367
v 0.043440 -0.320721 0.039367
v 0.030289 -0.273787 0.049458
v 0.043440 -0.273787 0.039367
v 0.043440 -0.273787 0.039367
v 0.030289 -0.273787 0.049458
v 0.043440 -0.320721 0.039367
v 0.043440 -0.320721 -0.050434
v 0.053531 -0.273787 -0.037283
v 0.053531 -0.320721 -0.037283
v 0.053531 -0.320721 -0.037283
v 0.053531 -0.273787 -0.037283
v 0.043440 -0.320721 -0.050434
v 0.059875 -0.273787 -0.021968
v 0.053531 -0.320721 -0.037283
v 0.053531 -0.273787 -0.037283
v 0.053531 -0.273787 -0.037283
v 0.053531 -0.320721 -0.037283
v 0.059875 -0.273787 -0.021968
v 0.030289 -0.273787 0.049458
v 0.043440 -0.320721 0.039367
v 0.030289 -0.320721 0.049458
v 0.030289 -0.320721 0.049458
v 0.043440 -0.320721 0.039367
v 0.030289 -0.273787 0.049458
v 0.030289 -0.273787 -0.060525
v 0.043440 -0.320721 -0.050434
v 0.030289 -0.320721 -0.060525
v 0.030289 -0.320721 -0.060525
v 0.043440 -0.320721 -0.050434
v 0.030289 -0.273787 -0.060525
v 0.053531 -0.273787 -0.037283
v 0.043440 -0.320721 -0.050434
v 0.043440 -0.273787 -0.050434
v 0.043440 -0.273787 -0.050434
v 0.043440 -0.320721 -0.050434
v 0.053531 -0.273787 -0.037283
v 0.030289 -0.320721 0.049458
v 0.014975 -0.273787 0.055801
v 0.030289 -0.273787 0.049458
v 0.030289 -0.273787 0.049458
v 0.014975 -0.273787 0.055801
v 0.030289 -0.320721 0.049458
v 0.014975 -0.273787 -0.066869
v 0.030289 -0.320721 -0.060525
v 0.014975 -0.320721 -0.066869
v 0.014975 -0.320721 -0.066869
v 0.030289 -0.320721 -0.060525
v 0.014975 -0.273787 -0.066869
v 0.043440 -0.320721 -0.050434
v 0.030289 -0.273787 -0.060525
v 0.043440 -0.273787 -0.050434
v 0.043440 -0.273787 -0.050434
v 0.030289 -0.273787 -0.060525
v 0.043440 -0.320721 -0.050434
v 0.030289 -0.320721 -0.060525
v 0.014975 -0.273787 -0.066869
v 0.030289 -0.273787 -0.060525
v 0.030289 -0.273787 -0.060525
v 0.014975 -0.273787 -0.066869
v 0.030289 -0.320721 -0.060525
v 0.014975 -0.273787 0.055801
v 0.030289 -0.320721 0.049458
v 0.014975 -0.320721 0.055801
v 0.014975 -0.320721 0.055801
v 0.030289 -0.320721 0.049458
v 0.014975 -0.273787 0.055801
v 0.014975 -0.320721 -0.066869
v -0.001460 -0.273787 -0.069032
v 0.014975 -0.273787 -0.066869
v 0.014975 -0.273787 -0.066869
v -0.001460 -0.273787 -0.069032
v 0.014975 -0.320721 -0.066869
v 0.014975 -0.273787 0.055801
v -0.001460 -0.320721 0.057965
v 0.014975 -0.320721 0.055801
v 0.014975 -0.320721 0.055801
v -0.001460 -0.320721 0.057965
v 0.014975 -0.273787 0.055801
v -0.001460 -0.273787 -0.069032
v 0.014975 -0.320721 -0.066869
v -0.001460 -0.320721 -0.069032
v -0.001460 -0.320721 -0.069032
v 0.014975 -0.320721 -0.066869
v -0.001460 -0.273787 -0.069032
v -0.001460 -0.320721 0.057965
v 0.014975 -0.273787 0.055801
v -0.001460 -0.273787 0.057965
v -0.001460 -0.273787 0.057965
v 0.014975 -0.273787 0.055801
v -0.001460 -0.320721 0.057965
v -0.001460 -0.320721 -0.069032
v -0.017894 -0.273787 -0.066869
v -0.001460 -0.273787 -0.069032
v -0.001460 -0.273787 -0.069032
v -0.017894 -0.273787 -0.066869
v -0.001460 -0.320721 -0.069032
v -0.017894 -0.273787 -0.066869
v -0.001460 -0.320721 -0.069032
v -0.017894 -0.320721 -0.066869
v -0.017894 -0.320721 -0.066869
v -0.001460 -0.320721 -0.069032
v -0.017894 -0.273787 -0.066869
v -0.001460 -0.273787 0.057965
v -0.017894 -0.320721 0.055801
v -0.001460 -0.320721 0.057965
v -0.001460 -0.320721 0.057965
v -0.017894 -0.320721 0.055801
v -0.001460 -0.273787 0.057965
v -0.033209 -0.273787 -0.060525
v -0.017894 -0.320721 -0.066869
v -0.033209 -0.320721 -0.060525
v -0.033209 -0.320721 -0.060525
v -0.017894 -0.320721 -0.066869
v -0.033209 -0.273787 -0.060525
v -0.017894 -0.320721 -0.066869
v -0.033209 -0.273787 -0.060525
v -0.017894 -0.273787 -0.066869
v -0.017894 -0.273787 -0.066869
v -0.033209 -0.273787 -0.060525
v -0.017894 -0.320721 -0.066869
v -0.017894 -0.320721 0.055801
v -0.001460 -0.273787 0.057965
v -0.017894 -0.273787 0.055801
v -0.017894 -0.273787 0.055801
v -0.001460 -0.273787 0.057965
v -0.017894 -0.320721 0.055801
v -0.033209 -0.320721 -0.060525
v -0.046360 -0.273787 -0.050434
v -0.033209 -0.273787 -0.060525
v -0.033209 -0.273787 -0.060525
v -0.046360 -0.273787 -0.050434
v -0.033209 -0.320721 -0.060525
v -0.017894 -0.320721 0.055801
v -0.033209 -0.273787 0.049458
v -0.017894 -0.273787 0.055801
v -0.017894 -0.273787 0.055801
v -0.033209 -0.273787 0.049458
v -0.017894 -0.320721 0.055801
v -0.046360 -0.273787 -0.050434
v -0.033209 -0.320721 -0.060525
v -0.046360 -0.320721 -0.050434
v -0.046360 -0.320721 -0.050434
v -0.033209 -0.320721 -0.060525
v -0.046360 -0.273787 -0.050434
v -0.033209 -0.273787 0.049458
v -0.017894 -0.320721 0.055801
v -0.033209 -0.320721 0.049458
v -0.033209 -0.320721 0.049458
v -0.017894 -0.320721 0.055801
v -0.033209 -0.273787 0.049458
v -0.056451 -0.320721 -0.037283
v -0.046360 -0.273787 -0.050434
v -0.046360 -0.320721 -0.050434
v -0.046360 -0.320721 -0.050434
v -0.046360 -0.273787 -0.050434
v -0.056451 -0.320721 -0.037283
v -0.033209 -0.273787 0.049458
v -0.046360 -0.320721 0.039367
v -0.033209 -0.320721 0.049458
v -0.033209 -0.320721 0.049458
v -0.046360 -0.320721 0.039367
v -0.033209 -0.273787 0.049458
v -0.046360 -0.273787 -0.050434
v -0.056451 -0.320721 -0.037283
v -0.056451 -0.273787 -0.037283
v -0.056451 -0.273787 -0.037283
v -0.056451 -0.320721 -0.037283
v -0.046360 -0.273787 -0.050434
v -0.046360 -0.320721 0.039367
v -0.033209 -0.273787 0.049458
v -0.046360 -0.273787 0.039367
v -0.046360 -0.273787 0.039367
v -0.033209 -0.273787 0.049458
v -0.046360 -0.320721 0.039367
v -0.062795 -0.273787 -0.021968
v -0.056451 -0.320721 -0.037283
v -0.056451 -0.273787 -0.037283
v -0.056451 -0.273787 -0.037283
v -0.056451 -0.320721 -0.037283
v -0.062795 -0.273787 -0.021968
v -0.056451 -0.273787 0.026216
v -0.046360 -0.320721 0.039367
v -0.046360 -0.273787 0.039367
v -0.046360 -0.273787 0.039367
v -0.046360 -0.320721 0.039367
v -0.056451 -0.273787 0.026216
v -0.056451 -0.320721 -0.037283
v -0.062795 -0.273787 -0.021968
v -0.062795 -0.320721 -0.021968
v -0.062795 -0.320721 -0.021968
v -0.062795 -0.273787 -0.021968
v -0.056451 -0.320721 -0.037283
v -0.046360 -0.320721 0.039367
v -0.056451 -0.273787 0.026216
v -0.056451 -0.320721 0.026216
v -0.056451 -0.320721 0.026216
v -0.056451 -0.273787 0.026216
v -0.046360 -0.320721 0.039367
v -0.064958 -0.273787 -0.005534
v -0.062795 -0.320721 -0.021968
v -0.062795 -0.273787 -0.021968
v -0.062795 -0.273787 -0.021968
v -0.062795 -0.320721 -0.021968
v -0.064958 -0.273787 -0.005534
v -0.062795 -0.320721 0.010901
v -0.056451 -0.273787 0.026216
v -0.056451 -0.320721 0.026216
v -0.056451 -0.320721 0.026216
v -0.056451 -0.273787 0.026216
v -0.062795 -0.320721 0.010901
v -0.062795 -0.320721 -0.021968
v -0.064958 -0.273787 -0.005534
v -0.064958 -0.320721 -0.005534
v -0.064958 -0.320721 -0.005534
v -0.064958 -0.273787 -0.005534
v -0.062795 -0.320721 -0.021968
v -0.056451 -0.273787 0.026216
v -0.062795 -0.320721 0.010901
v -0.062795 -0.273787 0.010901
v -0.062795 -0.273787 0.010901
v -0.062795 -0.320721 0.010901
v -0.056451 -0.273787 0.026216
v -0.062795 -0.273787 0.010901
v -0.064958 -0.320721 -0.005534
v -0.064958 -0.273787 -0.005534
v -0.064958 -0.273787 -0.005534
v -0.064958 -0.320721 -0.005534
v -0.062795 -0.273787 0.010901
v -0.064958 -0.320721 -0.005534
v -0.062795 -0.273787 0.010901
v -0.062795 -0.320721 0.010901
v -0.062795 -0.320721 0.010901
v -0.062795 -0.273787 0.010901
v -0.064958 -0.320721 -0.005534
vn 0.9659258451755842 0 -0.25881897461707376
vn 1 0 0
vn -1 0 0
vn -0.9659258451755842 0 0.25881897461707376
vn 0.9659258451755842 0 0.25881897461707376
vn -0.9659258451755842 0 -0.25881897461707376
vn 0.8660252955903434 0 0.5000001873976233
vn -0.8660252955903434 0 -0.5000001873976233
vn 0.7071067811865476 0 -0.7071067811865476
vn -0.7071067811865476 0 0.7071067811865476
vn 0.8660252955903434 0 -0.5000001873976233
vn -0.8660252955903434 0 0.5000001873976233
vn -0.5000001873976233 0 -0.8660252955903434
vn 0.5000001873976233 0 0.8660252955903434
vn 0.5000001873976233 0 -0.8660252955903434
vn -0.5000001873976233 0 0.8660252955903434
vn 0.25881897461707376 0 -0.9659258451755842
vn -0.25881897461707376 0 0.9659258451755842
vn 0 0 -1
vn 0 0 1
vn -0.25881897461707376 0 -0.9659258451755842
vn 0.25881897461707376 0 0.9659258451755842
vn -0.7071067811865476 0 -0.7071067811865476
vn 0.7071067811865476 0 0.7071067811865476
usemtl material_0_0
f 1//1 2//2 3//2
f 4//3 5//3 6//4
f 7//2 8//5 9//5
f 10//6 11//6 12//3
f 13//5 14//7 15//7
f 16//8 17//8 18//6
f 19//7 20//9 21//9
f 22//10 23//10 24//8
f 25//11 26//1 27//1
f 28//4 29//4 30//12
f 31//2 32//1 33//1
f 34//4 35//4 36//3
f 37//5 38//2 39//2
f 40//3 41//3 42//6
f 43//7 44//5 45//5
f 46//6 47//6 48//8
f 49//9 50//7 51//7
f 52//8 53//8 54//10
f 55//9 56//13 57//9
f 58//10 59//14 60//10
f 61//9 62//11 63//11
f 64//12 65//12 66//10
f 67//1 68//11 69//11
f 70//12 71//12 72//4
f 73//13 74//9 75//13
f 76//14 77//10 78//14
f 79//15 80//9 81//15
f 82//16 83//10 84//16
f 85//11 86//9 87//9
f 88//10 89//10 90//12
f 91//13 92//4 93//13
f 94//14 95//1 96//14
f 97//17 98//15 99//17
f 100//18 101//16 102//18
f 103//9 104//15 105//9
f 106//10 107//16 108//10
f 109//15 110//17 111//15
f 112//16 113//18 114//16
f 115//4 116//13 117//4
f 118//1 119//14 120//1
f 121//17 122//19 123//17
f 124//18 125//20 126//18
f 127//4 128//20 129//4
f 130//1 131//19 132//1
f 133//19 134//17 135//19
f 136//20 137//18 138//20
f 139//20 140//4 141//20
f 142//19 143//1 144//19
f 145//19 146//21 147//19
f 148//20 149//22 150//20
f 151//21 152//19 153//21
f 154//22 155//20 156//22
f 157//20 158//5 159//20
f 160//19 161//6 162//19
f 163//13 164//21 165//13
f 166//14 167//22 168//14
f 169//21 170//13 171//21
f 172//22 173//14 174//22
f 175//5 176//20 177//5
f 178//6 179//19 180//6
f 181//13 182//23 183//13
f 184//14 185//24 186//14
f 187//5 188//8 189//5
f 190//6 191//7 192//6
f 193//23 194//13 195//23
f 196//24 197//14 198//24
f 199//8 200//5 201//8
f 202//7 203//6 204//7
f 205//15 206//23 207//23
f 208//24 209//24 210//16
f 211//8 212//10 213//8
f 214//7 215//9 216//7
f 217//23 218//15 219//15
f 220//16 221//16 222//24
f 223//10 224//8 225//10
f 226//9 227//7 228//9
f 229//5 230//15 231//15
f 232//16 233//16 234//6
f 235//14 236//10 237//10
f 238//9 239//9 240//13
f 241//15 242//5 243//5
f 244//6 245//6 246//16
f 247//10 248//14 249//14
f 250//13 251//13 252//9
f 253//2 254//5 255//5
f 256//6 257//6 258//3
f 259//1 260//14 261//14
f 262//13 263//13 264//4
f 265//5 266//2 267//2
f 268//3 269//3 270//6
f 271//14 272//1 273//1
f 274//4 275//4 276//13
f 277//1 278//2 279//2
f 280//3 281//3 282//4
f 283//2 284//1 285//1
f 286//4 287//4 288//3
