# SSTK version 0.8.0
# 1
mtllib original-1.mtl
o Group1/mesh1/mesh1-geometry#mesh1-geometry
v 0.054615 -0.425958 0.842134
v -0.047259 -0.425958 0.842134
v 0.003678 -0.425958 0.848840
v 0.102080 -0.425958 0.822473
v 0.003678 -0.557207 0.848840
v 0.054615 -0.557207 0.842134
v 0.102080 -0.557207 0.822473
v -0.094725 -0.425958 0.822473
v -0.047259 -0.557207 0.842134
v 0.142840 -0.557207 0.791197
v 0.142840 -0.425958 0.791197
v -0.094725 -0.557207 0.822473
v 0.003678 -0.557207 0.804139
v 0.003678 -0.425958 0.804139
v -0.135484 -0.557207 0.791197
v 0.174116 -0.425958 0.750437
v 0.043045 -0.557207 0.798956
v 0.043045 -0.425958 0.798956
v -0.135484 -0.425958 0.791197
v 0.174116 -0.557207 0.750437
v 0.079730 -0.425958 0.783760
v 0.079730 -0.557207 0.783760
v -0.035690 -0.557207 0.798956
v -0.035690 -0.425958 0.798956
v -0.166761 -0.557207 0.750437
v 0.193777 -0.425958 0.702971
v 0.111232 -0.425958 0.759588
v -0.072374 -0.557207 0.783760
v -0.072374 -0.425958 0.783760
v -0.166761 -0.425958 0.750437
v 0.111232 -0.557207 0.759588
v 0.193777 -0.557207 0.702971
v 0.135404 -0.425958 0.728086
v -0.186422 -0.557207 0.702971
v -0.103876 -0.557207 0.759588
v 0.135404 -0.557207 0.728086
v 0.200483 -0.425958 0.652035
v 0.150599 -0.425958 0.691402
v -0.103876 -0.425958 0.759588
v -0.186422 -0.425958 0.702971
v -0.128048 -0.557207 0.728086
v 0.150599 -0.557207 0.691402
v 0.200483 -0.557207 0.652035
v -0.128048 -0.425958 0.728086
v -0.193127 -0.557207 0.652035
v -0.143244 -0.557207 0.691402
v 0.193777 -0.425958 0.601097
v 0.155782 -0.425958 0.652035
v 0.155782 -0.557207 0.652035
v -0.143244 -0.425958 0.691402
v -0.193127 -0.425958 0.652035
v 0.193777 -0.557207 0.601097
v -0.186422 -0.557207 0.601097
v -0.148426 -0.557207 0.652035
v -0.148426 -0.425958 0.652035
v 0.150599 -0.557207 0.612667
v 0.174116 -0.425958 0.553632
v 0.150599 -0.425958 0.612667
v -0.186422 -0.425958 0.601097
v 0.135404 -0.557207 0.575982
v 0.174116 -0.557207 0.553632
v 0.135404 -0.425958 0.575982
v -0.143244 -0.425958 0.612667
v -0.166761 -0.557207 0.553632
v -0.143244 -0.557207 0.612667
v 0.142840 -0.425958 0.512872
v 0.111232 -0.425958 0.544480
v -0.128048 -0.425958 0.575982
v -0.166761 -0.425958 0.553632
v -0.128048 -0.557207 0.575982
v 0.111232 -0.557207 0.544480
v 0.142840 -0.557207 0.512872
v -0.135484 -0.557207 0.512872
v -0.103876 -0.557207 0.544480
v 0.102080 -0.557207 0.481596
v 0.079730 -0.425958 0.520308
v -0.103876 -0.425958 0.544480
v -0.135484 -0.425958 0.512872
v 0.079730 -0.557207 0.520308
v 0.102080 -0.425958 0.481596
v 0.043045 -0.557207 0.505113
v 0.043045 -0.425958 0.505113
v -0.094725 -0.425958 0.481596
v -0.072374 -0.557207 0.520308
v 0.054615 -0.557207 0.461935
v 0.003678 -0.557207 0.499930
v -0.072374 -0.425958 0.520308
v -0.094725 -0.557207 0.481596
v -0.035690 -0.425958 0.505113
v -0.035690 -0.557207 0.505113
v 0.054615 -0.425958 0.461935
v -0.047259 -0.557207 0.461935
v 0.003678 -0.425958 0.499930
v -0.047259 -0.425958 0.461935
v 0.003678 -0.557207 0.455229
v 0.003678 -0.425958 0.455229
vt 0.061996 1.348538
vt 0.061996 2.290351
vt 0 1.819444
vt 0.243759 0.909722
vt -1.803879 1.213385
vt -1.803879 0
vt -2.278849 1.213385
vt -1.328909 1.213385
vt -1.328909 0
vt -0.747191 1.213385
vt -0.747191 0
vt -1.222161 1.213385
vt 0.243759 2.729167
vt -2.278849 0
vt -1.222161 0
vt -0.57334 0
vt -0.57334 1.213385
vt -0.09837 0
vt 0.532903 0.532903
vt -2.139734 1.213385
vt -2.139734 0
vt -2.614704 1.213385
vt -0.061996 2.290351
vt -0.061996 1.348538
vt -0.243759 2.729167
vt -0.243759 0.909722
vt -0.09837 1.213385
vt -0.413258 1.819444
vt -0.532903 0.532903
vt 0.413258 1.819444
vt -2.614704 0
vt -0.532903 3.105986
vt 0.09837 1.213385
vt 0.57334 1.213385
vt 0.09837 0
vt -0.461172 1.455497
vt 0.461172 1.455497
vt 0.532903 3.105986
vt -2.313585 1.213385
vt -2.313585 0
vt -2.788555 1.213385
vt -2.788555 0
vt 0.57334 0
vt 0.601651 1.116351
vt 0.909722 0.243759
vt 1.749938 0
vt 1.382849 1.213385
vt 1.382849 0
vt -0.601651 1.116351
vt -0.461172 2.183392
vt 1.749938 1.213385
vt 0.461172 2.183392
vt -0.909722 0.243759
vt 0.747191 1.213385
vt 1.222161 1.213385
vt 0.747191 0
vt 0.82512 0.82512
vt 0.801132 1.213385
vt 1.16822 0
vt 1.16822 1.213385
vt 0.801132 0
vt -0.601651 2.522538
vt 2.224908 0
vt 1.85782 1.213385
vt 1.85782 0
vt 2.224908 1.213385
vt 0.601651 2.522538
vt -0.909722 3.39513
vt -0.82512 0.82512
vt 1.222161 0
vt 1.116351 0.601651
vt 1.348538 0.061996
vt 0.152311 1.213385
vt 0.519399 0
vt 0.519399 1.213385
vt 2.560763 0
vt 2.193675 1.213385
vt 2.193675 0
vt 2.560763 1.213385
vt 0.909722 3.39513
vt -0.82512 2.813769
vt 0.152311 0
vt -1.116351 0.601651
vt -1.348538 0.061996
vt 1.328909 1.213385
vt 1.803879 1.213385
vt 1.328909 0
vt 1.455497 0.461172
vt -0.519399 0
vt -0.152311 1.213385
vt -0.519399 1.213385
vt 2.734614 0
vt 2.367526 1.213385
vt 2.367526 0
vt 0.82512 2.813769
vt -1.116351 3.037238
vt -1.348538 3.576893
vt -0.152311 0
vt -1.455497 0.461172
vt 1.803879 0
vt 1.819444 0
vt -1.16822 0
vt -0.801132 1.213385
vt -1.16822 1.213385
vt -0.801132 0
vt 2.734614 1.213385
vt 1.116351 3.037238
vt 1.348538 3.576893
vt -1.455497 3.177717
vt -1.819444 0
vt 2.278849 1.213385
vt 1.819444 0.413258
vt -1.382849 1.213385
vt -1.749938 0
vt -1.382849 0
vt 1.455497 3.177717
vt -1.819444 3.638889
vt -1.819444 0.413258
vt 2.278849 0
vt 2.290351 0.061996
vt -1.749938 1.213385
vt 1.819444 3.638889
vt -1.819444 3.225631
vt -2.183392 0.461172
vt -2.290351 0.061996
vt 2.139734 1.213385
vt 2.614704 1.213385
vt 2.139734 0
vt 2.183392 0.461172
vt -1.85782 1.213385
vt -2.224908 0
vt -1.85782 0
vt 1.819444 3.225631
vt -2.290351 3.576893
vt -2.522538 0.601651
vt 2.614704 0
vt 2.522538 0.601651
vt 2.729167 0.243759
vt -2.224908 1.213385
vt 2.183392 3.177717
vt 2.290351 3.576893
vt -2.183392 3.177717
vt -2.193675 1.213385
vt -2.560763 0
vt -2.193675 0
vt -2.729167 0.243759
vt 2.313585 1.213385
vt 2.788555 1.213385
vt 2.313585 0
vt 2.813769 0.82512
vt -2.560763 1.213385
vt 2.522538 3.037238
vt -2.522538 3.037238
vt -2.729167 3.39513
vt -2.813769 0.82512
vt 2.788555 0
vt 3.105986 0.532903
vt -2.734614 0
vt -2.367526 1.213385
vt -2.734614 1.213385
vt -2.367526 0
vt 2.729167 3.39513
vt -2.813769 2.813769
vt -3.105986 0.532903
vt 3.037238 1.116351
vt 2.813769 2.813769
vt -3.105986 3.105986
vt -3.037238 1.116351
vt -3.177717 1.455497
vt -3.39513 0.909722
vt 3.177717 1.455497
vt 3.105986 3.105986
vt -3.037238 2.522538
vt 3.39513 0.909722
vt -3.225631 1.819444
vt 3.037238 2.522538
vt 3.177717 2.183392
vt 3.39513 2.729167
vt -3.177717 2.183392
vt -3.576893 2.290351
vt -3.576893 1.348538
vt 3.225631 1.819444
vt -3.39513 2.729167
vt 3.576893 1.348538
vt -3.638889 1.819444
vt 3.576893 2.290351
vt 3.638889 1.819444
vt 4.239954 1.341392
vt 4.625405 0
vt 4.625405 1.341392
vt 5.010855 0
vt 5.010855 1.341392
vt 5.396305 0
vt 5.396305 1.341392
vt 4.239954 0
vt 5.781756 0
vt 3.854504 1.341392
vt 5.781756 1.341392
vt 3.854504 0
vt 6.167206 1.341392
vt 3.469053 1.341392
vt 3.469053 0
vt 6.167206 0
vt 3.083603 0
vt 6.552656 1.341392
vt 3.083603 1.341392
vt 6.552656 0
vt 2.698153 0
vt 6.938107 1.341392
vt 2.698153 1.341392
vt 6.938107 0
vt 2.312702 0
vt 7.323557 1.341392
vt 2.312702 1.341392
vt 7.323557 0
vt 1.927252 0
vt 7.709008 1.341392
vt 1.927252 1.341392
vt 7.709008 0
vt 1.541802 0
vt 8.094458 1.341392
vt 1.541802 1.341392
vt 8.094458 0
vt 1.156351 0
vt 8.479908 0
vt 1.156351 1.341392
vt 8.479908 1.341392
vt 0.770901 1.341392
vt 8.865359 0
vt 0.770901 0
vt 8.865359 1.341392
vt 0.38545 1.341392
vt 9.250809 0
vt 0.38545 0
vt 9.250809 1.341392
vt 0 1.341392
vt 0 0
vn 0 1 0
vn 0 -1 0
vn 0 0 -1
vn 0.2588189595935754 0 -0.965925849201117
vn -0.2588189595935754 0 -0.965925849201117
vn -0.5000001748438417 0 -0.8660253028382762
vn -0.7071067811865476 0 -0.7071067811865476
vn 0.5000001748438417 0 -0.8660253028382762
vn -0.8660253028382762 0 -0.5000001748438417
vn 0.7071067811865476 0 -0.7071067811865476
vn 0.2588189595935754 0 0.965925849201117
vn 0 0 1
vn 0.8660253028382762 0 -0.5000001748438417
vn -0.965925849201117 0 -0.2588189595935754
vn 0.5000001748438417 0 0.8660253028382762
vn -0.2588189595935754 0 0.965925849201117
vn 0.7071067811865476 0 0.7071067811865476
vn -0.5000001748438417 0 0.8660253028382762
vn 0.965925849201117 0 -0.2588189595935754
vn -1 0 0
vn 0.8660253028382762 0 0.5000001748438417
vn -0.7071067811865476 0 0.7071067811865476
vn 0.965925849201117 0 0.2588189595935754
vn 1 0 0
vn -0.8660253028382762 0 0.5000001748438417
vn -0.965925849201117 0 0.2588189595935754
usemtl material_0_0
f 1/1/1 2/2/1 3/3/1
f 2/2/1 1/1/1 4/4/1
f 3/3/2 2/2/2 1/1/2
f 4/4/2 1/1/2 2/2/2
f 3/5/3 5/6/3 2/7/4
f 1/8/5 6/9/5 3/5/3
f 4/10/6 7/11/6 1/12/5
f 2/2/1 4/4/1 8/13/1
f 8/13/2 4/4/2 2/2/2
f 9/14/4 2/7/4 5/6/3
f 5/6/3 3/5/3 6/9/5
f 6/15/5 1/12/5 7/11/6
f 7/16/6 4/17/6 10/18/7
f 8/13/1 4/4/1 11/19/1
f 11/19/2 4/4/2 8/13/2
f 2/20/4 9/21/4 8/22/8
f 9/23/2 6/24/2 5/3/2
f 5/3/1 6/24/1 9/23/1
f 6/24/2 12/25/2 7/26/2
f 7/26/1 12/25/1 6/24/1
f 11/27/7 10/18/7 4/17/6
f 13/28/2 10/29/2 7/26/2
f 7/26/1 10/29/1 13/28/1
f 8/13/1 11/19/1 14/30/1
f 14/30/2 11/19/2 8/13/2
f 12/31/8 8/22/8 9/21/4
f 6/24/2 9/23/2 12/25/2
f 12/25/1 9/23/1 6/24/1
f 7/26/2 12/25/2 15/32/2
f 15/32/1 12/25/1 7/26/1
f 11/33/7 16/34/9 10/35/7
f 10/29/2 13/28/2 17/36/2
f 17/36/1 13/28/1 10/29/1
f 7/26/2 15/32/2 13/28/2
f 13/28/1 15/32/1 7/26/1
f 14/30/1 11/19/1 18/37/1
f 18/37/2 11/19/2 14/30/2
f 14/30/1 19/38/1 8/13/1
f 8/13/2 19/38/2 14/30/2
f 8/39/8 12/40/8 19/41/10
f 15/42/10 19/41/10 12/40/8
f 20/43/9 10/35/7 16/34/9
f 21/44/1 11/19/1 16/45/1
f 16/45/2 11/19/2 21/44/2
f 13/46/3 18/47/5 17/48/5
f 17/48/11 18/47/11 13/46/12
f 10/29/2 17/36/2 22/49/2
f 22/49/1 17/36/1 10/29/1
f 13/28/2 15/32/2 23/50/2
f 23/50/1 15/32/1 13/28/1
f 18/37/1 11/19/1 21/44/1
f 21/44/2 11/19/2 18/37/2
f 18/47/5 13/46/3 14/51/3
f 14/51/12 13/46/12 18/47/11
f 19/38/1 14/30/1 24/52/1
f 24/52/2 14/30/2 19/38/2
f 15/40/10 25/42/13 19/39/10
f 10/29/2 22/49/2 20/53/2
f 20/53/1 22/49/1 10/29/1
f 16/54/9 26/55/14 20/56/9
f 21/44/1 16/45/1 27/57/1
f 27/57/2 16/45/2 21/44/2
f 21/58/6 17/59/5 18/60/5
f 18/60/11 17/59/11 21/58/15
f 17/59/5 21/58/6 22/61/6
f 22/61/15 21/58/15 17/59/11
f 23/50/2 15/32/2 28/62/2
f 28/62/1 15/32/1 23/50/1
f 23/63/4 14/64/3 13/65/3
f 13/65/12 14/64/12 23/63/16
f 14/64/3 23/63/4 24/66/4
f 24/66/16 23/63/16 14/64/12
f 19/38/1 24/52/1 29/67/1
f 29/67/2 24/52/2 19/38/2
f 30/41/13 19/39/10 25/42/13
f 28/62/2 15/32/2 25/68/2
f 25/68/1 15/32/1 28/62/1
f 20/53/2 22/49/2 31/69/2
f 31/69/1 22/49/1 20/53/1
f 32/70/14 20/56/9 26/55/14
f 33/71/1 16/45/1 26/72/1
f 26/72/2 16/45/2 33/71/2
f 27/57/1 16/45/1 33/71/1
f 33/71/2 16/45/2 27/57/2
f 27/73/7 22/74/6 21/75/6
f 21/75/15 22/74/15 27/73/17
f 28/76/8 24/77/4 23/78/4
f 23/78/16 24/77/16 28/76/18
f 24/77/4 28/76/8 29/79/8
f 29/79/18 28/76/18 24/77/16
f 19/38/1 29/67/1 30/80/1
f 30/80/2 29/67/2 19/38/2
f 25/21/13 34/31/19 30/20/13
f 28/62/2 25/68/2 35/81/2
f 35/81/1 25/68/1 28/62/1
f 22/74/6 27/73/7 31/82/7
f 31/82/17 27/73/17 22/74/15
f 20/53/2 31/69/2 36/83/2
f 36/83/1 31/69/1 20/53/1
f 20/53/2 36/83/2 32/84/2
f 32/84/1 36/83/1 20/53/1
f 26/85/14 37/86/20 32/87/14
f 33/71/1 26/72/1 38/88/1
f 38/88/2 26/72/2 33/71/2
f 36/89/9 27/90/7 33/91/9
f 33/91/21 27/90/17 36/89/21
f 35/92/10 29/93/8 28/94/8
f 28/94/18 29/93/18 35/92/22
f 30/80/1 29/67/1 39/95/1
f 39/95/2 29/67/2 30/80/2
f 40/22/19 30/20/13 34/31/19
f 41/96/2 25/68/2 34/97/2
f 34/97/1 25/68/1 41/96/1
f 35/81/2 25/68/2 41/96/2
f 41/96/1 25/68/1 35/81/1
f 27/90/7 36/89/9 31/98/7
f 31/98/17 36/89/21 27/90/17
f 32/84/2 36/83/2 42/99/2
f 42/99/1 36/83/1 32/84/1
f 43/100/20 32/87/14 37/86/20
f 38/88/1 26/72/1 37/101/1
f 37/101/2 26/72/2 38/88/2
f 42/102/14 33/103/9 38/104/14
f 38/104/23 33/103/21 42/102/23
f 33/103/9 42/102/14 36/105/9
f 36/105/21 42/102/23 33/103/21
f 29/93/8 35/92/10 39/106/10
f 39/106/22 35/92/22 29/93/18
f 30/80/1 39/95/1 44/107/1
f 44/107/2 39/95/2 30/80/2
f 30/80/1 44/107/1 40/108/1
f 40/108/2 44/107/2 30/80/2
f 34/6/19 45/14/24 40/5/19
f 41/96/2 34/97/2 46/109/2
f 46/109/1 34/97/1 41/96/1
f 44/106/13 35/94/10 41/92/13
f 41/92/25 35/94/22 44/106/25
f 32/84/2 42/99/2 43/110/2
f 43/110/1 42/99/1 32/84/1
f 37/86/20 47/111/26 43/100/20
f 38/88/1 37/101/1 48/112/1
f 48/112/2 37/101/2 38/88/2
f 38/113/14 49/114/20 42/115/14
f 42/115/23 49/114/24 38/113/23
f 35/94/10 44/106/13 39/93/10
f 39/93/22 44/106/25 35/94/22
f 40/108/1 44/107/1 50/116/1
f 50/116/2 44/107/2 40/108/2
f 51/7/24 40/5/19 45/14/24
f 46/109/2 34/97/2 45/117/2
f 45/117/1 34/97/1 46/109/1
f 50/79/19 41/78/13 46/76/19
f 46/76/26 41/78/25 50/79/26
f 41/78/13 50/79/19 44/77/13
f 44/77/25 50/79/26 41/78/25
f 43/110/2 42/99/2 49/118/2
f 49/118/1 42/99/1 43/110/1
f 52/119/26 43/100/20 47/111/26
f 48/112/1 37/101/1 47/120/1
f 47/120/2 37/101/2 48/112/2
f 49/114/20 38/113/14 48/121/20
f 48/121/24 38/113/23 49/114/24
f 40/108/1 50/116/1 51/122/1
f 51/122/2 50/116/2 40/108/2
f 45/9/24 53/6/23 51/8/24
f 46/109/2 45/117/2 54/123/2
f 54/123/1 45/117/1 46/109/1
f 46/65/19 55/66/24 50/64/19
f 50/64/26 55/66/20 46/65/26
f 43/110/2 49/118/2 56/124/2
f 56/124/1 49/118/1 43/110/1
f 43/110/2 56/124/2 52/125/2
f 52/125/1 56/124/1 43/110/1
f 47/126/26 57/127/25 52/128/26
f 48/112/1 47/120/1 58/129/1
f 58/129/2 47/120/2 48/112/2
f 48/130/20 56/131/26 49/132/20
f 49/132/24 56/131/19 48/130/24
f 51/122/1 50/116/1 55/133/1
f 55/133/2 50/116/2 51/122/2
f 59/5/23 51/8/24 53/6/23
f 54/123/2 45/117/2 53/134/2
f 53/134/1 45/117/1 54/123/1
f 55/66/24 46/65/19 54/63/24
f 54/63/20 46/65/26 55/66/20
f 52/125/2 56/124/2 60/135/2
f 60/135/1 56/124/1 52/125/1
f 61/136/25 52/128/26 57/127/25
f 62/137/1 47/120/1 57/138/1
f 57/138/2 47/120/2 62/137/2
f 58/129/1 47/120/1 62/137/1
f 62/137/2 47/120/2 58/129/2
f 56/131/26 48/130/20 58/139/26
f 58/139/19 48/130/24 56/131/19
f 51/122/1 55/133/1 63/140/1
f 63/140/2 55/133/2 51/122/2
f 51/122/1 63/140/1 59/141/1
f 59/141/2 63/140/2 51/122/2
f 53/11/23 64/15/21 59/10/23
f 54/123/2 53/134/2 65/142/2
f 65/142/1 53/134/1 54/123/1
f 54/48/24 63/51/23 55/47/24
f 55/47/20 63/51/14 54/48/20
f 58/143/26 60/144/25 56/145/26
f 56/145/19 60/144/13 58/143/19
f 52/125/2 60/135/2 61/146/2
f 61/146/1 60/135/1 52/125/1
f 57/147/25 66/148/22 61/149/25
f 62/137/1 57/138/1 67/150/1
f 67/150/2 57/138/2 62/137/2
f 60/144/25 58/143/26 62/151/25
f 62/151/13 58/143/19 60/144/13
f 59/141/1 63/140/1 68/152/1
f 68/152/2 63/140/2 59/141/2
f 69/12/21 59/10/23 64/15/21
f 70/153/2 53/134/2 64/154/2
f 64/154/1 53/134/1 70/153/1
f 65/142/2 53/134/2 70/153/2
f 70/153/1 53/134/1 65/142/1
f 63/51/23 54/48/24 65/46/23
f 65/46/14 54/48/20 63/51/14
f 61/146/2 60/135/2 71/155/2
f 71/155/1 60/135/1 61/146/1
f 72/156/22 61/149/25 66/148/22
f 67/150/1 57/138/1 66/157/1
f 66/157/2 57/138/2 67/150/2
f 71/158/22 62/159/25 67/160/22
f 67/160/10 62/159/13 71/158/10
f 62/159/25 71/158/22 60/161/25
f 60/161/13 71/158/10 62/159/13
f 65/61/23 68/60/21 63/58/23
f 63/58/14 68/60/9 65/61/14
f 59/141/1 68/152/1 69/162/1
f 69/162/2 68/152/2 59/141/2
f 64/18/21 73/16/17 69/27/21
f 70/153/2 64/154/2 74/163/2
f 74/163/1 64/154/1 70/153/1
f 68/60/21 65/61/23 70/59/21
f 70/59/9 65/61/14 68/60/9
f 61/146/2 71/155/2 72/164/2
f 72/164/1 71/155/1 61/146/1
f 72/149/22 66/147/22 75/156/18
f 67/150/1 66/157/1 76/165/1
f 76/165/2 66/157/2 67/150/2
f 76/160/18 71/161/22 67/159/22
f 67/159/10 71/161/10 76/160/8
f 69/162/1 68/152/1 77/166/1
f 77/166/2 68/152/2 69/162/2
f 78/17/17 69/27/21 73/16/17
f 74/163/2 64/154/2 73/167/2
f 73/167/1 64/154/1 74/163/1
f 77/75/17 70/82/21 74/74/17
f 74/74/7 70/82/9 77/75/7
f 70/82/21 77/75/17 68/73/21
f 68/73/9 77/75/7 70/82/9
f 72/164/2 71/155/2 79/168/2
f 79/168/1 71/155/1 72/164/1
f 80/148/18 75/156/18 66/147/22
f 72/164/2 81/169/2 75/170/2
f 75/170/1 81/169/1 72/164/1
f 76/165/1 66/157/1 82/171/1
f 82/171/2 66/157/2 76/165/2
f 71/161/22 76/160/18 79/158/18
f 79/158/8 76/160/8 71/161/10
f 69/162/1 77/166/1 78/172/1
f 78/172/2 77/166/2 69/162/2
f 78/34/17 73/43/17 83/33/15
f 74/163/2 73/167/2 84/173/2
f 84/173/1 73/167/1 74/163/1
f 84/98/15 77/91/17 74/89/17
f 74/89/7 77/91/7 84/98/6
f 72/164/2 79/168/2 81/169/2
f 81/169/1 79/168/1 72/164/1
f 75/128/18 80/126/18 85/136/16
f 82/171/1 66/157/1 80/174/1
f 80/174/2 66/157/2 82/171/2
f 75/170/2 81/169/2 86/175/2
f 86/175/1 81/169/1 75/170/1
f 82/151/16 79/145/18 76/143/18
f 76/143/8 79/145/8 82/151/4
f 78/172/1 77/166/1 87/176/1
f 87/176/2 77/166/2 78/172/2
f 88/35/15 83/33/15 73/43/17
f 78/172/1 89/177/1 83/178/1
f 83/178/2 89/177/2 78/172/2
f 84/173/2 73/167/2 90/179/2
f 90/179/1 73/167/1 84/173/1
f 77/91/17 84/98/15 87/90/15
f 87/90/6 84/98/6 77/91/7
f 79/145/18 82/151/16 81/144/16
f 81/144/4 82/151/4 79/145/8
f 91/127/16 85/136/16 80/126/18
f 75/170/2 92/180/2 85/181/2
f 85/181/1 92/180/1 75/170/1
f 82/171/1 80/174/1 93/182/1
f 93/182/2 80/174/2 82/171/2
f 81/132/16 93/139/12 86/131/12
f 86/131/3 93/139/3 81/132/4
f 75/170/2 86/175/2 88/183/2
f 88/183/1 86/175/1 75/170/1
f 78/172/1 87/176/1 89/177/1
f 89/177/2 87/176/2 78/172/2
f 83/55/15 88/70/15 94/54/11
f 90/179/2 73/167/2 88/183/2
f 88/183/1 73/167/1 90/179/1
f 83/178/1 89/177/1 93/182/1
f 93/182/2 89/177/2 83/178/2
f 90/105/11 87/104/15 84/102/15
f 84/102/6 87/104/6 90/105/5
f 93/139/12 81/132/16 82/130/16
f 82/130/4 81/132/4 93/139/3
f 85/100/16 91/86/16 95/119/12
f 83/178/1 80/174/1 91/184/1
f 91/184/2 80/174/2 83/178/2
f 75/170/2 88/183/2 92/180/2
f 92/180/1 88/183/1 75/170/1
f 85/181/2 92/180/2 95/185/2
f 95/185/1 92/180/1 85/181/1
f 83/178/1 93/182/1 80/174/1
f 80/174/2 93/182/2 83/178/2
f 89/121/11 86/115/12 93/113/12
f 93/113/3 86/115/3 89/121/5
f 90/179/2 88/183/2 86/175/2
f 86/175/1 88/183/1 90/179/1
f 87/104/15 90/105/11 89/103/11
f 89/103/5 90/105/5 87/104/6
f 92/56/11 94/54/11 88/70/15
f 83/178/1 91/184/1 94/186/1
f 94/186/2 91/184/2 83/178/2
f 96/111/12 95/119/12 91/86/16
f 95/87/12 96/85/12 92/100/11
f 86/115/12 89/121/11 90/114/11
f 90/114/5 89/121/5 86/115/3
f 94/86/11 92/100/11 96/85/12
f 94/186/1 91/184/1 96/187/1
f 96/187/2 91/184/2 94/186/2
usemtl material_1_0
f 2/188/16 5/189/12 3/190/12
f 3/190/12 6/191/11 1/192/11
f 1/192/11 7/193/15 4/194/15
f 5/189/12 2/188/16 9/195/16
f 6/191/11 3/190/12 5/189/12
f 7/193/15 1/192/11 6/191/11
f 10/196/17 4/194/15 7/193/15
f 8/197/18 9/195/16 2/188/16
f 4/194/15 10/196/17 11/198/17
f 9/195/16 8/197/18 12/199/18
f 10/196/17 16/200/21 11/198/17
f 19/201/22 12/199/18 8/197/18
f 12/199/18 19/201/22 15/202/22
f 16/200/21 10/196/17 20/203/21
f 19/201/22 25/204/25 15/202/22
f 20/203/21 26/205/23 16/200/21
f 25/204/25 19/201/22 30/206/25
f 26/205/23 20/203/21 32/207/23
f 30/206/25 34/208/26 25/204/25
f 32/207/23 37/209/24 26/205/23
f 34/208/26 30/206/25 40/210/26
f 37/209/24 32/207/23 43/211/24
f 40/210/26 45/212/20 34/208/26
f 43/211/24 47/213/19 37/209/24
f 45/212/20 40/210/26 51/214/20
f 47/213/19 43/211/24 52/215/19
f 51/214/20 53/216/14 45/212/20
f 52/215/19 57/217/13 47/213/19
f 53/216/14 51/214/20 59/218/14
f 57/217/13 52/215/19 61/219/13
f 59/218/14 64/220/9 53/216/14
f 61/219/13 66/221/10 57/217/13
f 64/220/9 59/218/14 69/222/9
f 66/221/10 61/219/13 72/223/10
f 69/222/9 73/224/7 64/220/9
f 75/225/8 66/221/10 72/223/10
f 73/224/7 69/222/9 78/226/7
f 66/221/10 75/225/8 80/227/8
f 83/228/6 73/224/7 78/226/7
f 85/229/4 80/227/8 75/225/8
f 73/224/7 83/228/6 88/230/6
f 80/227/8 85/229/4 91/231/4
f 94/232/5 88/230/6 83/228/6
f 95/233/3 91/231/4 85/229/4
f 88/230/6 94/232/5 92/234/5
f 91/231/4 95/233/3 96/235/3
f 92/234/5 96/236/3 95/237/3
f 96/236/3 92/234/5 94/232/5
