# SSTK version 0.8.0
# 12
mtllib original-12.mtl
o pentagonal_dodecahedron1/pentagonal_dodecahedron/mesh14/mesh14-geometry#mesh14-geometry
v 0.117889 0.143452 0.088054
v 0.048495 0.070487 0.183566
v 0.075001 0.070487 0.101989
v 0.075001 0.143452 0.220049
v -0.063786 0.070487 0.101989
v 0.075001 0.188546 0.029024
v 0.117889 0.188546 0.161019
v 0.005607 0.188546 0.242596
v -0.037280 0.070487 0.183566
v 0.005607 0.070487 0.051572
v 0.005607 0.143452 0.006477
v 0.075001 0.261511 0.147084
v -0.063786 0.143452 0.220049
v 0.048495 0.261511 0.065507
v 0.005607 0.261511 0.197501
v -0.106674 0.143452 0.088054
v -0.063786 0.188546 0.029024
v -0.037280 0.261511 0.065507
v -0.063786 0.261511 0.147084
v -0.106674 0.188546 0.161019
vt 0.135819 0.219345
vt -0.097724 0.049666
vt 0.080687 0.049666
vt -0.152856 0.219345
vt 0.127259 -0.075423
vt -0.04242 0.158121
vt -0.04242 -0.130555
vt -0.080687 0.049666
vt 0.008518 0.324212
vt -0.135819 0.219345
vt -0.008518 0.324212
vt -0.013783 0.331458
vt 0.075423 0.056912
vt 0.130555 0.226591
vt 0.127259 0.102989
vt -0.147287 0.013783
vt 0.152856 0.219345
vt 0.144338 0.137273
vt -0.144338 0.137273
vt 0 0.032406
vt 0.075423 0.302474
vt -0.013783 0.027927
vt 0.130555 0.132795
vt -0.102989 0.056912
vt -0.158121 0.132795
vt 0.144338 0.231069
vt -0.089206 0.06139
vt 0.089206 0.06139
vt 0.102989 0.056912
vt -0.130555 0.226591
vt -0.075423 0.056912
vt 0.097724 0.049666
vt 0.013783 0.027927
vt -0.075423 0.302474
vt -0.130555 0.132795
vt 0.089206 0.306952
vt -0.089206 0.306952
vt -0.158121 0.226591
vt -0.102989 0.302474
vt -0.144338 0.231069
vt 0.013783 0.331458
vt 0.102989 0.302474
vt 0.118302 0.102989
vt -0.051376 -0.130555
vt 0.118302 -0.075423
vt 0.080687 0.295228
vt -0.008518 0.020681
vt 0.135819 0.125549
vt -0.051376 0.158121
vt -0.156244 0.013783
vt 0 0.335937
vt 0.158121 0.226591
vt 0.158121 0.132795
vt -0.097724 0.295228
vt -0.152856 0.125549
vt 0.152856 0.125549
vt -0.135819 0.125549
vt 0.008518 0.020681
vt -0.080687 0.295228
vt 0.097724 0.295228
vn 0.8506507549930529 -0.44721387119213774 0.27639292039249336
vn -0.8506507549930529 0.44721387119213774 -0.27639292039249336
vn 0 -1 0
vn 0 1 0
vn 0.5257308589448522 -0.4472138800111904 -0.7236068058541492
vn -0.5257308589448522 0.4472138800111904 0.7236068058541492
vn 0 -0.4472139954999092 0.8944269909998285
vn 0 0.4472139954999092 -0.8944269909998285
vn 0.8506507549930529 0.44721387119213774 -0.27639292039249336
vn -0.8506507549930529 -0.44721387119213774 0.27639292039249336
vn 0.5257308589448522 0.4472138800111904 0.7236068058541492
vn -0.5257308589448522 -0.4472138800111904 -0.7236068058541492
usemtl material_0_0
f 1/1/1 2/2/1 3/3/1
f 2/2/1 1/1/1 4/4/1
f 3/3/2 2/2/2 1/1/2
f 4/4/2 1/1/2 2/2/2
f 2/5/3 5/6/3 3/7/3
f 3/7/4 5/6/4 2/5/4
f 3/8/5 6/9/5 1/10/5
f 1/10/6 6/9/6 3/8/6
f 4/4/1 1/1/1 7/11/1
f 7/11/2 1/1/2 4/4/2
f 8/12/7 2/13/7 4/14/7
f 4/14/8 2/13/8 8/12/8
f 5/6/3 2/5/3 9/15/3
f 9/15/4 2/5/4 5/6/4
f 3/7/3 5/6/3 10/16/3
f 10/16/4 5/6/4 3/7/4
f 6/9/5 3/8/5 11/17/5
f 11/17/6 3/8/6 6/9/6
f 6/18/9 7/19/9 1/20/9
f 1/20/10 7/19/10 6/18/10
f 12/21/11 4/22/11 7/23/11
f 7/23/12 4/22/12 12/21/12
f 2/13/7 8/12/7 9/24/7
f 9/24/8 8/12/8 2/13/8
f 4/22/11 12/21/11 8/25/11
f 8/25/12 12/21/12 4/22/12
f 13/26/10 5/27/10 9/28/10
f 9/28/9 5/27/9 13/26/9
f 5/29/12 11/30/12 10/31/12
f 10/31/11 11/30/11 5/29/11
f 11/17/5 3/8/5 10/32/5
f 10/32/6 3/8/6 11/17/6
f 11/33/8 14/34/8 6/35/8
f 6/35/7 14/34/7 11/33/7
f 7/19/9 6/18/9 14/36/9
f 14/36/10 6/18/10 7/19/10
f 7/19/9 14/36/9 12/37/9
f 12/37/10 14/36/10 7/19/10
f 9/24/7 8/12/7 13/38/7
f 13/38/8 8/12/8 9/24/8
f 8/25/11 12/21/11 15/39/11
f 15/39/12 12/21/12 8/25/12
f 5/27/10 13/26/10 16/40/10
f 16/40/9 13/26/9 5/27/9
f 11/30/12 5/29/12 17/41/12
f 17/41/11 5/29/11 11/30/11
f 14/34/8 11/33/8 18/42/8
f 18/42/7 11/33/7 14/34/7
f 18/43/4 12/44/4 14/45/4
f 14/45/3 12/44/3 18/43/3
f 15/46/6 13/47/6 8/48/6
f 8/48/5 13/47/5 15/46/5
f 12/44/4 19/49/4 15/50/4
f 15/50/3 19/49/3 12/44/3
f 16/40/10 13/26/10 20/51/10
f 20/51/9 13/26/9 16/40/9
f 17/41/12 5/29/12 16/52/12
f 16/52/11 5/29/11 17/41/11
f 18/42/8 11/33/8 17/53/8
f 17/53/7 11/33/7 18/42/7
f 19/49/4 12/44/4 18/43/4
f 18/43/3 12/44/3 19/49/3
f 13/47/6 15/46/6 19/54/6
f 19/54/5 15/46/5 13/47/5
f 13/47/6 19/54/6 20/55/6
f 20/55/5 19/54/5 13/47/5
f 20/56/2 17/57/2 16/58/2
f 16/58/1 17/57/1 20/56/1
f 17/57/2 20/56/2 18/59/2
f 18/59/1 20/56/1 17/57/1
f 18/59/2 20/56/2 19/60/2
f 19/60/1 20/56/1 18/59/1
