# SSTK version 0.8.0
# 24
mtllib original-24.mtl
o Group14/mesh20/mesh20-geometry#mesh20-geometry
v 0.110634 0.185577 -0.031312
v 0.106841 0.238019 -0.002503
v 0.106841 0.185577 -0.002503
v 0.110634 0.238019 -0.031312
v 0.095721 0.238019 0.024343
v 0.106841 0.185577 -0.060121
v 0.106841 0.238019 -0.060121
v 0.095721 0.185577 0.024343
v 0.095721 0.238019 -0.086967
v 0.078032 0.238019 0.047396
v 0.078032 0.238019 -0.110020
v 0.095721 0.185577 -0.086967
v 0.078032 0.185577 0.047396
v 0.078032 0.185577 -0.110020
v 0.054979 0.185577 0.065085
v 0.054979 0.238019 -0.127710
v 0.054979 0.238019 0.065085
v 0.054979 0.185577 -0.127710
v 0.028133 0.185577 0.076205
v 0.028133 0.238019 -0.138830
v 0.028133 0.238019 0.076205
v 0.028133 0.185577 -0.138830
v -0.000676 0.185577 0.079998
v -0.000676 0.238019 -0.142623
v -0.000676 0.238019 0.079998
v -0.000676 0.185577 -0.142623
v -0.029486 0.185577 0.076205
v -0.029486 0.238019 -0.138830
v -0.029486 0.238019 0.076205
v -0.029486 0.185577 -0.138830
v -0.056332 0.185577 0.065085
v -0.056332 0.238019 -0.127710
v -0.056332 0.238019 0.065085
v -0.056332 0.185577 -0.127710
v -0.079385 0.185577 0.047396
v -0.079385 0.238019 -0.110020
v -0.079385 0.238019 0.047396
v -0.079385 0.185577 -0.110020
v -0.097074 0.238019 0.024343
v -0.097074 0.238019 -0.086967
v -0.097074 0.185577 -0.086967
v -0.097074 0.185577 0.024343
v -0.108194 0.238019 -0.002503
v -0.108194 0.238019 -0.060121
v -0.108194 0.185577 -0.060121
v -0.108194 0.185577 -0.002503
v -0.111987 0.238019 -0.031312
v -0.111987 0.185577 -0.031312
vt 5.405024 0
vt 4.278479 2.103237
vt 4.278479 0
vt 5.405024 2.103237
vt 5.075067 2.103237
vt 6.201612 0
vt 6.201612 2.103237
vt -8.483753 3.198491
vt -8.483753 5.432305
vt -8.630796 4.315398
vt 3.151934 2.103237
vt 3.151934 0
vt 8.483753 5.432305
vt 8.483753 3.198491
vt 8.630796 4.315398
vt 5.075067 0
vt 8.052642 6.473097
vt 8.052642 2.157699
vt -8.052642 2.157699
vt 5.487411 2.103237
vt 6.613956 0
vt 6.613956 2.103237
vt 7.366845 7.366845
vt -8.052642 6.473097
vt 2.898749 0
vt 1.772204 2.103237
vt 1.772204 0
vt 2.898749 2.103237
vt 5.487411 0
vt 7.366845 1.263951
vt 0.233315 2.103237
vt 1.35986 0
vt 1.35986 2.103237
vt -7.366845 1.263951
vt 0.233315 0
vt 6.473097 8.052642
vt -1.35986 0
vt -0.233315 2.103237
vt -1.35986 2.103237
vt -7.366845 7.366845
vt -6.473097 0.578154
vt 6.473097 0.578154
vt -0.233315 0
vt -6.473097 8.052642
vt 5.432305 8.483753
vt -2.898749 0
vt -1.772204 2.103237
vt -2.898749 2.103237
vt -5.432305 0.147044
vt 5.432305 0.147044
vt -1.772204 0
vt -5.432305 8.483753
vt 4.315398 8.630796
vt -4.278479 0
vt -3.151934 2.103237
vt -4.278479 2.103237
vt -4.315398 0
vt 4.315398 0
vt -3.151934 0
vt -4.315398 8.630796
vt 3.198491 8.483753
vt -5.405024 0
vt -5.405024 2.103237
vt -3.198491 0.147044
vt 3.198491 0.147044
vt -3.198491 8.483753
vt 2.157699 8.052642
vt -6.201612 0
vt -5.075067 2.103237
vt -6.201612 2.103237
vt -2.157699 0.578154
vt 2.157699 0.578154
vt -5.075067 0
vt -2.157699 8.052642
vt 1.263951 7.366845
vt -6.613956 0
vt -5.487411 2.103237
vt -6.613956 2.103237
vt -1.263951 1.263951
vt 1.263951 1.263951
vt -5.487411 0
vt -1.263951 7.366845
vt 0.578154 6.473097
vt 0.578154 2.157699
vt -0.578154 2.157699
vt -0.578154 6.473097
vt 0.147044 5.432305
vt -0.147044 3.198491
vt 0.147044 3.198491
vt -0.147044 5.432305
vt 0 4.315398
vn 1 0 0
vn 0.965925849201117 0 0.2588189595935754
vn -0.965925849201117 0 -0.2588189595935754
vn -1 0 0
vn 0.8660253028382762 0 0.5000001748438417
vn -0.8660253028382762 0 -0.5000001748438417
vn 0 -1 0
vn 0 1 0
vn 0.965925849201117 0 -0.2588189595935754
vn -0.965925849201117 0 0.2588189595935754
vn 0.7071067811865476 0 0.7071067811865476
vn -0.7071067811865476 0 -0.7071067811865476
vn 0.8660253028382762 0 -0.5000001748438417
vn -0.8660253028382762 0 0.5000001748438417
vn 0.7071067811865476 0 -0.7071067811865476
vn -0.7071067811865476 0 0.7071067811865476
vn 0.5000001748438417 0 0.8660253028382762
vn -0.5000001748438417 0 -0.8660253028382762
vn 0.5000001748438417 0 -0.8660253028382762
vn -0.5000001748438417 0 0.8660253028382762
vn 0.2588189595935754 0 0.965925849201117
vn -0.2588189595935754 0 -0.965925849201117
vn 0.2588189595935754 0 -0.965925849201117
vn -0.2588189595935754 0 0.965925849201117
vn 0 0 1
vn 0 0 -1
usemtl material_0_0
f 1/1/1 2/2/2 3/3/2
f 2/2/2 1/1/1 4/4/1
f 3/3/3 2/2/3 1/1/4
f 4/4/4 1/1/4 2/2/3
f 5/5/5 3/6/2 2/7/2
f 2/7/3 3/6/3 5/5/6
f 3/8/7 6/9/7 1/10/7
f 1/10/8 6/9/8 3/8/8
f 6/3/9 4/11/1 1/12/1
f 1/12/4 4/11/4 6/3/10
f 7/13/8 2/14/8 4/15/8
f 4/15/7 2/14/7 7/13/7
f 3/6/2 5/5/5 8/16/5
f 8/16/6 5/5/6 3/6/3
f 9/17/8 5/18/8 2/14/8
f 2/14/7 5/18/7 9/17/7
f 8/19/7 6/9/7 3/8/7
f 3/8/8 6/9/8 8/19/8
f 4/11/1 6/3/9 7/2/9
f 7/2/10 6/3/10 4/11/4
f 9/17/8 2/14/8 7/13/8
f 7/13/7 2/14/7 9/17/7
f 10/20/11 8/21/5 5/22/5
f 5/22/6 8/21/6 10/20/12
f 11/23/8 5/18/8 9/17/8
f 9/17/7 5/18/7 11/23/7
f 8/19/7 12/24/7 6/9/7
f 6/9/8 12/24/8 8/19/8
f 12/25/13 7/26/9 6/27/9
f 6/27/10 7/26/10 12/25/14
f 7/26/9 12/25/13 9/28/13
f 9/28/14 12/25/14 7/26/10
f 8/21/5 10/20/11 13/29/11
f 13/29/12 10/20/12 8/21/6
f 11/23/8 10/30/8 5/18/8
f 5/18/7 10/30/7 11/23/7
f 9/31/13 14/32/15 11/33/15
f 11/33/16 14/32/16 9/31/14
f 13/34/7 12/24/7 8/19/7
f 8/19/8 12/24/8 13/34/8
f 14/32/15 9/31/13 12/35/13
f 12/35/14 9/31/14 14/32/16
f 10/22/11 15/29/17 13/21/11
f 13/21/12 15/29/18 10/22/12
f 16/36/8 10/30/8 11/23/8
f 11/23/7 10/30/7 16/36/7
f 14/37/15 16/38/19 11/39/15
f 11/39/16 16/38/20 14/37/16
f 13/34/7 14/40/7 12/24/7
f 12/24/8 14/40/8 13/34/8
f 15/29/17 10/22/11 17/20/17
f 17/20/18 10/22/12 15/29/18
f 15/41/7 14/40/7 13/34/7
f 13/34/8 14/40/8 15/41/8
f 16/36/8 17/42/8 10/30/8
f 10/30/7 17/42/7 16/36/7
f 16/38/19 14/37/15 18/43/19
f 18/43/20 14/37/16 16/38/20
f 17/7/17 19/16/21 15/6/17
f 15/6/18 19/16/22 17/7/18
f 15/41/7 18/44/7 14/40/7
f 14/40/8 18/44/8 15/41/8
f 20/45/8 17/42/8 16/36/8
f 16/36/7 17/42/7 20/45/7
f 18/46/19 20/47/23 16/48/19
f 16/48/20 20/47/24 18/46/20
f 19/16/21 17/7/17 21/5/21
f 21/5/22 17/7/18 19/16/22
f 19/49/7 18/44/7 15/41/7
f 15/41/8 18/44/8 19/49/8
f 20/45/8 21/50/8 17/42/8
f 17/42/7 21/50/7 20/45/7
f 20/47/23 18/46/19 22/51/23
f 22/51/24 18/46/20 20/47/24
f 21/4/21 23/3/25 19/1/21
f 19/1/22 23/3/26 21/4/22
f 19/49/7 22/52/7 18/44/7
f 18/44/8 22/52/8 19/49/8
f 24/53/8 21/50/8 20/45/8
f 20/45/7 21/50/7 24/53/7
f 22/54/23 24/55/26 20/56/23
f 20/56/24 24/55/25 22/54/24
f 23/3/25 21/4/21 25/2/25
f 25/2/26 21/4/22 23/3/26
f 23/57/7 22/52/7 19/49/7
f 19/49/8 22/52/8 23/57/8
f 24/53/8 25/58/8 21/50/8
f 21/50/7 25/58/7 24/53/7
f 24/55/26 22/54/23 26/59/26
f 26/59/25 22/54/24 24/55/25
f 25/2/25 27/12/24 23/3/25
f 23/3/26 27/12/23 25/2/26
f 23/57/7 26/60/7 22/52/7
f 22/52/8 26/60/8 23/57/8
f 28/61/8 25/58/8 24/53/8
f 24/53/7 25/58/7 28/61/7
f 26/62/26 28/56/22 24/63/26
f 24/63/25 28/56/21 26/62/25
f 27/12/24 25/2/25 29/11/24
f 29/11/23 25/2/26 27/12/23
f 27/64/7 26/60/7 23/57/7
f 23/57/8 26/60/8 27/64/8
f 28/61/8 29/65/8 25/58/8
f 25/58/7 29/65/7 28/61/7
f 28/56/22 26/62/26 30/54/22
f 30/54/21 26/62/25 28/56/21
f 29/28/24 31/27/20 27/25/24
f 27/25/23 31/27/19 29/28/23
f 27/64/7 30/66/7 26/60/7
f 26/60/8 30/66/8 27/64/8
f 32/67/8 29/65/8 28/61/8
f 28/61/7 29/65/7 32/67/7
f 30/68/22 32/69/18 28/70/22
f 28/70/21 32/69/17 30/68/21
f 31/27/20 29/28/24 33/26/20
f 33/26/19 29/28/23 31/27/19
f 31/71/7 30/66/7 27/64/7
f 27/64/8 30/66/8 31/71/8
f 32/67/8 33/72/8 29/65/8
f 29/65/7 33/72/7 32/67/7
f 32/69/18 30/68/22 34/73/18
f 34/73/17 30/68/21 32/69/17
f 33/33/20 35/35/16 31/32/20
f 31/32/19 35/35/15 33/33/19
f 31/71/7 34/74/7 30/66/7
f 30/66/8 34/74/8 31/71/8
f 36/75/8 33/72/8 32/67/8
f 32/67/7 33/72/7 36/75/7
f 34/76/18 36/77/12 32/78/18
f 32/78/17 36/77/11 34/76/17
f 35/35/16 33/33/20 37/31/16
f 37/31/15 33/33/19 35/35/15
f 35/79/7 34/74/7 31/71/7
f 31/71/8 34/74/8 35/79/8
f 36/75/8 37/80/8 33/72/8
f 33/72/7 37/80/7 36/75/7
f 36/77/12 34/76/18 38/81/12
f 38/81/11 34/76/17 36/77/11
f 39/39/14 35/43/16 37/38/16
f 37/38/15 35/43/15 39/39/13
f 35/79/7 38/82/7 34/74/7
f 34/74/8 38/82/8 35/79/8
f 40/83/8 37/80/8 36/75/8
f 36/75/7 37/80/7 40/83/7
f 41/81/6 36/78/12 38/76/12
f 38/76/11 36/78/11 41/81/5
f 35/43/16 39/39/14 42/37/14
f 42/37/13 39/39/13 35/43/15
f 40/83/8 39/84/8 37/80/8
f 37/80/7 39/84/7 40/83/7
f 42/85/7 38/82/7 35/79/7
f 35/79/8 38/82/8 42/85/8
f 36/78/12 41/81/6 40/77/6
f 40/77/5 41/81/5 36/78/11
f 42/85/7 41/86/7 38/82/7
f 38/82/8 41/86/8 42/85/8
f 43/48/10 42/51/14 39/47/14
f 39/47/13 42/51/13 43/48/9
f 44/87/8 39/84/8 40/83/8
f 40/83/7 39/84/7 44/87/7
f 45/73/3 40/70/6 41/68/6
f 41/68/5 40/70/5 45/73/2
f 46/88/7 41/86/7 42/85/7
f 42/85/8 41/86/8 46/88/8
f 42/51/14 43/48/10 46/46/10
f 46/46/9 43/48/9 42/51/13
f 44/87/8 43/89/8 39/84/8
f 39/84/7 43/89/7 44/87/7
f 40/70/6 45/73/3 44/69/3
f 44/69/2 45/73/2 40/70/5
f 46/88/7 45/90/7 41/86/7
f 41/86/8 45/90/8 46/88/8
f 47/56/4 46/59/10 43/55/10
f 43/55/9 46/59/9 47/56/1
f 43/89/8 44/87/8 47/91/8
f 47/91/7 44/87/7 43/89/7
f 48/54/4 44/63/3 45/62/3
f 45/62/2 44/63/2 48/54/1
f 45/90/7 46/88/7 48/91/7
f 48/91/8 46/88/8 45/90/8
f 46/59/10 47/56/4 48/54/4
f 48/54/1 47/56/1 46/59/9
f 44/63/3 48/54/4 47/56/4
f 47/56/1 48/54/1 44/63/2
