# SSTK version 0.8.0
# 19
mtllib original-19.mtl
o Group9/mesh12/mesh12-geometry#mesh12-geometry
v 0.168311 0.384702 -0.054409
v -0.149846 0.376271 -0.050738
v -0.149846 0.384702 -0.054409
v 0.168311 0.376271 -0.050738
v -0.149846 0.384702 0.016575
v 0.168311 0.393749 -0.055661
v 0.168311 0.376271 0.012904
v -0.149846 0.369032 -0.044899
v -0.149846 0.393749 0.017827
v -0.149846 0.376271 0.012904
v -0.149846 0.393749 -0.055661
v 0.168311 0.384702 0.016575
v 0.168311 0.369032 0.007065
v 0.168311 0.369032 -0.044899
v 0.168311 0.402796 -0.054409
v 0.168311 0.393749 0.017827
v 0.168311 0.363477 -0.037289
v -0.149846 0.369032 0.007065
v -0.149846 0.402796 0.016575
v -0.149846 0.402796 -0.054409
v 0.168311 0.363477 -0.000545
v -0.149846 0.363477 -0.037289
v 0.168311 0.411227 -0.050738
v 0.168311 0.402796 0.016575
v -0.149846 0.363477 -0.000545
v 0.168311 0.359985 -0.028427
v 0.168311 0.359985 -0.009407
v -0.149846 0.411227 0.012904
v -0.149846 0.411227 -0.050738
v -0.149846 0.359985 -0.009407
v -0.149846 0.359985 -0.028427
v 0.168311 0.418466 -0.044899
v 0.168311 0.411227 0.012904
v 0.168311 0.358794 -0.018917
v -0.149846 0.358794 -0.018917
v -0.149846 0.418466 0.007065
v -0.149846 0.418466 -0.044899
v -0.149846 0.424021 -0.037289
v 0.168311 0.418466 0.007065
v -0.149846 0.424021 -0.000545
v 0.168311 0.424021 -0.037289
v 0.168311 0.424021 -0.000545
v -0.149846 0.427513 -0.028427
v -0.149846 0.427513 -0.009407
v 0.168311 0.427513 -0.009407
v 0.168311 0.427513 -0.028427
v -0.149846 0.428704 -0.018917
v 0.168311 0.428704 -0.018917
vt -0.609706 4.477851
vt -0.997281 0
vt -0.609706 0
vt -0.997281 4.477851
vt -1.868922 0.046151
vt -1.868922 2.662707
vt -2.226994 2.527399
vt -1.471961 0
vt -1.084386 4.477851
vt -1.471961 4.477851
vt 1.868922 2.662707
vt 2.226994 0.181459
vt 2.226994 2.527399
vt -0.080269 4.477851
vt -0.467844 0
vt -0.080269 0
vt -1.484663 0
vt -2.226994 0.181459
vt -1.084386 0
vt 1.484663 2.708858
vt 1.868922 0.046151
vt 2.534478 0.396703
vt -0.467844 4.477851
vt -2.534478 2.312155
vt -1.484663 2.708858
vt 1.859536 4.477851
vt 1.471961 0
vt 1.859536 0
vt 2.133592 4.477851
vt 1.746018 0
vt 2.133592 0
vt -1.859536 0
vt -1.859536 4.477851
vt 1.484663 0
vt 1.746018 4.477851
vt 1.88788 0
vt 2.275455 4.477851
vt 1.88788 4.477851
vt 2.534478 2.312155
vt 0.080269 4.477851
vt 0.467844 0
vt 0.467844 4.477851
vt -2.534478 0.396703
vt -1.100404 0.046151
vt 1.471961 4.477851
vt 1.100404 2.662707
vt 2.275455 0
vt 2.770418 0.677215
vt 0.080269 0
vt 2.770418 2.031644
vt -2.770418 2.031644
vt -1.100404 2.662707
vt 1.084386 0
vt -2.133592 0
vt -1.746018 4.477851
vt -2.133592 4.477851
vt 1.100404 0.046151
vt 0.609706 4.477851
vt 0.997281 0
vt 0.997281 4.477851
vt 2.918737 1.003877
vt -2.770418 0.677215
vt -0.742331 0.181459
vt 1.084386 4.477851
vt -1.746018 0
vt 0.742331 2.527399
vt 0.609706 0
vt 2.918737 1.704981
vt -2.918737 1.704981
vt -0.742331 2.527399
vt -2.275455 0
vt -1.88788 4.477851
vt -2.275455 4.477851
vt 0.742331 0.181459
vt -2.918737 1.003877
vt 2.969325 1.354429
vt -0.434848 0.396703
vt -1.88788 0
vt 0.434848 2.312155
vt -2.969325 1.354429
vt -0.434848 2.312155
vt 0.434848 0.396703
vt -0.198907 0.677215
vt -0.198907 2.031644
vt 0.198907 2.031644
vt -0.050589 1.003877
vt 0.198907 0.677215
vt -0.050589 1.704981
vt 0.050589 1.704981
vt 0.050589 1.003877
vt 0 1.354429
vn 0 -0.24700786608966163 -0.9690134746688674
vn 0 -0.4814117595904889 -0.8764945622923106
vn 0 0.24700786608966163 0.9690134746688674
vn 0 0.4814117595904889 0.8764945622923106
vn -1 0 0
vn 1 0 0
vn 0 0 -1
vn 0 0 1
vn 0 -0.6892528699207644 -0.7245208632648131
vn 0 0.6892528699207644 0.7245208632648131
vn 0 -0.24700786608966202 0.9690134746688672
vn 0 0.24700786608966202 -0.9690134746688672
vn 0 -0.48141175959048943 0.8764945622923106
vn 0 0.48141175959048943 -0.8764945622923106
vn 0 -0.6892528699207646 0.7245208632648129
vn 0 0.6892528699207646 -0.7245208632648129
vn 0 -0.8548829257405977 -0.5188209549326198
vn 0 0.8548829257405977 0.5188209549326198
vn 0 -0.8548829257405981 0.5188209549326195
vn 0 0.8548829257405981 -0.5188209549326195
vn 0 -0.9625480834408906 -0.2711110235019381
vn 0 0.9625480834408906 0.2711110235019381
vn 0 -0.9625480834408906 0.2711110235019376
vn 0 0.9625480834408906 -0.2711110235019376
vn 0 -1 0
vn 0 1 0
usemtl material_0_0
f 1/1/1 2/2/2 3/3/1
f 2/2/2 1/1/1 4/4/2
f 3/3/3 2/2/4 1/1/3
f 4/4/4 1/1/3 2/2/4
f 5/5/5 3/6/5 2/7/5
f 2/7/6 3/6/6 5/5/6
f 3/8/1 6/9/7 1/10/1
f 1/10/3 6/9/8 3/8/3
f 1/11/6 7/12/6 4/13/6
f 4/13/5 7/12/5 1/11/5
f 4/14/2 8/15/9 2/16/2
f 2/16/4 8/15/10 4/14/4
f 9/17/5 3/6/5 5/5/5
f 5/5/6 3/6/6 9/17/6
f 5/5/5 2/7/5 10/18/5
f 10/18/6 2/7/6 5/5/6
f 6/9/7 3/8/1 11/19/7
f 11/19/8 3/8/3 6/9/8
f 6/20/6 12/21/6 1/11/6
f 1/11/5 12/21/5 6/20/5
f 1/11/6 12/21/6 7/12/6
f 7/12/5 12/21/5 1/11/5
f 4/13/6 7/12/6 13/22/6
f 13/22/5 7/12/5 4/13/5
f 8/15/9 4/14/2 14/23/9
f 14/23/10 4/14/4 8/15/10
f 10/18/5 2/7/5 8/24/5
f 8/24/6 2/7/6 10/18/6
f 9/17/5 11/25/5 3/6/5
f 3/6/6 11/25/6 9/17/6
f 12/26/11 9/27/8 5/28/11
f 5/28/12 9/27/7 12/26/12
f 7/29/13 5/30/11 10/31/13
f 10/31/14 5/30/12 7/29/14
f 11/32/7 15/10/12 6/33/7
f 6/33/8 15/10/11 11/32/8
f 6/20/6 16/34/6 12/21/6
f 12/21/5 16/34/5 6/20/5
f 5/30/11 7/29/13 12/35/11
f 12/35/12 7/29/14 5/30/12
f 10/36/13 13/37/15 7/38/13
f 7/38/14 13/37/16 10/36/14
f 4/13/6 13/22/6 14/39/6
f 14/39/5 13/22/5 4/13/5
f 17/40/17 8/41/9 14/42/9
f 14/42/10 8/41/10 17/40/18
f 10/18/5 8/24/5 18/43/5
f 18/43/6 8/24/6 10/18/6
f 19/44/5 11/25/5 9/17/5
f 9/17/6 11/25/6 19/44/6
f 9/27/8 12/26/11 16/45/8
f 16/45/7 12/26/12 9/27/7
f 15/10/12 11/32/7 20/8/12
f 20/8/11 11/32/8 15/10/11
f 15/46/6 16/34/6 6/20/6
f 6/20/5 16/34/5 15/46/5
f 13/37/15 10/36/13 18/47/15
f 18/47/16 10/36/14 13/37/16
f 14/39/6 13/22/6 21/48/6
f 21/48/5 13/22/5 14/39/5
f 8/41/9 17/40/17 22/49/17
f 22/49/18 17/40/18 8/41/10
f 14/39/6 21/48/6 17/50/6
f 17/50/5 21/48/5 14/39/5
f 18/43/5 8/24/5 22/51/5
f 22/51/6 8/24/6 18/43/6
f 19/44/5 20/52/5 11/25/5
f 11/25/6 20/52/6 19/44/6
f 16/45/8 19/53/3 9/27/8
f 9/27/7 19/53/1 16/45/7
f 20/54/12 23/55/14 15/56/12
f 15/56/11 23/55/13 20/54/11
f 15/46/6 24/57/6 16/34/6
f 16/34/5 24/57/5 15/46/5
f 25/47/19 13/38/15 18/36/15
f 18/36/16 13/38/16 25/47/20
f 13/38/15 25/47/19 21/37/19
f 21/37/20 25/47/20 13/38/16
f 26/58/21 22/59/17 17/60/17
f 17/60/18 22/59/18 26/58/22
f 17/50/6 21/48/6 27/61/6
f 27/61/5 21/48/5 17/50/5
f 18/43/5 22/51/5 25/62/5
f 25/62/6 22/51/6 18/43/6
f 28/63/5 20/52/5 19/44/5
f 19/44/6 20/52/6 28/63/6
f 19/53/3 16/45/8 24/64/3
f 24/64/1 16/45/7 19/53/1
f 23/55/14 20/54/12 29/65/14
f 29/65/13 20/54/11 23/55/13
f 23/66/6 24/57/6 15/46/6
f 15/46/5 24/57/5 23/66/5
f 30/31/23 21/35/19 25/30/19
f 25/30/20 21/35/20 30/31/24
f 22/59/17 26/58/21 31/67/21
f 31/67/22 26/58/22 22/59/18
f 17/50/6 27/61/6 26/68/6
f 26/68/5 27/61/5 17/50/5
f 21/35/19 30/31/23 27/29/23
f 27/29/24 30/31/24 21/35/20
f 25/62/5 22/51/5 31/69/5
f 31/69/6 22/51/6 25/62/6
f 28/63/5 29/70/5 20/52/5
f 20/52/6 29/70/6 28/63/6
f 24/60/3 28/67/4 19/59/3
f 19/59/1 28/67/2 24/60/1
f 29/71/14 32/72/16 23/73/14
f 23/73/13 32/72/15 29/71/13
f 23/66/6 33/74/6 24/57/6
f 24/57/5 33/74/5 23/66/5
f 25/62/5 31/69/5 30/75/5
f 30/75/6 31/69/6 25/62/6
f 34/64/25 31/27/21 26/45/21
f 26/45/22 31/27/22 34/64/26
f 26/68/6 27/61/6 34/76/6
f 34/76/5 27/61/5 26/68/5
f 35/28/25 27/45/23 30/27/23
f 30/27/24 27/45/24 35/28/26
f 36/77/5 29/70/5 28/63/5
f 28/63/6 29/70/6 36/77/6
f 28/67/4 24/60/3 33/58/4
f 33/58/2 24/60/1 28/67/2
f 32/72/16 29/71/14 37/78/16
f 37/78/15 29/71/13 32/72/15
f 32/79/6 33/74/6 23/66/6
f 23/66/5 33/74/5 32/79/5
f 30/75/5 31/69/5 35/80/5
f 35/80/6 31/69/6 30/75/6
f 31/27/21 34/64/25 35/53/25
f 35/53/26 34/64/26 31/27/22
f 27/45/23 35/28/25 34/26/25
f 34/26/26 35/28/26 27/45/24
f 36/77/5 37/81/5 29/70/5
f 29/70/6 37/81/6 36/77/6
f 33/42/4 36/49/10 28/41/4
f 28/41/2 36/49/9 33/42/2
f 38/78/20 32/73/16 37/71/16
f 37/71/15 32/73/15 38/78/19
f 32/79/6 39/82/6 33/74/6
f 33/74/5 39/82/5 32/79/5
f 40/83/5 37/81/5 36/77/5
f 36/77/6 37/81/6 40/83/6
f 36/49/10 33/42/4 39/40/10
f 39/40/9 33/42/2 36/49/9
f 32/73/16 38/78/20 41/72/20
f 41/72/19 38/78/19 32/73/15
f 40/83/5 38/84/5 37/81/5
f 37/81/6 38/84/6 40/83/6
f 41/85/6 39/82/6 32/79/6
f 32/79/5 39/82/5 41/85/5
f 36/16/10 42/23/18 40/15/18
f 40/15/17 42/23/17 36/16/9
f 42/23/18 36/16/10 39/14/10
f 39/14/9 36/16/9 42/23/17
f 43/65/24 41/56/20 38/54/20
f 38/54/19 41/56/19 43/65/23
f 44/86/5 38/84/5 40/83/5
f 40/83/6 38/84/6 44/86/6
f 41/85/6 42/87/6 39/82/6
f 39/82/5 42/87/5 41/85/5
f 45/4/22 40/3/18 42/1/18
f 42/1/17 40/3/17 45/4/21
f 41/56/20 43/65/24 46/55/24
f 46/55/23 43/65/23 41/56/19
f 44/86/5 43/88/5 38/84/5
f 38/84/6 43/88/6 44/86/6
f 40/3/18 45/4/22 44/2/22
f 44/2/21 45/4/21 40/3/17
f 46/89/6 42/87/6 41/85/6
f 41/85/5 42/87/5 46/89/5
f 46/89/6 45/90/6 42/87/6
f 42/87/5 45/90/5 46/89/5
f 47/8/26 46/33/24 43/32/24
f 43/32/23 46/33/23 47/8/25
f 43/88/5 44/86/5 47/91/5
f 47/91/6 44/86/6 43/88/6
f 48/10/26 44/19/22 45/9/22
f 45/9/21 44/19/21 48/10/25
f 45/90/6 46/89/6 48/91/6
f 48/91/5 46/89/5 45/90/5
f 46/33/24 47/8/26 48/10/26
f 48/10/25 47/8/25 46/33/23
f 44/19/22 48/10/26 47/8/26
f 47/8/25 48/10/25 44/19/21
