# SSTK version 0.8.0
# 20
mtllib original-20.mtl
o Group10/mesh15/mesh15-geometry#mesh15-geometry
v -0.018626 0.389581 -0.176428
v -0.014955 0.381151 0.141729
v -0.018626 0.389581 0.141729
v -0.014955 0.381151 -0.176428
v 0.052358 0.389581 0.141729
v -0.019878 0.398628 0.141729
v 0.048687 0.381151 -0.176428
v -0.009116 0.373911 0.141729
v 0.053610 0.398628 0.141729
v 0.048687 0.381151 0.141729
v -0.019878 0.398628 -0.176428
v 0.052358 0.389581 -0.176428
v 0.042848 0.373911 -0.176428
v -0.009116 0.373911 -0.176428
v -0.018626 0.407676 -0.176428
v 0.052358 0.407676 0.141729
v -0.001506 0.368356 -0.176428
v 0.042848 0.373911 0.141729
v 0.053610 0.398628 -0.176428
v -0.018626 0.407676 0.141729
v 0.052358 0.407676 -0.176428
v 0.035238 0.368356 -0.176428
v -0.001506 0.368356 0.141729
v -0.014955 0.416106 0.141729
v 0.048687 0.416106 0.141729
v 0.035238 0.368356 0.141729
v 0.007356 0.364864 -0.176428
v 0.026376 0.364864 -0.176428
v -0.014955 0.416106 -0.176428
v 0.048687 0.416106 -0.176428
v 0.026376 0.364864 0.141729
v 0.007356 0.364864 0.141729
v -0.009116 0.423346 -0.176428
v 0.042848 0.423346 0.141729
v 0.016866 0.363673 -0.176428
v 0.016866 0.363673 0.141729
v -0.009116 0.423346 0.141729
v 0.042848 0.423346 -0.176428
v -0.001506 0.428901 0.141729
v 0.035238 0.428901 0.141729
v -0.001506 0.428901 -0.176428
v 0.035238 0.428901 -0.176428
v 0.007356 0.432393 0.141729
v 0.026376 0.432393 0.141729
v 0.007356 0.432393 -0.176428
v 0.026376 0.432393 -0.176428
v 0.016866 0.433584 0.141729
v 0.016866 0.433584 -0.176428
vt -0.609706 4.477851
vt -0.997281 0
vt -0.609706 0
vt -0.997281 4.477851
vt -1.868922 0.046151
vt -1.868922 2.662707
vt -2.226994 2.527399
vt -1.084386 0
vt -1.471961 4.477851
vt -1.471961 0
vt 1.868922 2.662707
vt 2.226994 0.181459
vt 2.226994 2.527399
vt -0.080269 4.477851
vt -0.467844 0
vt -0.080269 0
vt -1.484663 0
vt -2.226994 0.181459
vt -1.084386 4.477851
vt -1.484663 2.708858
vt 1.868922 0.046151
vt 2.534478 0.396703
vt -0.467844 4.477851
vt -2.534478 2.312155
vt 1.859536 4.477851
vt 1.471961 0
vt 1.859536 0
vt 2.133592 4.477851
vt 1.746018 0
vt 2.133592 0
vt -1.859536 0
vt -1.859536 4.477851
vt 1.484663 2.708858
vt -1.100404 0.046151
vt 1.746018 4.477851
vt 1.88788 0
vt 2.275455 4.477851
vt 1.88788 4.477851
vt 2.534478 2.312155
vt 0.080269 4.477851
vt 0.467844 0
vt 0.467844 4.477851
vt -2.534478 0.396703
vt 1.471961 4.477851
vt 1.100404 2.662707
vt 1.484663 0
vt -1.100404 2.662707
vt 1.084386 4.477851
vt 1.084386 0
vt 2.275455 0
vt 2.770418 0.677215
vt 0.080269 0
vt 2.770418 2.031644
vt -2.770418 2.031644
vt -1.746018 0
vt -2.133592 4.477851
vt -2.133592 0
vt 1.100404 0.046151
vt -0.742331 0.181459
vt 0.997281 4.477851
vt 0.609706 0
vt 0.997281 0
vt 0.609706 4.477851
vt 2.918737 1.003877
vt -2.770418 0.677215
vt -1.746018 4.477851
vt -0.742331 2.527399
vt 0.742331 2.527399
vt 2.918737 1.704981
vt -2.918737 1.704981
vt -2.275455 0
vt -1.88788 4.477851
vt -2.275455 4.477851
vt -0.434848 0.396703
vt 0.742331 0.181459
vt -2.918737 1.003877
vt 2.969325 1.354429
vt -1.88788 0
vt 0.434848 2.312155
vt -0.434848 2.312155
vt -2.969325 1.354429
vt 0.434848 0.396703
vt -0.198907 0.677215
vt -0.198907 2.031644
vt 0.198907 2.031644
vt -0.050589 1.003877
vt 0.198907 0.677215
vt -0.050589 1.704981
vt 0.050589 1.704981
vt 0 1.354429
vt 0.050589 1.003877
vn -0.9690134746688674 -0.24700786608966185 0
vn -0.8764945622923107 -0.4814117595904892 0
vn 0.9690134746688674 0.24700786608966185 0
vn 0.8764945622923107 0.4814117595904892 0
vn 0 0 1
vn 0 0 -1
vn -1 0 0
vn 1 0 0
vn -0.724520863264813 -0.6892528699207645 0
vn 0.724520863264813 0.6892528699207645 0
vn 0.9690134746688674 -0.24700786608966185 0
vn -0.9690134746688674 0.24700786608966185 0
vn 0.8764945622923107 -0.4814117595904892 0
vn -0.8764945622923107 0.4814117595904892 0
vn 0.724520863264813 -0.6892528699207645 0
vn -0.724520863264813 0.6892528699207645 0
vn -0.5188209549326197 -0.854882925740598 0
vn 0.5188209549326197 0.854882925740598 0
vn 0.5188209549326197 -0.854882925740598 0
vn -0.5188209549326197 0.854882925740598 0
vn -0.27111102350193783 -0.9625480834408905 0
vn 0.27111102350193783 0.9625480834408905 0
vn 0.27111102350193783 -0.9625480834408905 0
vn -0.27111102350193783 0.9625480834408905 0
vn 0 -1 0
vn 0 1 0
usemtl material_0_0
f 1/1/1 2/2/2 3/3/1
f 2/2/2 1/1/1 4/4/2
f 3/3/3 2/2/4 1/1/3
f 4/4/4 1/1/3 2/2/4
f 5/5/5 3/6/5 2/7/5
f 2/7/6 3/6/6 5/5/6
f 6/8/7 1/9/1 3/10/1
f 3/10/3 1/9/3 6/8/8
f 1/11/6 7/12/6 4/13/6
f 4/13/5 7/12/5 1/11/5
f 4/14/2 8/15/9 2/16/2
f 2/16/4 8/15/10 4/14/4
f 9/17/5 3/6/5 5/5/5
f 5/5/6 3/6/6 9/17/6
f 5/5/5 2/7/5 10/18/5
f 10/18/6 2/7/6 5/5/6
f 1/9/1 6/8/7 11/19/7
f 11/19/8 6/8/8 1/9/3
f 9/17/5 6/20/5 3/6/5
f 3/6/6 6/20/6 9/17/6
f 1/11/6 12/21/6 7/12/6
f 7/12/5 12/21/5 1/11/5
f 4/13/6 7/12/6 13/22/6
f 13/22/5 7/12/5 4/13/5
f 8/15/9 4/14/2 14/23/9
f 14/23/10 4/14/4 8/15/10
f 10/18/5 2/7/5 8/24/5
f 8/24/6 2/7/6 10/18/6
f 12/25/11 9/26/8 5/27/11
f 5/27/12 9/26/7 12/25/12
f 7/28/13 5/29/11 10/30/13
f 10/30/14 5/29/12 7/28/14
f 6/31/7 15/9/12 11/32/7
f 11/32/8 15/9/11 6/31/8
f 11/33/6 12/21/6 1/11/6
f 1/11/5 12/21/5 11/33/5
f 16/34/5 6/20/5 9/17/5
f 9/17/6 6/20/6 16/34/6
f 5/29/11 7/28/13 12/35/11
f 12/35/12 7/28/14 5/29/12
f 10/36/13 13/37/15 7/38/13
f 7/38/14 13/37/16 10/36/14
f 4/13/6 13/22/6 14/39/6
f 14/39/5 13/22/5 4/13/5
f 17/40/17 8/41/9 14/42/9
f 14/42/10 8/41/10 17/40/18
f 10/18/5 8/24/5 18/43/5
f 18/43/6 8/24/6 10/18/6
f 9/26/8 12/25/11 19/44/8
f 19/44/7 12/25/12 9/26/7
f 15/9/12 6/31/7 20/10/12
f 20/10/11 6/31/8 15/9/11
f 15/45/6 19/46/6 11/33/6
f 11/33/5 19/46/5 15/45/5
f 11/33/6 19/46/6 12/21/6
f 12/21/5 19/46/5 11/33/5
f 16/34/5 20/47/5 6/20/5
f 6/20/6 20/47/6 16/34/6
f 9/26/8 21/48/3 16/49/3
f 16/49/1 21/48/1 9/26/7
f 13/37/15 10/36/13 18/50/15
f 18/50/16 10/36/14 13/37/16
f 14/39/6 13/22/6 22/51/6
f 22/51/5 13/22/5 14/39/5
f 8/41/9 17/40/17 23/52/17
f 23/52/18 17/40/18 8/41/10
f 14/39/6 22/51/6 17/53/6
f 17/53/5 22/51/5 14/39/5
f 18/43/5 8/24/5 23/54/5
f 23/54/6 8/24/6 18/43/6
f 21/48/3 9/26/8 19/44/8
f 19/44/7 9/26/7 21/48/1
f 24/55/14 15/56/12 20/57/12
f 20/57/11 15/56/11 24/55/13
f 15/45/6 21/58/6 19/46/6
f 19/46/5 21/58/5 15/45/5
f 25/59/5 20/47/5 16/34/5
f 16/34/6 20/47/6 25/59/6
f 21/60/3 25/61/4 16/62/3
f 16/62/1 25/61/2 21/60/1
f 26/50/19 13/38/15 18/36/15
f 18/36/16 13/38/16 26/50/20
f 13/38/15 26/50/19 22/37/19
f 22/37/20 26/50/20 13/38/16
f 27/63/21 23/62/17 17/60/17
f 17/60/18 23/62/18 27/63/22
f 17/53/6 22/51/6 28/64/6
f 28/64/5 22/51/5 17/53/5
f 18/43/5 23/54/5 26/65/5
f 26/65/6 23/54/6 18/43/6
f 15/56/12 24/55/14 29/66/14
f 29/66/13 24/55/13 15/56/11
f 25/59/5 24/67/5 20/47/5
f 20/47/6 24/67/6 25/59/6
f 29/68/6 21/58/6 15/45/6
f 15/45/5 21/58/5 29/68/5
f 25/61/4 21/60/3 30/63/4
f 30/63/2 21/60/1 25/61/2
f 31/30/23 22/35/19 26/29/19
f 26/29/20 22/35/20 31/30/24
f 23/62/17 27/63/21 32/61/21
f 32/61/22 27/63/22 23/62/18
f 17/53/6 28/64/6 27/69/6
f 27/69/5 28/64/5 17/53/5
f 22/35/19 31/30/23 28/28/23
f 28/28/24 31/30/24 22/35/20
f 26/65/5 23/54/5 32/70/5
f 32/70/6 23/54/6 26/65/6
f 24/71/14 33/72/16 29/73/14
f 29/73/13 33/72/15 24/71/13
f 34/74/5 24/67/5 25/59/5
f 25/59/6 24/67/6 34/74/6
f 29/68/6 30/75/6 21/58/6
f 21/58/5 30/75/5 29/68/5
f 30/42/4 34/52/10 25/41/4
f 25/41/2 34/52/9 30/42/2
f 26/65/5 32/70/5 31/76/5
f 31/76/6 32/70/6 26/65/6
f 35/48/25 32/26/21 27/44/21
f 27/44/22 32/26/22 35/48/26
f 27/69/6 28/64/6 35/77/6
f 35/77/5 28/64/5 27/69/5
f 36/27/25 28/44/23 31/26/23
f 31/26/24 28/44/24 36/27/26
f 33/72/16 24/71/14 37/78/16
f 37/78/15 24/71/13 33/72/15
f 33/79/6 30/75/6 29/68/6
f 29/68/5 30/75/5 33/79/5
f 34/74/5 37/80/5 24/67/5
f 24/67/6 37/80/6 34/74/6
f 34/52/10 30/42/4 38/40/10
f 38/40/9 30/42/2 34/52/9
f 31/76/5 32/70/5 36/81/5
f 36/81/6 32/70/6 31/76/6
f 32/26/21 35/48/25 36/49/25
f 36/49/26 35/48/26 32/26/22
f 28/44/23 36/27/25 35/25/25
f 35/25/26 36/27/26 28/44/24
f 39/78/20 33/73/16 37/71/16
f 37/71/15 33/73/15 39/78/19
f 33/79/6 38/82/6 30/75/6
f 30/75/5 38/82/5 33/79/5
f 40/83/5 37/80/5 34/74/5
f 34/74/6 37/80/6 40/83/6
f 38/14/10 40/15/18 34/16/10
f 34/16/9 40/15/17 38/14/9
f 33/73/16 39/78/20 41/72/20
f 41/72/19 39/78/19 33/73/15
f 40/83/5 39/84/5 37/80/5
f 37/80/6 39/84/6 40/83/6
f 41/85/6 38/82/6 33/79/6
f 33/79/5 38/82/5 41/85/5
f 40/15/18 38/14/10 42/23/18
f 42/23/17 38/14/9 40/15/17
f 43/55/24 41/56/20 39/57/20
f 39/57/19 41/56/19 43/55/23
f 44/86/5 39/84/5 40/83/5
f 40/83/6 39/84/6 44/86/6
f 41/85/6 42/87/6 38/82/6
f 38/82/5 42/87/5 41/85/5
f 42/1/18 44/2/22 40/3/18
f 40/3/17 44/2/21 42/1/17
f 41/56/20 43/55/24 45/66/24
f 45/66/23 43/55/23 41/56/19
f 44/86/5 43/88/5 39/84/5
f 39/84/6 43/88/6 44/86/6
f 45/89/6 42/87/6 41/85/6
f 41/85/5 42/87/5 45/89/5
f 44/2/22 42/1/18 46/4/22
f 46/4/21 42/1/17 44/2/21
f 47/10/26 45/32/24 43/31/24
f 43/31/23 45/32/23 47/10/25
f 43/88/5 44/86/5 47/90/5
f 47/90/6 44/86/6 43/88/6
f 45/89/6 46/91/6 42/87/6
f 42/87/5 46/91/5 45/89/5
f 48/9/26 44/8/22 46/19/22
f 46/19/21 44/8/21 48/9/25
f 45/32/24 47/10/26 48/9/26
f 48/9/25 47/10/25 45/32/23
f 44/8/22 48/9/26 47/10/26
f 47/10/25 48/9/25 44/8/21
f 46/91/6 45/89/6 48/90/6
f 48/90/5 45/89/5 46/91/5
