# SSTK version 0.8.0
# 26
mtllib original-26.mtl
o Group16/mesh26/mesh26-geometry#mesh26-geometry
v 0.121950 -0.070108 0.370249
v 0.134807 -0.037779 0.789385
v 0.121950 -0.070108 0.789385
v 0.134807 -0.037779 0.370249
v 0.101099 -0.098033 0.745741
v 0.138794 -0.003251 0.789385
v 0.101099 -0.098033 0.789385
v 0.101099 -0.098033 0.727467
v 0.138794 -0.003251 0.370249
v 0.073674 -0.118771 0.730120
v 0.101099 -0.098033 0.370249
v 0.133638 0.031125 0.789385
v 0.073674 -0.119651 0.789385
v 0.101099 -0.394708 0.727166
v 0.133638 0.031125 0.370249
v 0.073674 -0.119651 0.730039
v 0.073674 -0.127106 0.729356
v 0.073674 -0.119651 0.370249
v 0.119691 0.063006 0.789385
v 0.073674 -0.394708 0.704850
v 0.119691 0.063006 0.370249
v 0.041544 -0.133490 0.789385
v 0.097903 0.090218 0.789385
v 0.041544 -0.133490 0.720421
v 0.097903 0.090218 0.370249
v 0.041544 -0.133490 0.370249
v 0.069760 0.110908 0.370249
v 0.006899 -0.138606 0.789385
v 0.069760 0.110908 0.789385
v 0.006899 -0.138606 0.716724
v 0.037179 0.123665 0.370249
v 0.006899 -0.138606 0.370249
v 0.037179 0.123665 0.789385
v -0.027899 -0.134651 0.789385
v 0.002380 0.127620 0.370249
v -0.027899 -0.134651 0.719583
v 0.002380 0.127620 0.660234
v -0.027899 -0.134651 0.370249
v 0.002380 0.127620 0.789385
v -0.060480 -0.121066 0.729399
v -0.032265 0.122504 0.370249
v -0.060480 -0.121893 0.789385
v -0.060480 -0.121893 0.370249
v -0.032265 0.122504 0.789385
v -0.088624 -0.101204 0.789385
v -0.087498 -0.101204 0.743751
v -0.064394 0.108666 0.370249
v -0.060480 -0.129307 0.728649
v -0.088624 -0.101204 0.724194
v -0.064394 0.108666 0.789385
v -0.110411 -0.073991 0.370249
v -0.060480 -0.395050 0.704473
v -0.088624 -0.101204 0.370249
v -0.091820 0.087047 0.370249
v -0.110411 -0.073991 0.789385
v -0.087498 -0.395050 0.724976
v -0.091820 0.087047 0.789385
v -0.124358 -0.042111 0.370249
v -0.112671 0.059122 0.789385
v -0.124358 -0.042111 0.789385
v -0.112671 0.059122 0.370249
v -0.129515 -0.007735 0.370249
v -0.125528 0.026794 0.789385
v -0.129515 -0.007735 0.789385
v -0.125528 0.026794 0.370249
vt 0.000219 1.19612
vt 0 1.299185
vt 0 1.19612
vt 0.000219 1.299185
vt 0 1.236934
vt 0.000023 1.13445
vt 0.000219 1.236934
vt 0.000219 1.177126
vt 0 1.280513
vt 0 1.177126
vt 0 1.13445
vt 0.000032 1.13445
vt 0.000219 1.280513
vt 0 1.089519
vt 0.000031 0.989358
vt 0.000023 1.089519
vt 0.000219 1.089519
vt 0.000032 1.089519
vt 0.000219 1.13445
vt 0.000219 1.07914
vt 0 1.182503
vt 0 1.07914
vt -0.000002 1.095633
vt -0.000002 0.993849
vt 0.000029 0.997991
vt 0.000219 1.182503
vt 0.000031 0.85595
vt 0.000031 0.858568
vt 0 0.85595
vt -0.000073 -0.000829
vt -0.000063 0.797362
vt -0.000063 0.822221
vt 0.000219 1.092799
vt 0.000031 0.995147
vt 0.000219 0.991005
vt 0.000219 0.90675
vt 0 1.009753
vt 0 0.90675
vt -0.000063 0.819597
vt 0.000219 0.85595
vt 0 0.882251
vt 0.000219 0.882251
vt 0.000031 0.882251
vt -0.000054 -0.000829
vt 0.000219 1.009753
vt 0 0.781069
vt 0.000219 0.667977
vt 0 0.770374
vt 0 0.667977
vt 0.000036 0.781069
vt 0.000219 0.770374
vt 0.000219 0.781069
vt 0 0.609456
vt 0.000219 0.609456
vt 0.000036 0.609456
vt 0.000219 0.477188
vt 0 0.37548
vt 0.000219 0.37548
vt 0 0.508642
vt 0 0.477188
vt 0.000038 0.508642
vt 0.000219 0.148747
vt 0 0.047629
vt 0.000219 0.047629
vt 0.000219 0.508642
vt 0 -0.296345
vt -0.000219 -0.296345
vt -0.000038 -0.296345
vt 0 0.148747
vt 0 -0.195556
vt 0.000219 -0.190918
vt 0 -0.291708
vt 0.000219 -0.291708
vt -0.000036 -0.195556
vt 0.000067 -0.190918
vt -0.000219 -0.195556
vt 0 0.052932
vt -0.000219 0.052932
vt -0.000036 0.052932
vt 0 -0.190918
vt -0.000219 0.615426
vt 0 0.615426
vt -0.000067 0.615426
vt -0.000031 0.155
vt -0.000219 0.514613
vt -0.000002 0.034024
vt -0.000001 0.135088
vt -0.000033 0.141644
vt -0.000219 0.027103
vt -0.000031 0.134779
vt -0.000219 0.12822
vt 0 0.514613
vt -0.000001 0.356134
vt 0 0.45783
vt -0.000032 0.360202
vt -0.000031 0.356459
vt -0.000024 0.454201
vt -0.000219 0.352387
vt -0.000219 0.795993
vt 0 0.897175
vt -0.000219 0.897175
vt -0.000032 0.366139
vt -0.000001 0.462951
vt -0.000024 0.462951
vt 0.00003 0.902542
vt 0.000046 0.818649
vt 0.000046 0.84325
vt -0.000216 0.098552
vt -0.000023 0.250878
vt -0.000033 0.250878
vt 0 0.795993
vt -0.000024 0.511945
vt -0.000001 0.511945
vt -0.000219 0.634798
vt 0.000051 0.025354
vt -0.000218 0.984358
vt -0.000033 0.90328
vt -0.000023 0.90328
vt -0.000219 0.356038
vt -0.000034 0.457746
vt -0.000219 0.457746
vt -0.000219 1.013684
vt 0 1.115478
vt -0.000219 1.115478
vt -0.000219 0.750711
vt 0 0.648314
vt 0 0.750711
vt 0.000032 0.908197
vt 0.000038 0.032728
vt 0.000056 0.032728
vt -0.000219 0.648314
vt -0.000034 0.648314
vt 0 1.013684
vt 0 0.892091
vt -0.000219 0.995093
vt -0.000219 0.892091
vt -0.000219 1.256229
vt 0 1.153745
vt 0 1.256229
vt 0 0.995093
vt -0.000219 1.153745
vt 0 1.073316
vt -0.000219 1.176679
vt -0.000219 1.073316
vt -0.000219 1.312881
vt 0 1.209816
vt 0 1.312881
vt 0 1.176679
vt -0.000219 1.209816
vt 0 1.181648
vt -0.000219 1.285034
vt -0.000219 1.181648
vt 0 1.285034
vt 0 22.042176
vt 0 23.941467
vt 43.769522 22.042176
vt 43.769522 23.941467
vt 43.769522 22.794291
vt 4.557617 20.905718
vt 0 22.794291
vt 0 21.692155
vt 0 23.597362
vt 43.769522 21.692155
vt 0 20.905718
vt 6.465936 20.905718
vt 43.769522 23.597362
vt 4.557617 20.077713
vt 6.18892 18.231951
vt 0 20.077713
vt 6.465936 20.077713
vt 43.769522 20.077713
vt 43.769522 20.905718
vt 0 19.886448
vt 0 21.791232
vt 43.769522 19.886448
vt 5.788302 18.391047
vt -0.399522 18.314715
vt -0.453447 20.190387
vt -19.236895 16.521618
vt -18.338926 0.229387
vt -15.943121 15.382728
vt 43.769522 21.791232
vt 0 15.773496
vt 6.18892 15.821741
vt 6.197334 15.773496
vt -12.552083 15.151938
vt -12.501776 14.693828
vt -14.578824 -0.015274
vt 43.835118 18.262295
vt 6.254697 18.338635
vt 43.844 20.138162
vt 0 16.70965
vt 0 18.607782
vt 43.769522 16.70965
vt -12.546773 15.10358
vt 43.769522 15.773496
vt 6.197334 16.258183
vt 43.769522 16.258183
vt 0 16.258183
vt -10.886512 -0.015274
vt 43.769522 18.607782
vt 0 14.393595
vt 0 12.309525
vt 0 14.196505
vt 43.769522 12.309525
vt 7.201717 14.393595
vt 43.769522 14.196505
vt 43.769522 14.393595
vt 7.201717 11.231083
vt 43.769522 11.231083
vt 0 11.231083
vt 43.769522 6.919375
vt 0 6.919375
vt 43.769522 8.793644
vt 0 9.373291
vt 0 8.793644
vt 7.587766 9.373291
vt 43.769522 0.877708
vt 0 0.877708
vt 43.769522 2.741115
vt 43.769522 9.373291
vt -7.587766 -5.461069
vt -43.769522 -5.461069
vt 0 -5.461069
vt 0 2.741115
vt 0 -3.60371
vt 43.769522 -5.375605
vt 0 -5.375605
vt 43.769522 -3.518247
vt -7.289298 -3.60371
vt 13.486962 -3.518247
vt -43.769522 -3.60371
vt -7.289298 0.975429
vt -43.769522 0.975429
vt 0 0.975429
vt 0 -3.518247
vt -13.486962 11.341109
vt 0 11.341109
vt -43.769522 11.341109
vt -6.264202 2.856344
vt -43.769522 9.483318
vt -6.514174 2.610225
vt -0.253856 2.489406
vt -0.373666 0.626991
vt -43.726339 2.362842
vt -6.221669 2.483723
vt -43.706316 0.499462
vt 0 9.483318
vt -6.398367 6.637815
vt -0.080122 8.436913
vt -0.135267 6.562853
vt -43.746672 6.493805
vt -4.75163 8.37005
vt -6.241537 6.568855
vt -43.769522 16.533191
vt 0 16.533191
vt -43.769522 14.668603
vt -4.872188 8.531284
vt -0.105308 8.531284
vt -6.440084 6.747229
vt 9.176752 15.539455
vt 9.209724 15.086118
vt 5.98656 16.632101
vt -6.551119 4.6232
vt -4.505412 4.6232
vt -43.282915 1.816113
vt 0 14.668603
vt -43.805407 11.698089
vt -0.105308 9.434158
vt -4.872188 9.434158
vt 10.272985 0.467217
vt -4.505412 16.645694
vt -6.551119 16.645694
vt -43.582553 18.139816
vt -43.769522 8.435365
vt -6.807757 8.435365
vt -43.769522 6.561095
vt -43.769522 20.556094
vt 0 20.556094
vt -43.769522 18.680221
vt 0 13.834154
vt 0 11.947173
vt -43.769522 13.834154
vt 11.103069 0.603106
vt 7.56123 0.603106
vt 6.375993 16.736303
vt -6.807757 11.947173
vt -43.769522 11.947173
vt 0 18.680221
vt -43.769522 16.439502
vt -43.769522 18.337633
vt 0 16.439502
vt 0 23.149857
vt 0 21.261285
vt -43.769522 23.149857
vt 0 18.337633
vt -43.769522 21.261285
vt -43.769522 19.779136
vt -43.769522 21.68392
vt 0 19.779136
vt 0 24.193848
vt 0 22.294557
vt -43.769522 24.193848
vt 0 21.68392
vt -43.769522 22.294557
vt -43.769522 21.775472
vt -43.769522 23.680679
vt 0 21.775472
vt 0 23.680679
vn 0.8860415795733703 -0.4636057800191096 0
vn 0.9733461314031966 -0.22934103096138525 0
vn 0.7483364375666613 -0.6083553557170391 -0.2643791545875602
vn 0.999873984251485 0.01587499974996082 0
vn 0.7041302093798382 -0.7100592111428834 -0.004070001210253863
vn 0.73225912603755 -0.6810261172192469 0
vn 0.8577860412762363 -0.4456180214429168 -0.25617901232720636
vn 0.704134400225882 -0.7100664035975981 0.0006700003808241471
vn 0.9655127103920922 0.26035592190560203 0
vn 0.780683694672715 -0.62490975559628 -0.004556998217747092
vn 0.9388237721568864 -0.3443979164180798 0
vn 0.5488288801374321 0.05931298704622316 -0.8338278178945259
vn 0.6297727709860074 0.06623097591540818 -0.773950718556355
vn 0.7806886550836312 -0.6249197239039654 0.000749999668642206
vn 0.8704289884768258 0.492293993482766 0
vn 0.29042190789488465 -0.9568986965268031 0
vn 0.7160401256360535 0.6980591224811153 0
vn 0.5074520114927733 0.8616800195153294 0
vn 0.017867006652879436 -0.9998403722961311 0
vn 0.2563359350649892 0.966587755144021 0
vn -0.30801092313988787 -0.951371762597574 -0.004586998855374421
vn 0.12074900848322188 0.9926830697409514 0
vn -0.2674499329123324 -0.9635717582957634 0
vn -0.30801596147136384 -0.9513808809951029 0.0007659999041835477
vn -0.15609500721244804 0.9877420456391162 0
vn -0.4443911246335079 -0.8829252476243666 0.15152404249628718
vn -0.29042190789488465 0.9568986965268031 0
vn -0.5074130392506835 -0.8616090666493411 -0.0127210009840269
vn -0.5139669467995411 -0.8577809112115315 0.007062999268912325
vn -0.6825532028364131 -0.7307542171604553 -0.010927003247210982
vn -0.5143628381657885 -0.7585157613478444 0.40010587411450843
vn -0.5369989452556453 0.8435829140009442 0
vn 0.419901024817411 -0.07687700454366192 0.9043080534473203
vn -0.7730268084018506 -0.6339818428647668 0.02228399447681223
vn -0.8719061369459481 -0.4895970768985709 0.008625001354685835
vn 0.5148749500442603 -0.0625549939306022 0.8549799170455775
vn -0.7160401256360535 -0.6980591224811153 0
vn -0.7391046170308246 0.6735906509770739 0
vn -0.8704289884768258 -0.492293993482766 0
vn 0.6038351868453546 -0.04750701470014551 0.7956922462118855
vn -0.9655127103920922 -0.26035592190560203 0
vn -0.8860415795733703 0.4636057800191096 0
vn -0.999873984251485 -0.01587499974996082 0
vn -0.9733461314031966 0.22934103096138525 0
vn -0.7483364375666613 0.6083553557170391 0.2643791545875602
vn -0.7041302093798382 0.7100592111428834 0.004070001210253863
vn -0.73225912603755 0.6810261172192469 0
vn -0.8577860412762363 0.4456180214429168 0.25617901232720636
vn -0.704134400225882 0.7100664035975981 -0.0006700003808241471
vn -0.780683694672715 0.62490975559628 0.004556998217747092
vn -0.5488288801374321 -0.05931298704622316 0.8338278178945259
vn -0.9388237721568864 0.3443979164180798 0
vn -0.6297727709860074 -0.06623097591540818 0.773950718556355
vn -0.7806886550836312 0.6249197239039654 -0.000749999668642206
vn -0.5074520114927733 -0.8616800195153294 0
vn -0.017867006652879436 0.9998403722961311 0
vn -0.2563359350649892 -0.966587755144021 0
vn 0.30801092313988787 0.951371762597574 0.004586998855374421
vn -0.12074900848322188 -0.9926830697409514 0
vn 0.2674499329123324 0.9635717582957634 0
vn 0.30801596147136384 0.9513808809951029 -0.0007659999041835477
vn 0.15609500721244804 -0.9877420456391162 0
vn 0.4443911246335079 0.8829252476243666 -0.15152404249628718
vn 0.5074130392506835 0.8616090666493411 0.0127210009840269
vn 0.5139669467995411 0.8577809112115315 -0.007062999268912325
vn 0.6825532028364131 0.7307542171604553 0.010927003247210982
vn 0.5143628381657885 0.7585157613478444 -0.40010587411450843
vn 0.5369989452556453 -0.8435829140009442 0
vn -0.419901024817411 0.07687700454366192 -0.9043080534473203
vn 0.7730268084018506 0.6339818428647668 -0.02228399447681223
vn 0.8719061369459481 0.4895970768985709 -0.008625001354685835
vn -0.5148749500442603 0.0625549939306022 -0.8549799170455775
vn 0.7391046170308246 -0.6735906509770739 0
vn -0.6038351868453546 0.04750701470014551 -0.7956922462118855
usemtl material_0_0
f 1/1/1 2/2/2 3/3/1
f 2/2/2 1/1/1 4/4/2
f 3/5/1 5/6/3 1/7/1
f 4/8/2 6/9/4 2/10/2
f 5/6/3 3/5/1 7/11/5
f 1/7/1 5/6/3 8/12/6
f 6/9/4 4/8/2 9/13/4
f 7/14/5 10/15/7 5/16/3
f 5/16/3 11/17/8 8/18/6
f 1/7/1 8/12/6 11/19/8
f 9/20/4 12/21/9 6/22/4
f 7/23/5 13/24/10 10/25/7
f 11/17/8 5/16/3 10/15/7
f 12/21/9 9/20/4 15/26/9
f 16/27/11 10/28/7 13/29/10
f 14/30/12 17/31/13 10/32/7
f 11/33/8 10/34/7 18/35/14
f 15/36/9 19/37/15 12/38/9
f 10/32/7 17/31/13 16/39/13
f 18/40/14 10/28/7 16/27/11
f 13/41/10 18/42/14 16/43/11
f 17/31/13 14/30/12 20/44/13
f 19/37/15 15/36/9 21/45/15
f 22/46/16 18/42/14 13/41/10
f 21/47/15 23/48/17 19/49/15
f 24/50/16 18/42/14 22/46/16
f 23/48/17 21/47/15 25/51/17
f 18/42/14 24/50/16 26/52/16
f 22/53/16 26/54/16 24/55/16
f 27/56/18 23/57/17 25/58/17
f 28/59/19 26/54/16 22/53/16
f 23/57/17 27/56/18 29/60/18
f 30/61/19 26/54/16 28/59/19
f 31/62/20 29/63/18 27/64/18
f 26/54/16 30/61/19 32/65/19
f 28/66/19 32/67/19 30/68/19
f 29/63/18 31/62/20 33/69/20
f 34/70/21 32/67/19 28/66/19
f 35/71/22 33/72/20 31/73/20
f 36/74/23 32/67/19 34/70/21
f 37/75/22 33/72/20 35/71/22
f 32/67/19 36/74/23 38/76/24
f 34/77/21 38/78/24 36/79/23
f 33/72/20 37/75/22 39/80/22
f 35/81/25 39/82/25 37/83/25
f 38/78/24 34/77/21 40/84/26
f 41/85/27 39/82/25 35/81/25
f 34/86/21 42/87/28 40/88/26
f 38/89/24 40/90/26 43/91/29
f 39/82/25 41/85/27 44/92/27
f 42/93/28 45/94/30 40/95/26
f 40/96/26 46/97/31 43/98/29
f 47/99/32 44/100/27 41/101/27
f 40/102/26 45/103/30 46/104/31
f 46/105/31 48/106/33 40/107/26
f 43/108/29 46/109/31 49/110/34
f 44/100/27 47/99/32 50/111/32
f 46/112/31 45/113/30 51/114/35
f 48/106/33 46/105/31 52/115/36
f 51/116/35 49/117/34 46/118/31
f 43/119/29 49/120/34 53/121/37
f 54/122/38 50/123/32 47/124/32
f 51/125/35 45/126/30 55/127/39
f 46/128/31 56/129/40 52/130/36
f 53/131/37 49/132/34 51/125/35
f 50/123/32 54/122/38 57/133/38
f 55/134/39 58/135/41 51/136/35
f 54/137/38 59/138/42 57/139/38
f 58/135/41 55/134/39 60/140/41
f 59/138/42 54/137/38 61/141/42
f 60/142/41 62/143/43 58/144/41
f 61/145/42 63/146/44 59/147/42
f 62/143/43 60/142/41 64/148/43
f 63/146/44 61/145/42 65/149/44
f 64/150/43 65/151/44 62/152/43
f 65/151/44 64/150/43 63/153/44
usemtl material_1_0
f 3/154/42 2/155/44 1/156/42
f 4/157/44 1/156/42 2/155/44
f 1/158/42 5/159/45 3/160/42
f 2/161/44 6/162/43 4/163/44
f 7/164/46 3/160/42 5/159/45
f 8/165/47 5/159/45 1/158/42
f 9/166/43 4/163/44 6/162/43
f 5/167/45 10/168/48 7/169/46
f 8/170/47 11/171/49 5/167/45
f 11/172/49 8/165/47 1/158/42
f 6/173/43 12/174/41 9/175/43
f 10/176/48 13/177/50 7/178/46
f 5/179/3 14/180/12 10/181/7
f 10/181/48 14/180/51 5/179/45
f 10/168/48 5/167/45 11/171/49
f 15/182/41 9/175/43 12/174/41
f 13/183/50 10/184/48 16/185/52
f 10/186/48 17/187/53 14/188/51
f 18/189/54 10/190/48 11/191/49
f 12/192/41 19/193/39 15/194/41
f 16/195/53 17/187/53 10/186/48
f 16/185/52 10/184/48 18/196/54
f 16/197/52 18/198/54 13/199/50
f 20/200/53 14/188/51 17/187/53
f 21/201/39 15/194/41 19/193/39
f 13/199/50 18/198/54 22/202/27
f 19/203/39 23/204/37 21/205/39
f 22/202/27 18/198/54 24/206/27
f 25/207/37 21/205/39 23/204/37
f 26/208/27 24/206/27 18/198/54
f 24/209/27 26/210/27 22/211/27
f 25/212/37 23/213/37 27/214/55
f 22/211/27 26/210/27 28/215/56
f 29/216/55 27/214/55 23/213/37
f 28/215/56 26/210/27 30/217/56
f 27/218/55 29/219/55 31/220/57
f 32/221/56 30/217/56 26/210/27
f 30/222/56 32/223/56 28/224/56
f 33/225/57 31/220/57 29/219/55
f 28/224/56 32/223/56 34/226/58
f 31/227/57 33/228/57 35/229/59
f 34/226/58 32/223/56 36/230/60
f 35/229/59 33/228/57 37/231/59
f 38/232/61 36/230/60 32/223/56
f 36/233/60 38/234/61 34/235/58
f 39/236/59 37/231/59 33/228/57
f 37/237/62 39/238/62 35/239/62
f 40/240/63 34/235/58 38/234/61
f 35/239/62 39/238/62 41/241/16
f 40/242/63 42/243/64 34/244/58
f 43/245/65 40/246/63 38/247/61
f 44/248/16 41/241/16 39/238/62
f 40/249/63 45/250/66 42/251/64
f 43/252/65 46/253/67 40/254/63
f 41/255/16 44/256/16 47/257/68
f 46/258/67 45/259/66 40/260/63
f 40/261/63 48/262/69 46/263/67
f 49/264/70 46/265/67 43/266/65
f 50/267/68 47/257/68 44/256/16
f 51/268/71 45/269/66 46/270/67
f 52/271/72 46/263/67 48/262/69
f 46/272/67 49/273/70 51/274/71
f 53/275/17 49/276/70 43/277/65
f 47/278/68 50/279/68 54/280/73
f 55/281/15 45/282/66 51/283/71
f 52/284/72 56/285/74 46/286/67
f 51/283/71 49/287/70 53/288/17
f 57/289/73 54/280/73 50/279/68
f 51/290/71 58/291/9 55/292/15
f 57/293/73 59/294/1 54/295/73
f 60/296/9 55/292/15 58/291/9
f 61/297/1 54/295/73 59/294/1
f 58/298/9 62/299/4 60/300/9
f 59/301/1 63/302/2 61/303/1
f 64/304/4 60/300/9 62/299/4
f 65/305/2 61/303/1 63/302/2
f 62/306/4 65/307/2 64/308/4
f 63/309/2 64/308/4 65/307/2
