# SSTK version 0.8.0
# 1
mtllib original-1.mtl
o mesh1/mesh1-geometry#mesh1-geometry
v -0.142412 -0.647126 -0.062154
v 0.001720 -0.647126 -0.062154
v -0.123102 -0.647126 -0.134219
v -0.123102 -0.647126 0.009912
v -0.070346 -0.647126 -0.186975
v -0.143904 -0.647323 -0.062154
v -0.070346 -0.647126 0.062668
v -0.124394 -0.647323 0.010658
v 0.001720 -0.647126 -0.206285
v -0.124394 -0.647323 -0.134965
v 0.001720 -0.647126 0.081978
v 0.073785 -0.647126 -0.186975
v -0.071092 -0.647323 -0.188267
v -0.145294 -0.647899 -0.062154
v -0.125598 -0.647899 0.011353
v 0.073785 -0.647126 0.062668
v -0.071092 -0.647323 0.063960
v 0.126541 -0.647126 -0.134219
v 0.074531 -0.647323 -0.188267
v 0.001720 -0.647323 -0.207777
v -0.125598 -0.647899 -0.135661
v 0.074531 -0.647323 0.063960
v 0.126541 -0.647126 0.009912
v 0.001720 -0.647323 0.083470
v 0.145851 -0.647126 -0.062154
v 0.127833 -0.647323 -0.134965
v -0.071787 -0.647899 -0.189472
v -0.146488 -0.648815 -0.062154
v -0.126632 -0.648815 0.011950
v -0.071787 -0.647899 0.065164
v 0.127833 -0.647323 0.010658
v 0.147343 -0.647323 -0.062154
v 0.075227 -0.647899 -0.189472
v 0.129037 -0.647899 -0.135661
v 0.001720 -0.647899 -0.209168
v -0.126632 -0.648815 -0.136258
v 0.075227 -0.647899 0.065164
v 0.129037 -0.647899 0.011353
v 0.001720 -0.647899 0.084860
v 0.148734 -0.647899 -0.062154
v -0.072384 -0.648815 -0.190506
v -0.127425 -0.650009 -0.136716
v -0.147404 -0.650009 -0.062154
v -0.072384 -0.648815 0.066198
v 0.075824 -0.648815 -0.190506
v 0.130072 -0.648815 -0.136258
v 0.149928 -0.648815 -0.062154
v 0.001720 -0.648815 -0.210362
v -0.127425 -0.650009 0.012408
v 0.075824 -0.648815 0.066198
v 0.130072 -0.648815 0.011950
v 0.001720 -0.648815 0.086054
v 0.001720 -0.650009 -0.211278
v -0.072842 -0.650009 -0.191299
v -0.127924 -0.651399 -0.137004
v -0.147980 -0.651399 -0.062154
v -0.072842 -0.650009 0.066991
v 0.001720 -0.650009 0.086970
v 0.130865 -0.650009 -0.136716
v -0.073130 -0.651399 -0.191798
v -0.127924 -0.651399 0.012696
v -0.073130 -0.651399 0.067490
v 0.076282 -0.650009 0.066991
v 0.130865 -0.650009 0.012408
v 0.076282 -0.650009 -0.191299
v 0.150844 -0.650009 -0.062154
v 0.001720 -0.651399 -0.211854
v -0.128094 -0.652891 -0.137102
v -0.073229 -0.652891 -0.191968
v -0.148177 -0.652891 -0.062154
v 0.001720 -0.651399 0.087546
v 0.076570 -0.651399 0.067490
v 0.076570 -0.651399 -0.191798
v 0.131364 -0.651399 -0.137004
v 0.001720 -0.652891 -0.212050
v -0.128094 -0.652891 0.012795
v -0.073229 -0.652891 0.067660
v 0.001720 -0.652891 0.087743
v 0.131364 -0.651399 0.012696
v 0.151420 -0.651399 -0.062154
v -0.128094 -0.693248 -0.137102
v -0.073229 -0.693248 -0.191968
v -0.148177 -0.693248 -0.062154
v 0.076668 -0.652891 0.067660
v 0.076668 -0.652891 -0.191968
v 0.131534 -0.652891 -0.137102
v 0.001720 -0.693248 -0.212050
v -0.128094 -0.693248 0.012795
v 0.001720 -0.693248 0.087743
v 0.076668 -0.693248 0.067660
v 0.131534 -0.652891 0.012795
v 0.151616 -0.652891 -0.062154
v -0.073229 -0.693248 0.067660
v 0.131534 -0.693248 0.012795
v 0.076668 -0.693248 -0.191968
v 0.131534 -0.693248 -0.137102
v 0.151616 -0.693248 -0.062154
vn 0 1 0
vn 0 -1 0
vn -0.13044601336771677 0.9908391015382237 -0.034953003581879125
vn 0.13044601336771677 -0.9908391015382237 0.034953003581879125
vn -0.13044601336771677 0.9908391015382237 0.034953003581879125
vn 0.13044601336771677 -0.9908391015382237 -0.034953003581879125
vn -0.09549301193572005 0.9908391238454853 -0.09549301193572005
vn 0.09549301193572005 -0.9908391238454853 0.09549301193572005
vn -0.09549301193572005 0.9908391238454853 0.09549301193572005
vn 0.09549301193572005 -0.9908391238454853 -0.09549301193572005
vn -0.034953003581879125 0.9908391015382237 -0.13044601336771677
vn 0.034953003581879125 -0.9908391015382237 0.13044601336771677
vn -0.3806872102166776 0.9190605075081096 -0.1020050563275137
vn 0.3806872102166776 -0.9190605075081096 0.1020050563275137
vn -0.3806872102166776 0.9190605075081096 0.1020050563275137
vn 0.3806872102166776 -0.9190605075081096 -0.1020050563275137
vn -0.034953003581879125 0.9908391015382237 0.13044601336771677
vn 0.034953003581879125 -0.9908391015382237 -0.13044601336771677
vn 0.034953003581879125 0.9908391015382237 -0.13044601336771677
vn -0.034953003581879125 -0.9908391015382237 0.13044601336771677
vn -0.2786821953774673 0.9190606443315861 -0.2786821953774673
vn 0.2786821953774673 -0.9190606443315861 0.2786821953774673
vn -0.2786821953774673 0.9190606443315861 0.2786821953774673
vn 0.2786821953774673 -0.9190606443315861 -0.2786821953774673
vn 0.034953003581879125 0.9908391015382237 0.13044601336771677
vn -0.034953003581879125 -0.9908391015382237 -0.13044601336771677
vn 0.09549301193572005 0.9908391238454853 -0.09549301193572005
vn -0.09549301193572005 -0.9908391238454853 0.09549301193572005
vn -0.1020050563275137 0.9190605075081096 -0.3806872102166776
vn 0.1020050563275137 -0.9190605075081096 0.3806872102166776
vn -0.6008209512773283 0.7830049365033916 -0.1609889869448401
vn 0.6008209512773283 -0.7830049365033916 0.1609889869448401
vn -0.6008209512773283 0.7830049365033916 0.1609889869448401
vn 0.6008209512773283 -0.7830049365033916 -0.1609889869448401
vn 0.09549301193572005 0.9908391238454853 0.09549301193572005
vn -0.09549301193572005 -0.9908391238454853 -0.09549301193572005
vn -0.1020050563275137 0.9190605075081096 0.3806872102166776
vn 0.1020050563275137 -0.9190605075081096 -0.3806872102166776
vn 0.13044601336771677 0.9908391015382237 -0.034953003581879125
vn -0.13044601336771677 -0.9908391015382237 0.034953003581879125
vn 0.1020050563275137 0.9190605075081096 -0.3806872102166776
vn -0.1020050563275137 -0.9190605075081096 0.3806872102166776
vn 0.2786821953774673 0.9190606443315861 -0.2786821953774673
vn -0.2786821953774673 -0.9190606443315861 0.2786821953774673
vn -0.4398311215809944 0.7830052164434214 -0.4398311215809944
vn 0.4398311215809944 -0.7830052164434214 0.4398311215809944
vn -0.4398311215809944 0.7830052164434214 0.4398311215809944
vn 0.4398311215809944 -0.7830052164434214 -0.4398311215809944
vn 0.1020050563275137 0.9190605075081096 0.3806872102166776
vn -0.1020050563275137 -0.9190605075081096 -0.3806872102166776
vn 0.2786821953774673 0.9190606443315861 0.2786821953774673
vn -0.2786821953774673 -0.9190606443315861 -0.2786821953774673
vn 0.13044601336771677 0.9908391015382237 0.034953003581879125
vn -0.13044601336771677 -0.9908391015382237 -0.034953003581879125
vn 0.3806872102166776 0.9190605075081096 -0.1020050563275137
vn -0.3806872102166776 -0.9190605075081096 0.1020050563275137
vn -0.16098898694484012 0.7830049365033918 -0.6008209512773283
vn 0.16098898694484012 -0.7830049365033918 0.6008209512773283
vn -0.7760131005988528 0.5954560771922512 -0.20793202695537402
vn 0.7760131005988528 -0.5954560771922512 0.20793202695537402
vn -0.7760131005988528 0.5954560771922512 0.20793202695537402
vn 0.7760131005988528 -0.5954560771922512 -0.20793202695537402
vn 0.3806872102166776 0.9190605075081096 0.1020050563275137
vn -0.3806872102166776 -0.9190605075081096 -0.1020050563275137
vn -0.16098898694484012 0.7830049365033918 0.6008209512773283
vn 0.16098898694484012 -0.7830049365033918 -0.6008209512773283
vn 0.16098898694484012 0.7830049365033918 -0.6008209512773283
vn -0.16098898694484012 -0.7830049365033918 0.6008209512773283
vn 0.4398311215809944 0.7830052164434214 -0.4398311215809944
vn -0.4398311215809944 -0.7830052164434214 0.4398311215809944
vn 0.6008209512773283 0.7830049365033916 -0.1609889869448401
vn -0.6008209512773283 -0.7830049365033916 0.1609889869448401
vn -0.5680810303758617 0.5954560318396304 -0.5680810303758617
vn 0.5680810303758617 -0.5954560318396304 0.5680810303758617
vn -0.5680810303758617 0.5954560318396304 0.5680810303758617
vn 0.5680810303758617 -0.5954560318396304 -0.5680810303758617
vn 0.16098898694484012 0.7830049365033918 0.6008209512773283
vn -0.16098898694484012 -0.7830049365033918 -0.6008209512773283
vn 0.4398311215809944 0.7830052164434214 0.4398311215809944
vn -0.4398311215809944 -0.7830052164434214 -0.4398311215809944
vn 0.6008209512773283 0.7830049365033916 0.1609889869448401
vn -0.6008209512773283 -0.7830049365033916 -0.1609889869448401
vn -0.20793202695537402 0.5954560771922512 -0.7760131005988528
vn 0.20793202695537402 -0.5954560771922512 0.7760131005988528
vn -0.8968090211727645 0.3714700087700356 -0.2402990056732193
vn 0.8968090211727645 -0.3714700087700356 0.2402990056732193
vn -0.8968090211727645 0.3714700087700356 0.2402990056732193
vn 0.8968090211727645 -0.3714700087700356 -0.2402990056732193
vn -0.20793202695537402 0.5954560771922512 0.7760131005988528
vn 0.20793202695537402 -0.5954560771922512 -0.7760131005988528
vn 0.20793202695537402 0.5954560771922512 -0.7760131005988528
vn -0.20793202695537402 -0.5954560771922512 0.7760131005988528
vn 0.5680810303758617 0.5954560318396304 -0.5680810303758617
vn -0.5680810303758617 -0.5954560318396304 0.5680810303758617
vn 0.7760131005988528 0.5954560771922512 -0.20793202695537402
vn -0.7760131005988528 -0.5954560771922512 0.20793202695537402
vn -0.6565097632954475 0.3714698660665639 -0.6565097632954475
vn 0.6565097632954475 -0.3714698660665639 0.6565097632954475
vn -0.6565097632954475 0.3714698660665639 0.6565097632954475
vn 0.6565097632954475 -0.3714698660665639 -0.6565097632954475
vn 0.20793202695537402 0.5954560771922512 0.7760131005988528
vn -0.20793202695537402 -0.5954560771922512 -0.7760131005988528
vn 0.5680810303758617 0.5954560318396304 0.5680810303758617
vn -0.5680810303758617 -0.5954560318396304 -0.5680810303758617
vn 0.7760131005988528 0.5954560771922512 0.20793202695537402
vn -0.7760131005988528 -0.5954560771922512 -0.20793202695537402
vn -0.2402990056732193 0.3714700087700356 -0.8968090211727645
vn 0.2402990056732193 -0.3714700087700356 0.8968090211727645
vn -0.9582091732044684 0.12615102280287172 -0.25675104640993823
vn 0.9582091732044684 -0.12615102280287172 0.25675104640993823
vn -0.701457745255495 0.12615095418646013 -0.701457745255495
vn 0.701457745255495 -0.12615095418646013 0.701457745255495
vn -0.9582091732044684 0.12615102280287172 0.25675104640993823
vn 0.9582091732044684 -0.12615102280287172 -0.25675104640993823
vn -0.2402990056732193 0.3714700087700356 0.8968090211727645
vn 0.2402990056732193 -0.3714700087700356 -0.8968090211727645
vn 0.2402990056732193 0.3714700087700356 0.8968090211727645
vn -0.2402990056732193 -0.3714700087700356 -0.8968090211727645
vn 0.2402990056732193 0.3714700087700356 -0.8968090211727645
vn -0.2402990056732193 -0.3714700087700356 0.8968090211727645
vn 0.6565097632954475 0.3714698660665639 -0.6565097632954475
vn -0.6565097632954475 -0.3714698660665639 0.6565097632954475
vn 0.8968090211727645 0.3714700087700356 -0.2402990056732193
vn -0.8968090211727645 -0.3714700087700356 0.2402990056732193
vn -0.25675104640993823 0.12615102280287172 -0.9582091732044684
vn 0.25675104640993823 -0.12615102280287172 0.9582091732044684
vn -0.701457745255495 0.12615095418646013 0.701457745255495
vn 0.701457745255495 -0.12615095418646013 -0.701457745255495
vn -0.25675104640993823 0.12615102280287172 0.9582091732044684
vn 0.25675104640993823 -0.12615102280287172 -0.9582091732044684
vn 0.6565097632954475 0.3714698660665639 0.6565097632954475
vn -0.6565097632954475 -0.3714698660665639 -0.6565097632954475
vn 0.8968090211727645 0.3714700087700356 0.2402990056732193
vn -0.8968090211727645 -0.3714700087700356 -0.2402990056732193
vn 0.25675104640993823 0.12615102280287172 -0.9582091732044684
vn -0.25675104640993823 -0.12615102280287172 0.9582091732044684
vn -0.9659258492011171 0 -0.2588189595935754
vn 0.9659258492011171 0 0.2588189595935754
vn -0.7071067811865475 0 -0.7071067811865475
vn 0.7071067811865475 0 0.7071067811865475
vn -0.2588189595935754 0 -0.9659258492011171
vn 0.2588189595935754 0 0.9659258492011171
vn -0.9659258492011171 0 0.2588189595935754
vn 0.9659258492011171 0 -0.2588189595935754
vn 0.25675104640993823 0.12615102280287172 0.9582091732044684
vn -0.25675104640993823 -0.12615102280287172 -0.9582091732044684
vn 0.701457745255495 0.12615095418646013 -0.701457745255495
vn -0.701457745255495 -0.12615095418646013 0.701457745255495
vn 0.9582091732044684 0.12615102280287172 -0.25675104640993823
vn -0.9582091732044684 -0.12615102280287172 0.25675104640993823
vn -0.7071067811865475 0 0.7071067811865475
vn 0.7071067811865475 0 -0.7071067811865475
vn -0.2588189595935754 0 0.9659258492011171
vn 0.2588189595935754 0 -0.9659258492011171
vn 0.701457745255495 0.12615095418646013 0.701457745255495
vn -0.701457745255495 -0.12615095418646013 -0.701457745255495
vn 0.9582091732044684 0.12615102280287172 0.25675104640993823
vn -0.9582091732044684 -0.12615102280287172 -0.25675104640993823
usemtl material_0_0
f 1//1 2//1 3//1
f 3//2 2//2 1//2
f 4//1 2//1 1//1
f 1//2 2//2 4//2
f 2//1 5//1 3//1
f 3//2 5//2 2//2
f 3//3 6//3 1//3
f 1//4 6//4 3//4
f 7//1 2//1 4//1
f 4//2 2//2 7//2
f 1//5 8//5 4//5
f 4//6 8//6 1//6
f 2//1 9//1 5//1
f 5//2 9//2 2//2
f 5//7 10//7 3//7
f 3//8 10//8 5//8
f 6//3 3//3 10//3
f 10//4 3//4 6//4
f 8//5 1//5 6//5
f 6//6 1//6 8//6
f 11//1 2//1 7//1
f 7//2 2//2 11//2
f 8//9 7//9 4//9
f 4//10 7//10 8//10
f 2//1 12//1 9//1
f 9//2 12//2 2//2
f 9//11 13//11 5//11
f 5//12 13//12 9//12
f 10//7 5//7 13//7
f 13//8 5//8 10//8
f 10//13 14//13 6//13
f 6//14 14//14 10//14
f 6//15 15//15 8//15
f 8//16 15//16 6//16
f 11//1 16//1 2//1
f 2//2 16//2 11//2
f 17//17 11//17 7//17
f 7//18 11//18 17//18
f 7//9 8//9 17//9
f 17//10 8//10 7//10
f 2//1 18//1 12//1
f 12//2 18//2 2//2
f 19//19 9//19 12//19
f 12//20 9//20 19//20
f 13//11 9//11 20//11
f 20//12 9//12 13//12
f 13//21 21//21 10//21
f 10//22 21//22 13//22
f 14//13 10//13 21//13
f 21//14 10//14 14//14
f 15//15 6//15 14//15
f 14//16 6//16 15//16
f 15//23 17//23 8//23
f 8//24 17//24 15//24
f 11//25 22//25 16//25
f 16//26 22//26 11//26
f 16//1 23//1 2//1
f 2//2 23//2 16//2
f 11//17 17//17 24//17
f 24//18 17//18 11//18
f 2//1 25//1 18//1
f 18//2 25//2 2//2
f 26//27 12//27 18//27
f 18//28 12//28 26//28
f 9//19 19//19 20//19
f 20//20 19//20 9//20
f 12//27 26//27 19//27
f 19//28 26//28 12//28
f 20//29 27//29 13//29
f 13//30 27//30 20//30
f 21//21 13//21 27//21
f 27//22 13//22 21//22
f 21//31 28//31 14//31
f 14//32 28//32 21//32
f 14//33 29//33 15//33
f 15//34 29//34 14//34
f 17//23 15//23 30//23
f 30//24 15//24 17//24
f 22//25 11//25 24//25
f 24//26 11//26 22//26
f 31//35 16//35 22//35
f 22//36 16//36 31//36
f 16//35 31//35 23//35
f 23//36 31//36 16//36
f 23//1 25//1 2//1
f 2//2 25//2 23//2
f 30//37 24//37 17//37
f 17//38 24//38 30//38
f 32//39 18//39 25//39
f 25//40 18//40 32//40
f 18//39 32//39 26//39
f 26//40 32//40 18//40
f 33//41 20//41 19//41
f 19//42 20//42 33//42
f 34//43 19//43 26//43
f 26//44 19//44 34//44
f 27//29 20//29 35//29
f 35//30 20//30 27//30
f 27//45 36//45 21//45
f 21//46 36//46 27//46
f 28//31 21//31 36//31
f 36//32 21//32 28//32
f 29//33 14//33 28//33
f 28//34 14//34 29//34
f 29//47 30//47 15//47
f 15//48 30//48 29//48
f 24//49 37//49 22//49
f 22//50 37//50 24//50
f 22//51 38//51 31//51
f 31//52 38//52 22//52
f 32//53 23//53 31//53
f 31//54 23//54 32//54
f 23//53 32//53 25//53
f 25//54 32//54 23//54
f 24//37 30//37 39//37
f 39//38 30//38 24//38
f 40//55 26//55 32//55
f 32//56 26//56 40//56
f 20//41 33//41 35//41
f 35//42 33//42 20//42
f 19//43 34//43 33//43
f 33//44 34//44 19//44
f 26//55 40//55 34//55
f 34//56 40//56 26//56
f 35//57 41//57 27//57
f 27//58 41//58 35//58
f 36//45 27//45 41//45
f 41//46 27//46 36//46
f 42//59 28//59 36//59
f 36//60 28//60 42//60
f 43//61 29//61 28//61
f 28//62 29//62 43//62
f 30//47 29//47 44//47
f 44//48 29//48 30//48
f 37//49 24//49 39//49
f 39//50 24//50 37//50
f 38//51 22//51 37//51
f 37//52 22//52 38//52
f 40//63 31//63 38//63
f 38//64 31//64 40//64
f 31//63 40//63 32//63
f 32//64 40//64 31//64
f 44//65 39//65 30//65
f 30//66 39//66 44//66
f 45//67 35//67 33//67
f 33//68 35//68 45//68
f 46//69 33//69 34//69
f 34//70 33//70 46//70
f 47//71 34//71 40//71
f 40//72 34//72 47//72
f 41//57 35//57 48//57
f 48//58 35//58 41//58
f 41//73 42//73 36//73
f 36//74 42//74 41//74
f 28//59 42//59 43//59
f 43//60 42//60 28//60
f 29//61 43//61 49//61
f 49//62 43//62 29//62
f 49//75 44//75 29//75
f 29//76 44//76 49//76
f 39//77 50//77 37//77
f 37//78 50//78 39//78
f 37//79 51//79 38//79
f 38//80 51//80 37//80
f 38//81 47//81 40//81
f 40//82 47//82 38//82
f 39//65 44//65 52//65
f 52//66 44//66 39//66
f 35//67 45//67 48//67
f 48//68 45//68 35//68
f 33//69 46//69 45//69
f 45//70 46//70 33//70
f 34//71 47//71 46//71
f 46//72 47//72 34//72
f 53//83 41//83 48//83
f 48//84 41//84 53//84
f 42//73 41//73 54//73
f 54//74 41//74 42//74
f 55//85 43//85 42//85
f 42//86 43//86 55//86
f 56//87 49//87 43//87
f 43//88 49//88 56//88
f 44//75 49//75 57//75
f 57//76 49//76 44//76
f 50//77 39//77 52//77
f 52//78 39//78 50//78
f 51//79 37//79 50//79
f 50//80 37//80 51//80
f 47//81 38//81 51//81
f 51//82 38//82 47//82
f 44//89 58//89 52//89
f 52//90 58//90 44//90
f 45//91 53//91 48//91
f 48//92 53//92 45//92
f 59//93 45//93 46//93
f 46//94 45//94 59//94
f 47//95 59//95 46//95
f 46//96 59//96 47//96
f 41//83 53//83 54//83
f 54//84 53//84 41//84
f 60//97 42//97 54//97
f 54//98 42//98 60//98
f 43//85 55//85 56//85
f 56//86 55//86 43//86
f 42//97 60//97 55//97
f 55//98 60//98 42//98
f 49//87 56//87 61//87
f 61//88 56//88 49//88
f 49//99 62//99 57//99
f 57//100 62//100 49//100
f 58//89 44//89 57//89
f 57//90 44//90 58//90
f 52//101 63//101 50//101
f 50//102 63//102 52//102
f 50//103 64//103 51//103
f 51//104 64//104 50//104
f 64//105 47//105 51//105
f 51//106 47//106 64//106
f 63//101 52//101 58//101
f 58//102 52//102 63//102
f 53//91 45//91 65//91
f 65//92 45//92 53//92
f 45//93 59//93 65//93
f 65//94 59//94 45//94
f 59//95 47//95 66//95
f 66//96 47//96 59//96
f 67//107 54//107 53//107
f 53//108 54//108 67//108
f 54//107 67//107 60//107
f 60//108 67//108 54//108
f 68//109 56//109 55//109
f 55//110 56//110 68//110
f 69//111 55//111 60//111
f 60//112 55//112 69//112
f 70//113 61//113 56//113
f 56//114 61//114 70//114
f 62//99 49//99 61//99
f 61//100 49//100 62//100
f 71//115 57//115 62//115
f 62//116 57//116 71//116
f 57//115 71//115 58//115
f 58//116 71//116 57//116
f 64//103 50//103 63//103
f 63//104 50//104 64//104
f 47//105 64//105 66//105
f 66//106 64//106 47//106
f 58//117 72//117 63//117
f 63//118 72//118 58//118
f 65//119 67//119 53//119
f 53//120 67//120 65//120
f 59//121 73//121 65//121
f 65//122 73//122 59//122
f 66//123 74//123 59//123
f 59//124 74//124 66//124
f 75//125 60//125 67//125
f 67//126 60//126 75//126
f 56//109 68//109 70//109
f 70//110 68//110 56//110
f 55//111 69//111 68//111
f 68//112 69//112 55//112
f 60//125 75//125 69//125
f 69//126 75//126 60//126
f 61//113 70//113 76//113
f 76//114 70//114 61//114
f 61//127 77//127 62//127
f 62//128 77//128 61//128
f 62//129 78//129 71//129
f 71//130 78//130 62//130
f 72//117 58//117 71//117
f 71//118 58//118 72//118
f 72//131 64//131 63//131
f 63//132 64//132 72//132
f 79//133 66//133 64//133
f 64//134 66//134 79//134
f 67//119 65//119 73//119
f 73//120 65//120 67//120
f 73//121 59//121 74//121
f 74//122 59//122 73//122
f 74//123 66//123 80//123
f 80//124 66//124 74//124
f 73//135 75//135 67//135
f 67//136 75//136 73//136
f 81//137 70//137 68//137
f 68//138 70//138 81//138
f 82//139 68//139 69//139
f 69//140 68//140 82//140
f 75//141 82//141 69//141
f 69//142 82//142 75//142
f 83//143 76//143 70//143
f 70//144 76//144 83//144
f 77//127 61//127 76//127
f 76//128 61//128 77//128
f 78//129 62//129 77//129
f 77//130 62//130 78//130
f 84//145 71//145 78//145
f 78//146 71//146 84//146
f 71//145 84//145 72//145
f 72//146 84//146 71//146
f 64//131 72//131 79//131
f 79//132 72//132 64//132
f 66//133 79//133 80//133
f 80//134 79//134 66//134
f 74//147 85//147 73//147
f 73//148 85//148 74//148
f 80//149 86//149 74//149
f 74//150 86//150 80//150
f 75//135 73//135 85//135
f 85//136 73//136 75//136
f 70//137 81//137 83//137
f 83//138 81//138 70//138
f 68//139 82//139 81//139
f 81//140 82//140 68//140
f 82//141 75//141 87//141
f 87//142 75//142 82//142
f 76//143 83//143 88//143
f 88//144 83//144 76//144
f 88//151 77//151 76//151
f 76//152 77//152 88//152
f 77//153 89//153 78//153
f 78//154 89//154 77//154
f 78//142 90//142 84//142
f 84//141 90//141 78//141
f 84//155 79//155 72//155
f 72//156 79//156 84//156
f 91//157 80//157 79//157
f 79//158 80//158 91//158
f 85//147 74//147 86//147
f 86//148 74//148 85//148
f 86//149 80//149 92//149
f 92//150 80//150 86//150
f 85//154 87//154 75//154
f 75//153 87//153 85//153
f 77//151 88//151 93//151
f 93//152 88//152 77//152
f 89//153 77//153 93//153
f 93//154 77//154 89//154
f 90//142 78//142 89//142
f 89//141 78//141 90//141
f 94//140 84//140 90//140
f 90//139 84//139 94//139
f 79//155 84//155 91//155
f 91//156 84//156 79//156
f 80//157 91//157 92//157
f 92//158 91//158 80//158
f 86//152 95//152 85//152
f 85//151 95//151 86//151
f 92//144 96//144 86//144
f 86//143 96//143 92//143
f 87//154 85//154 95//154
f 95//153 85//153 87//153
f 84//140 94//140 91//140
f 91//139 94//139 84//139
f 94//138 92//138 91//138
f 91//137 92//137 94//137
f 95//152 86//152 96//152
f 96//151 86//151 95//151
f 96//144 92//144 97//144
f 97//143 92//143 96//143
f 92//138 94//138 97//138
f 97//137 94//137 92//137
