mtllib new-2.mtl
v -0.054461 0.643456 0.450222
v -0.059118 0.643520 0.447199
v -0.054458 0.680581 0.451013
v -0.001413 0.717705 0.451806
v -0.059114 0.680645 0.447990
v -0.054461 0.717705 0.451806
v -0.006361 0.643402 0.452742
v -0.059118 0.717770 0.448783
v 0.003244 0.717770 0.448783
v -0.001422 0.680580 0.451017
v -0.063428 0.680720 0.444497
v -0.001413 0.643456 0.450222
v 0.003244 0.643520 0.447199
v -0.067353 0.680803 0.440572
v 0.007559 0.717844 0.445291
v 0.003234 0.680645 0.447994
v 0.007559 0.643595 0.443707
v 0.007549 0.680719 0.444502
v -0.067359 0.717928 0.441366
v -0.070847 0.680895 0.436259
v 0.011485 0.717928 0.441366
v 0.011475 0.680803 0.440577
v 0.014968 0.680895 0.436264
v -0.070853 0.718020 0.437053
v -0.073870 0.680995 0.431604
v 0.017992 0.680995 0.431610
v -0.073878 0.718120 0.432398
v -0.076398 0.718225 0.427453
v -0.076390 0.681100 0.426658
v 0.020513 0.681100 0.426665
v 0.020524 0.718225 0.427453
v -0.078388 0.718336 0.422272
v 0.022514 0.718336 0.422272
v -0.078379 0.681211 0.421477
v 0.022503 0.681211 0.421483
v -0.079825 0.718450 0.416911
v 0.023951 0.718450 0.416911
v -0.079815 0.681325 0.416115
v 0.023940 0.681325 0.416122
v -0.080694 0.718567 0.411429
v -0.080684 0.681442 0.410634
v 0.024820 0.718567 0.411429
v 0.024809 0.681442 0.410641
v -0.080985 0.718685 0.405887
v 0.025110 0.718685 0.405887
v -0.080985 0.681560 0.405095
v 0.025110 0.681560 0.405095
v -0.079825 0.644670 0.393278
v -0.080694 0.718803 0.400344
v 0.024820 0.718803 0.400344
v -0.080683 0.681678 0.399548
v 0.024810 0.681678 0.399555
v -0.078388 0.644785 0.387917
v -0.079814 0.681796 0.394067
v 0.023941 0.681795 0.394074
v -0.076398 0.644895 0.382736
v -0.078377 0.681910 0.388706
v -0.073878 0.645001 0.377791
v 0.022505 0.681910 0.388712
v -0.076387 0.682020 0.383524
v 0.020516 0.682020 0.383531
v -0.073866 0.682126 0.378579
v -0.070842 0.682225 0.373925
v 0.017996 0.682126 0.378585
v -0.063433 0.645276 0.364898
v 0.014973 0.682225 0.373930
v -0.059118 0.645350 0.361406
v -0.067349 0.682317 0.369612
v 0.011479 0.682317 0.369617
v 0.014979 0.719350 0.374720
v -0.054461 0.645415 0.358383
v -0.063423 0.682401 0.365687
v -0.063433 0.719526 0.366482
v -0.049513 0.645469 0.355863
v -0.059108 0.682475 0.362195
v -0.059118 0.719600 0.362990
v 0.007554 0.682401 0.365692
v -0.001413 0.645415 0.358383
v -0.033482 0.645560 0.351570
v -0.044330 0.645511 0.353874
v -0.054452 0.682540 0.359172
v -0.054461 0.719665 0.359967
v -0.006361 0.645469 0.355863
v -0.001413 0.719665 0.359967
v 0.003240 0.682475 0.362199
v -0.027937 0.645567 0.351279
v -0.038966 0.645542 0.352438
v -0.049506 0.682594 0.356653
v -0.049513 0.719718 0.357447
v -0.011544 0.645511 0.353874
v -0.006361 0.719718 0.357447
v -0.001416 0.682540 0.359176
v -0.033477 0.682685 0.352360
v -0.038960 0.682667 0.353228
v -0.044323 0.682636 0.354664
v -0.044330 0.719761 0.355458
v -0.016908 0.645542 0.352438
v -0.011544 0.682636 0.354666
v -0.006362 0.682594 0.356656
v -0.027937 0.719816 0.352863
v -0.033482 0.719810 0.353153
v -0.038966 0.719791 0.354022
v -0.022392 0.645560 0.351570
v -0.016907 0.682667 0.353229
v -0.011544 0.719761 0.355458
v -0.027933 0.682691 0.352070
v -0.022390 0.682685 0.352361
v -0.016908 0.719791 0.354022
v -0.022392 0.719810 0.353153
vn 0.207867 0.020863 -0.977935
vn 0.104505 0.021212 -0.994298
vn -0.207867 -0.020863 0.977935
vn -0.104505 -0.021212 0.994298
vn 0.308954 0.020285 -0.950861
vn -0.308954 -0.020285 0.950861
vn 0.000000 0.999772 0.021329
vn 0.000000 -0.999772 -0.021329
vn 0.000000 0.021329 -0.999772
vn 0.000000 -0.021329 0.999772
vn -0.207867 0.020863 -0.977935
vn -0.308954 0.020285 -0.950861
vn 0.308954 -0.020285 0.950861
vn 0.207867 -0.020863 0.977935
vn -0.104505 0.021212 -0.994298
vn 0.104505 -0.021212 0.994298
vn 0.406660 0.019485 -0.913372
vn -0.406660 -0.019485 0.913372
vn -0.406660 0.019485 -0.913372
vn 0.406660 -0.019485 0.913372
vn 0.499915 0.018472 -0.865877
vn -0.499915 -0.018472 0.865877
vn -0.499915 0.018472 -0.865877
vn 0.499915 -0.018472 0.865877
vn 0.587698 0.017257 -0.808896
vn -0.587698 -0.017257 0.808896
vn -0.587698 0.017257 -0.808896
vn 0.587698 -0.017257 0.808896
vn 0.743070 0.014273 -0.669062
vn -0.743070 -0.014273 0.669062
vn -0.669047 0.015852 -0.743051
vn 0.669047 -0.015852 0.743051
vn 0.808954 0.012538 -0.587739
vn -0.808954 -0.012538 0.587739
vn -0.743070 0.014273 -0.669062
vn 0.743070 -0.014273 0.669062
vn 0.865976 0.010666 -0.499971
vn -0.865976 -0.010666 0.499971
vn 0.913511 0.008677 -0.406721
vn -0.913511 -0.008677 0.406721
vn -0.865976 0.010666 -0.499971
vn 0.865976 -0.010666 0.499971
vn -0.913511 0.008677 -0.406721
vn 0.913511 -0.008677 0.406721
vn 0.951036 0.006592 -0.309010
vn -0.951036 -0.006592 0.309010
vn 0.978138 0.004435 -0.207909
vn -0.978138 -0.004435 0.207909
vn -0.951036 0.006592 -0.309010
vn 0.951036 -0.006592 0.309010
vn 0.994519 0.002230 -0.104528
vn -0.994519 -0.002230 0.104528
vn -0.978138 0.004435 -0.207909
vn 0.978138 -0.004435 0.207909
vn -0.994519 0.002230 -0.104528
vn 0.994519 -0.002230 0.104528
vn 1.000000 0.000000 0.000000
vn -1.000000 0.000000 0.000000
vt -0.304442 0.792475
vt -0.309190 0.757969
vt -0.309991 0.826862
vt -0.309592 0.792415
vt 0.148696 0.760105
vt 0.144213 0.829049
vt -0.343652 0.756965
vt -0.344577 0.825856
vt -0.344117 0.791410
vt 0.143887 0.794602
vt 0.194523 0.828203
vt 0.193723 0.759310
vt 0.189373 0.828263
vt 0.194131 0.793757
vt 0.188981 0.793816
vt 0.237580 0.827293
vt -0.401603 0.789410
vt 0.236655 0.758401
vt 0.232430 0.827362
vt 0.237126 0.792847
vt 0.231976 0.792916
vt -0.396453 0.789495
vt 0.278063 0.826307
vt 0.277023 0.757417
vt 0.272402 0.791940
vt 0.277552 0.791862
vt -0.423935 0.788501
vt -0.402172 0.823854
vt -0.029032 -0.469760
vt -0.108643 -0.469766
vt -0.032273 -0.473763
vt 0.272913 0.826385
vt -0.418785 0.788593
vt -0.111449 -0.465447
vt -0.105402 -0.473768
vt -0.424549 0.822944
vt -0.441650 0.787707
vt -0.026227 -0.465441
vt -0.035914 -0.477405
vt -0.442304 0.822150
vt -0.436501 0.787805
vt -0.113787 -0.460858
vt -0.101760 -0.477409
vt -0.455241 0.821505
vt -0.454555 0.787063
vt -0.023890 -0.460852
vt -0.039917 -0.480646
vt -0.449406 0.787166
vt -0.462508 0.786597
vt -0.115633 -0.456050
vt 0.405222 0.788046
vt -0.097758 -0.480650
vt 0.405901 0.822488
vt 0.400073 0.788148
vt -0.022044 -0.456044
vt -0.463218 0.821038
vt -0.457359 0.786703
vt -0.465422 0.786328
vt -0.044236 -0.483452
vt 0.421732 0.787437
vt 0.426881 0.787331
vt 0.427584 0.821772
vt -0.116966 -0.451076
vt -0.466149 0.820769
vt -0.020712 -0.451069
vt -0.019627 -0.440843
vt -0.460273 0.786436
vt 0.438742 0.786890
vt 0.443891 0.786782
vt 0.444612 0.821223
vt -0.117772 -0.445989
vt -0.463265 0.786269
vt -0.019906 -0.445982
vt -0.118052 -0.440843
vt -0.464002 0.820710
vt -0.458119 0.786379
vt 0.456066 0.786423
vt 0.456796 0.820864
vt 0.450913 0.786532
vt -0.456065 0.786423
vt -0.456798 0.820864
vt -0.450912 0.786532
vt 0.458124 0.786379
vt 0.463270 0.786269
vt 0.464004 0.820710
vt -0.438018 0.752449
vt -0.443888 0.786782
vt -0.117773 -0.435703
vt -0.019907 -0.435696
vt -0.421027 0.752995
vt -0.426880 0.787331
vt -0.438739 0.786890
vt -0.444618 0.821223
vt 0.460283 0.786436
vt 0.465432 0.786328
vt 0.466156 0.820769
vt -0.116968 -0.430616
vt -0.421731 0.787437
vt -0.020713 -0.430610
vt -0.399395 0.753706
vt -0.405223 0.788046
vt -0.022046 -0.425635
vt -0.115635 -0.425641
vt -0.373358 0.754550
vt -0.379154 0.788895
vt -0.400073 0.788148
vt -0.113790 -0.420833
vt -0.374005 0.788993
vt -0.023892 -0.420827
vt -0.026231 -0.416239
vt -0.111452 -0.416244
vt -0.029036 -0.411920
vt -0.108647 -0.411925
vt -0.271896 0.757495
vt -0.277556 0.791862
vt -0.105406 -0.407922
vt 0.401620 0.789410
vt -0.231527 0.758470
vt -0.237130 0.792847
vt -0.272935 0.826385
vt -0.032277 -0.407917
vt 0.396471 0.789495
vt 0.402194 0.823854
vt -0.188593 0.759370
vt -0.194135 0.793757
vt -0.232452 0.827361
vt -0.272407 0.791940
vt -0.101765 -0.404280
vt -0.143564 0.760155
vt -0.149040 0.794552
vt -0.189393 0.828263
vt -0.231981 0.792916
vt -0.035919 -0.404276
vt 0.304861 0.826921
vt 0.304060 0.758028
vt -0.096933 0.760791
vt -0.102340 0.795199
vt -0.144231 0.829049
vt -0.188985 0.793816
vt -0.097763 -0.401039
vt -0.084047 -0.394049
vt 0.266904 0.827861
vt 0.266237 0.758967
vt 0.271388 0.758917
vt 0.304459 0.792475
vt 0.047403 0.761563
vt 0.042218 0.796006
vt -0.000924 0.761510
vt -0.006184 0.795942
vt -0.049212 0.761249
vt -0.054547 0.795669
vt -0.097460 0.829686
vt -0.143890 0.794602
vt -0.039922 -0.401035
vt 0.225731 0.794256
vt 0.266570 0.793414
vt 0.271719 0.793364
vt 0.047326 0.830460
vt -0.001154 0.830408
vt -0.001034 0.795959
vt -0.049593 0.830146
vt -0.049397 0.795698
vt -0.097190 0.795238
vt -0.093444 -0.398234
vt 0.187351 0.760487
vt 0.182392 0.794963
vt 0.230881 0.794217
vt 0.187732 0.829383
vt 0.187542 0.794935
vt 0.231145 0.828664
vt 0.047368 0.796011
vt -0.044241 -0.398230
vt 0.142059 0.761040
vt 0.137025 0.795505
vt 0.142289 0.829937
vt 0.142175 0.795488
vt -0.048830 -0.395893
vt -0.088855 -0.395895
vt 0.095316 0.830301
vt 0.095239 0.761403
vt 0.090129 0.795858
vt 0.095279 0.795852
vt -0.053638 -0.394047
vt -0.079073 -0.392716
vt -0.058613 -0.392715
vt -0.073986 -0.391910
vt -0.063700 -0.391909
vt -0.068843 -0.391640
usemtl material-0
f 1/2/21 6/3/21 3/4/21
f 3/4/22 6/3/22 1/2/22
f 1/2/21 5/1/25 6/3/21
f 6/3/22 5/1/26 1/2/22
f 2/7/25 8/8/25 5/9/25
f 5/9/26 8/8/26 2/7/26
f 7/5/19 4/6/23 10/10/23
f 10/10/24 4/6/24 7/5/20
f 4/11/23 12/12/23 10/14/23
f 10/14/24 12/12/24 4/11/24
f 12/12/23 9/13/27 16/15/27
f 16/15/28 9/13/28 12/12/24
f 9/16/27 13/18/27 16/20/27
f 16/20/28 13/18/28 9/16/28
f 13/18/27 15/19/31 18/21/31
f 18/21/32 15/19/32 13/18/28
f 15/23/31 17/24/31 18/26/31
f 18/26/32 17/24/32 15/23/32
f 14/17/29 20/22/33 19/28/29
f 19/28/30 20/22/34 14/17/30
f 20/29/8 23/30/8 14/31/8
f 14/31/7 23/30/7 20/29/7
f 17/24/31 21/32/35 22/25/35
f 22/25/36 21/32/36 17/24/32
f 20/29/8 26/34/8 23/30/8
f 23/30/7 26/34/7 20/29/7
f 14/31/8 23/30/8 22/35/8
f 22/35/7 23/30/7 14/31/7
f 20/27/33 25/33/37 24/36/33
f 24/36/34 25/33/38 20/27/34
f 25/38/8 26/34/8 20/29/8
f 20/29/7 26/34/7 25/38/7
f 14/31/8 22/35/8 11/39/8
f 11/39/7 22/35/7 14/31/7
f 25/38/8 30/42/8 26/34/8
f 26/34/7 30/42/7 25/38/7
f 11/39/8 22/35/8 18/43/8
f 18/43/7 22/35/7 11/39/7
f 25/37/37 29/41/39 27/40/37
f 27/40/38 29/41/40 25/37/38
f 29/46/8 30/42/8 25/38/8
f 25/38/7 30/42/7 29/46/7
f 11/39/8 18/43/8 5/47/8
f 5/47/7 18/43/7 11/39/7
f 29/45/39 34/48/45 28/44/39
f 28/44/40 34/48/46 29/45/40
f 29/46/8 35/50/8 30/42/8
f 30/42/7 35/50/7 29/46/7
f 5/47/8 18/43/8 16/52/8
f 16/52/7 18/43/7 5/47/7
f 34/55/8 35/50/8 29/46/8
f 29/46/7 35/50/7 34/55/7
f 35/54/49 30/51/43 31/53/43
f 31/53/44 30/51/44 35/54/50
f 34/49/45 38/57/47 32/56/45
f 32/56/46 38/57/48 34/49/46
f 5/47/8 16/52/8 3/59/8
f 3/59/7 16/52/7 5/47/7
f 39/60/53 35/61/49 33/62/49
f 33/62/50 35/61/50 39/60/54
f 34/55/8 39/63/8 35/50/8
f 35/50/7 39/63/7 34/55/7
f 38/65/8 39/63/8 34/55/8
f 34/55/7 39/63/7 38/65/7
f 38/58/47 41/67/51 36/64/47
f 36/64/48 41/67/52 38/58/48
f 43/68/55 39/69/53 37/70/53
f 37/70/54 39/69/54 43/68/56
f 38/65/8 43/71/8 39/63/8
f 39/63/7 43/71/7 38/65/7
f 41/73/8 43/71/8 38/65/8
f 38/65/7 43/71/7 41/73/7
f 41/72/51 46/76/57 40/75/51
f 40/75/52 46/76/58 41/72/52
f 46/66/8 43/71/8 41/73/8
f 41/73/7 43/71/7 46/66/7
f 47/79/58 43/77/55 42/78/55
f 42/78/56 43/77/56 47/79/57
f 46/66/8 47/74/8 43/71/8
f 43/71/7 47/74/7 46/66/7
f 46/80/57 51/82/56 44/81/57
f 44/81/58 51/82/55 46/80/58
f 52/83/52 47/84/58 45/85/58
f 45/85/57 47/84/57 52/83/51
f 46/66/8 52/88/8 47/74/8
f 47/74/7 52/88/7 46/66/7
f 51/89/8 52/88/8 46/66/8
f 46/66/7 52/88/7 51/89/7
f 51/87/56 48/86/54 54/92/54
f 54/92/53 48/86/53 51/87/55
f 51/87/56 54/92/54 49/93/56
f 49/93/55 54/92/53 51/87/55
f 55/94/48 52/95/52 50/96/52
f 50/96/51 52/95/51 55/94/47
f 51/89/8 55/97/8 52/88/8
f 52/88/7 55/97/7 51/89/7
f 54/91/54 53/90/50 57/98/50
f 57/98/49 53/90/49 54/91/53
f 54/99/8 55/97/8 51/89/8
f 51/89/7 55/97/7 54/99/7
f 57/102/8 59/103/8 54/99/8
f 54/99/7 59/103/7 57/102/7
f 54/99/8 59/103/8 55/97/8
f 55/97/7 59/103/7 54/99/7
f 57/101/50 56/100/44 60/106/44
f 60/106/43 56/100/43 57/101/49
f 57/102/8 61/107/8 59/103/8
f 59/103/7 61/107/7 57/102/7
f 60/105/44 58/104/42 62/108/42
f 62/108/41 58/104/41 60/105/43
f 60/109/8 61/107/8 57/102/8
f 57/102/7 61/107/7 60/109/7
f 62/110/8 64/111/8 60/109/8
f 60/109/7 64/111/7 62/110/7
f 60/109/8 64/111/8 61/107/8
f 61/107/7 64/111/7 60/109/7
f 63/112/8 66/113/8 62/110/8
f 62/110/7 66/113/7 63/112/7
f 62/110/8 66/113/8 64/111/8
f 64/111/7 66/113/7 62/110/7
f 63/112/8 69/116/8 66/113/8
f 66/113/7 69/116/7 63/112/7
f 73/120/32 68/115/36 65/114/32
f 65/114/31 68/115/35 73/120/31
f 68/121/8 69/116/8 63/112/8
f 63/112/7 69/116/7 68/121/7
f 69/122/30 66/117/34 70/123/34
f 70/123/33 66/117/33 69/122/29
f 76/126/28 72/119/32 67/118/28
f 67/118/27 72/119/31 76/126/27
f 73/120/32 65/114/32 72/127/32
f 72/127/31 65/114/31 73/120/31
f 68/121/8 77/128/8 69/116/8
f 69/116/7 77/128/7 68/121/7
f 82/131/24 75/125/28 71/124/24
f 71/124/23 75/125/27 82/131/23
f 76/126/28 67/118/28 75/132/28
f 75/132/27 67/118/27 76/126/27
f 72/133/8 77/128/8 68/121/8
f 68/121/7 77/128/7 72/133/7
f 89/138/20 81/130/24 74/129/20
f 74/129/19 81/130/23 89/138/19
f 82/131/24 71/124/24 81/139/24
f 81/139/23 71/124/23 82/131/23
f 72/133/8 85/140/8 77/128/8
f 77/128/7 85/140/7 72/133/7
f 78/135/22 84/134/22 92/145/22
f 92/145/21 84/134/21 78/135/21
f 96/152/13 88/137/20 80/136/13
f 80/136/12 88/137/19 96/152/12
f 89/138/20 74/129/20 88/153/20
f 88/153/19 74/129/19 89/138/19
f 75/154/8 85/140/8 72/133/8
f 72/133/7 85/140/7 75/154/7
f 83/143/18 91/142/18 99/156/18
f 99/156/17 91/142/17 83/143/17
f 91/142/18 78/144/22 92/157/22
f 92/157/21 78/144/21 91/142/17
f 100/158/10 93/147/16 86/146/10
f 86/146/9 93/147/15 100/158/9
f 101/159/16 79/148/16 93/160/16
f 93/160/15 79/148/15 101/159/15
f 101/159/16 94/149/14 79/148/16
f 79/148/15 94/149/11 101/159/15
f 102/161/14 87/150/14 94/162/14
f 94/162/11 87/150/11 102/161/11
f 102/161/14 95/151/13 87/150/14
f 87/150/11 95/151/12 102/161/11
f 96/152/13 80/136/13 95/163/13
f 95/163/12 80/136/12 96/152/12
f 75/154/8 92/164/8 85/140/8
f 85/140/7 92/164/7 75/154/7
f 105/168/6 90/165/6 98/169/6
f 98/169/5 90/165/5 105/168/5
f 91/170/18 98/155/6 99/167/18
f 99/167/17 98/155/5 91/170/17
f 100/158/10 86/146/10 106/171/10
f 106/171/9 86/146/9 100/158/9
f 81/172/8 92/164/8 75/154/8
f 75/154/7 92/164/7 81/172/7
f 105/168/6 104/166/3 90/165/6
f 90/165/5 104/166/1 105/168/5
f 108/175/3 97/173/3 104/176/3
f 104/176/1 97/173/1 108/175/1
f 88/177/8 98/141/8 99/178/8
f 99/178/7 98/141/7 88/177/7
f 81/172/8 99/178/8 92/164/8
f 92/164/7 99/178/7 81/172/7
f 108/175/3 107/174/4 97/173/3
f 97/173/1 107/174/2 108/175/1
f 109/179/4 103/180/4 107/182/4
f 107/182/2 103/180/2 109/179/2
f 95/183/8 98/141/8 88/177/8
f 88/177/7 98/141/7 95/183/7
f 88/177/8 99/178/8 81/172/8
f 81/172/7 99/178/7 88/177/7
f 109/179/4 106/181/10 103/180/4
f 103/180/2 106/181/9 109/179/2
f 95/183/8 104/184/8 98/141/8
f 98/141/7 104/184/7 95/183/7
f 94/185/8 104/184/8 95/183/8
f 95/183/7 104/184/7 94/185/7
f 94/185/8 107/186/8 104/184/8
f 104/184/7 107/186/7 94/185/7
f 93/187/8 107/186/8 94/185/8
f 94/185/7 107/186/7 93/187/7
f 107/186/8 93/187/8 106/188/8
f 106/188/7 93/187/7 107/186/7