mtllib new-4.mtl
v -0.129615 -0.132100 -0.053892
v -0.135810 -0.136340 -0.044495
v -0.143971 -0.141540 -0.037351
v -0.110741 -0.122249 -0.040913
v -0.014259 -0.333551 -0.068744
v -0.192381 -0.168652 -0.045601
v -0.125808 -0.129108 -0.064902
v -0.183972 -0.164388 -0.038133
v -0.028615 -0.342991 -0.052203
v -0.104830 -0.117615 -0.057860
v -0.020454 -0.337792 -0.059347
v -0.010451 -0.330559 -0.079754
v -0.198900 -0.171674 -0.055246
v -0.153540 -0.147344 -0.032947
v -0.120326 -0.128803 -0.026463
v -0.174247 -0.159171 -0.033352
v -0.038184 -0.348796 -0.047799
v 0.010526 -0.319067 -0.072712
v 0.004615 -0.323701 -0.055765
v -0.217527 -0.183217 -0.043350
v -0.077025 -0.370104 -0.060453
v -0.124647 -0.127568 -0.076774
v -0.102996 -0.115216 -0.076149
v -0.009291 -0.329019 -0.091626
v -0.203085 -0.173247 -0.066412
v -0.207516 -0.178583 -0.028453
v -0.068616 -0.365840 -0.052985
v -0.004970 -0.330254 -0.041316
v 0.012360 -0.316668 -0.091001
v -0.223934 -0.185616 -0.060578
v -0.083544 -0.373126 -0.070099
v -0.163867 -0.153358 -0.031583
v -0.048511 -0.354810 -0.046435
v -0.058891 -0.360623 -0.048204
v -0.102171 -0.384669 -0.058202
v -0.092160 -0.380035 -0.043305
v -0.126212 -0.127585 -0.088699
v -0.204650 -0.173264 -0.078338
v 0.009993 -0.316668 -0.109386
v -0.010856 -0.329037 -0.103552
v -0.087729 -0.374699 -0.081264
v -0.017575 -0.338281 -0.030348
v -0.108578 -0.387068 -0.075430
v -0.194584 -0.172029 -0.016903
v -0.105363 -0.115216 -0.094534
v -0.226301 -0.185616 -0.078963
v -0.132931 -0.136829 -0.015496
v -0.079228 -0.373481 -0.031755
v -0.110945 -0.387068 -0.093815
v -0.130397 -0.129158 -0.099865
v -0.203490 -0.171724 -0.090210
v -0.089294 -0.374716 -0.093190
v -0.111770 -0.117615 -0.111762
v -0.015041 -0.330610 -0.114718
v -0.032342 -0.347234 -0.023609
v -0.064255 -0.365454 -0.024338
v -0.179612 -0.164003 -0.009486
v -0.088134 -0.373176 -0.105062
v -0.136916 -0.132180 -0.109511
v 0.003586 -0.319067 -0.126614
v -0.021560 -0.333631 -0.124363
v -0.224467 -0.183217 -0.097252
v -0.109111 -0.384669 -0.112104
v -0.147698 -0.145782 -0.008757
v -0.199682 -0.168732 -0.101219
v -0.084326 -0.370184 -0.116072
v -0.121781 -0.122249 -0.126658
v -0.145325 -0.136444 -0.116979
v -0.048264 -0.356502 -0.021559
v -0.163620 -0.155050 -0.006707
v -0.193487 -0.164492 -0.110617
v -0.029969 -0.337896 -0.131831
v -0.006425 -0.323701 -0.141511
v -0.155050 -0.141661 -0.121760
v -0.103200 -0.380035 -0.129051
v -0.078131 -0.365944 -0.125469
v -0.039694 -0.343113 -0.136612
v -0.019357 -0.330254 -0.153061
v -0.165430 -0.147474 -0.123529
v -0.185326 -0.159293 -0.117761
v -0.218556 -0.178583 -0.114199
v -0.050074 -0.348926 -0.138381
v -0.134713 -0.128803 -0.138209
v -0.093615 -0.373481 -0.143500
v -0.175757 -0.153488 -0.122165
v -0.208971 -0.172029 -0.128648
v -0.069970 -0.360744 -0.132613
v -0.034330 -0.338281 -0.160478
v -0.081010 -0.365454 -0.154468
v -0.060401 -0.354940 -0.137017
v -0.149686 -0.136829 -0.145626
v -0.196366 -0.164003 -0.139616
v -0.050321 -0.347234 -0.163257
v -0.066243 -0.356502 -0.161207
v -0.181599 -0.155050 -0.146354
v -0.165678 -0.145782 -0.148404
vn 0.760376 0.397544 0.513602
vn 0.625915 0.305511 0.717560
vn 0.448800 0.192659 0.872617
vn 0.843018 0.462484 0.274643
vn 0.241099 0.066677 0.968207
vn -0.601919 -0.395807 0.693564
vn -0.743408 -0.461392 0.484213
vn -0.419410 -0.303248 0.855649
vn 0.868210 0.495907 0.016968
vn -0.208319 -0.190023 0.959424
vn -0.834235 -0.495534 0.241864
vn 0.016968 -0.063848 0.997815
vn 0.834235 0.495534 -0.241864
vn -0.868210 -0.495907 -0.016968
vn 0.743408 0.461392 -0.484213
vn -0.843018 -0.462484 -0.274643
vn 0.601919 0.395807 -0.693564
vn -0.760376 -0.397544 -0.513602
vn 0.419410 0.303248 -0.855649
vn -0.625915 -0.305511 -0.717560
vn 0.208319 0.190023 -0.959424
vn -0.016968 0.063848 -0.997815
vn -0.448800 -0.192659 -0.872617
vn -0.241099 -0.066677 -0.968207
vn -0.495907 0.866025 0.063848
vn 0.495907 -0.866025 -0.063848
vn 0.901157 -0.035780 0.432013
vn -0.901157 0.035780 -0.432013
vn 0.975484 0.022492 0.218917
vn -0.975484 -0.022492 -0.218917
vn 0.780635 -0.118189 0.613710
vn -0.780635 0.118189 -0.613710
vn -0.441612 -0.802422 0.401369
vn 0.441612 0.802422 -0.401369
vn 0.998551 0.052656 -0.011058
vn -0.998551 -0.052656 0.011058
vn -0.315731 -0.744150 0.588689
vn 0.315731 0.744150 -0.588689
vn -0.522180 -0.832586 0.184737
vn 0.522180 0.832586 -0.184737
vn 0.968787 0.052656 -0.242238
vn -0.968787 -0.052656 0.242238
vn 0.622132 -0.219120 0.751624
vn -0.622132 0.219120 -0.751624
vn -0.153116 -0.661741 0.733931
vn 0.153116 0.661741 -0.733931
vn -0.551945 -0.832586 -0.046443
vn 0.551945 0.832586 0.046443
vn 0.888219 0.022492 -0.458870
vn -0.888219 -0.022492 0.458870
vn 0.436450 -0.331693 0.836356
vn -0.436450 0.331693 -0.836356
vn 0.035152 -0.560810 0.827198
vn -0.035152 0.560810 -0.827198
vn -0.528878 -0.802422 -0.276418
vn 0.528878 0.802422 0.276418
vn 0.762338 -0.035780 -0.646190
vn -0.762338 0.035780 0.646190
vn 0.236242 -0.448237 0.862133
vn -0.236242 0.448237 -0.862133
vn -0.454551 -0.744150 -0.489514
vn 0.454551 0.744150 0.489514
vn 0.599722 -0.118189 -0.791432
vn -0.599722 0.118189 0.791432
vn -0.334029 -0.661741 -0.671211
vn 0.334029 0.661741 0.671211
vn 0.411455 -0.219120 -0.884699
vn -0.411455 0.219120 0.884699
vn -0.175526 -0.560810 -0.809124
vn 0.175526 0.560810 0.809124
vn 0.210365 -0.331693 -0.919634
vn -0.210365 0.331693 0.919634
vn 0.010157 -0.448237 -0.893857
vn -0.010157 0.448237 0.893857
usemtl material-1
f 5//18 2//20 1//18
f 1//1 2//2 5//1
f 1//25 6//25 2//25
f 2//26 6//26 1//26
f 2//25 8//25 3//25
f 3//26 8//26 2//26
f 2//20 9//23 3//23
f 3//3 9//3 2//2
f 2//20 5//18 11//20
f 11//2 5//1 2//2
f 1//18 12//16 5//18
f 5//1 12//4 1//1
f 1//25 13//25 6//25
f 6//26 13//26 1//26
f 2//25 6//25 8//25
f 8//26 6//26 2//26
f 12//16 1//18 7//16
f 7//4 1//1 12//4
f 7//25 13//25 1//25
f 1//26 13//26 7//26
f 3//25 8//25 16//25
f 16//26 8//26 3//26
f 9//23 2//20 11//20
f 11//2 2//2 9//3
f 17//24 3//23 9//23
f 9//3 3//3 17//5
f 21//17 13//15 6//17
f 6//6 13//7 21//6
f 8//19 21//17 6//17
f 6//6 21//6 8//8
f 7//16 24//14 12//16
f 12//4 24//9 7//4
f 7//25 25//25 13//25
f 13//26 25//26 7//26
f 3//25 16//25 14//25
f 14//26 16//26 3//26
f 3//23 17//24 14//24
f 14//5 17//5 3//3
f 16//21 27//19 8//19
f 8//8 27//8 16//10
f 13//15 21//17 31//15
f 31//7 21//6 13//7
f 21//17 8//19 27//19
f 27//8 8//8 21//6
f 24//14 7//16 22//14
f 22//9 7//4 24//9
f 22//25 25//25 7//25
f 7//26 25//26 22//26
f 31//15 25//13 13//15
f 13//7 25//11 31//7
f 14//25 16//25 32//25
f 32//26 16//26 14//26
f 33//22 14//24 17//24
f 17//5 14//5 33//12
f 27//19 16//21 34//21
f 34//10 16//10 27//8
f 37//11 24//14 22//14
f 22//9 24//9 37//13
f 22//25 38//25 25//25
f 25//26 38//26 22//26
f 25//13 31//15 41//13
f 41//11 31//7 25//11
f 14//24 33//22 32//22
f 32//12 33//12 14//5
f 32//22 34//21 16//21
f 16//10 34//10 32//12
f 24//14 37//11 40//11
f 40//13 37//13 24//9
f 37//25 38//25 22//25
f 22//26 38//26 37//26
f 41//13 38//9 25//13
f 25//11 38//14 41//11
f 34//21 32//22 33//22
f 33//12 32//12 34//10
f 50//7 40//11 37//11
f 37//13 40//13 50//15
f 37//25 51//25 38//25
f 38//26 51//26 37//26
f 38//9 41//13 52//9
f 52//14 41//11 38//14
f 40//11 50//7 54//7
f 54//15 50//15 40//13
f 50//25 51//25 37//25
f 37//26 51//26 50//26
f 38//9 58//4 51//4
f 51//16 58//16 38//14
f 58//4 38//9 52//9
f 52//14 38//14 58//16
f 59//6 54//7 50//7
f 50//15 54//15 59//17
f 50//25 65//25 51//25
f 51//26 65//26 50//26
f 66//1 51//4 58//4
f 58//16 51//16 66//18
f 59//25 65//25 50//25
f 50//26 65//26 59//26
f 54//7 59//6 61//6
f 61//17 59//17 54//15
f 51//4 66//1 65//1
f 65//18 66//18 51//16
f 59//25 71//25 65//25
f 65//26 71//26 59//26
f 72//8 59//6 68//8
f 68//19 59//17 72//19
f 68//25 71//25 59//25
f 59//26 71//26 68//26
f 59//6 72//8 61//6
f 61//17 72//19 59//17
f 76//2 65//1 66//1
f 66//18 65//18 76//20
f 65//1 76//2 71//2
f 71//20 76//20 65//18
f 77//10 68//8 74//10
f 74//21 68//19 77//21
f 74//25 80//25 68//25
f 68//26 80//26 74//26
f 68//8 77//10 72//8
f 72//19 77//21 68//19
f 68//25 80//25 71//25
f 71//26 80//26 68//26
f 76//2 80//3 71//2
f 71//20 80//23 76//20
f 82//12 74//10 79//12
f 79//22 74//21 82//22
f 85//25 74//25 79//25
f 79//26 74//26 85//26
f 74//10 82//12 77//10
f 77//21 82//22 74//21
f 74//25 85//25 80//25
f 80//26 85//26 74//26
f 80//3 76//2 87//3
f 87//23 76//20 80//23
f 79//12 90//5 82//12
f 82//22 90//24 79//22
f 90//5 79//12 85//5
f 85//24 79//22 90//24
f 87//3 85//5 80//3
f 80//23 85//24 87//23
f 85//5 87//3 90//5
f 90//24 87//23 85//24
usemtl material-2
f 1//26 4//27 2//26
f 2//25 4//28 1//25
f 2//26 4//27 3//26
f 3//25 4//28 2//25
f 1//26 10//29 4//27
f 4//28 10//30 1//25
f 7//26 10//29 1//26
f 1//25 10//30 7//25
f 3//26 4//27 15//31
f 15//32 4//28 3//25
f 4//27 18//29 10//29
f 10//30 18//30 4//28
f 5//26 19//27 11//26
f 11//25 19//28 5//25
f 12//26 18//29 5//26
f 5//25 18//30 12//25
f 20//33 13//26 6//26
f 6//25 13//25 20//34
f 20//33 6//26 8//26
f 8//25 6//25 20//34
f 7//26 23//35 10//29
f 10//30 23//36 7//25
f 3//26 15//31 14//26
f 14//25 15//32 3//25
f 15//31 19//27 4//27
f 4//28 19//28 15//32
f 26//37 8//26 16//26
f 16//25 8//25 26//38
f 11//26 19//27 9//26
f 9//25 19//28 11//25
f 9//26 28//31 17//26
f 17//25 28//32 9//25
f 18//29 4//27 19//27
f 19//28 4//28 18//30
f 29//35 10//29 18//29
f 18//30 10//30 29//36
f 5//26 18//29 19//27
f 19//28 18//30 5//25
f 12//26 29//35 18//29
f 18//30 29//36 12//25
f 30//39 13//26 20//33
f 20//34 13//25 30//40
f 20//33 8//26 26//37
f 26//38 8//25 20//34
f 22//26 23//35 7//26
f 7//25 23//36 22//25
f 10//29 29//35 23//35
f 23//36 29//36 10//30
f 24//26 29//35 12//26
f 12//25 29//36 24//25
f 30//39 25//26 13//26
f 13//25 25//25 30//40
f 14//26 15//31 32//26
f 32//25 15//32 14//25
f 19//27 15//31 28//31
f 28//32 15//32 19//28
f 26//37 16//26 32//26
f 32//25 16//25 26//38
f 9//26 19//27 28//31
f 28//32 19//28 9//25
f 17//26 28//31 33//26
f 33//25 28//32 17//25
f 30//39 35//33 20//33
f 20//34 35//34 30//40
f 35//33 31//26 21//26
f 21//25 31//25 35//34
f 20//33 36//37 26//37
f 26//38 36//38 20//34
f 35//33 21//26 27//26
f 27//25 21//25 35//34
f 37//26 23//35 22//26
f 22//25 23//36 37//25
f 39//41 23//35 29//35
f 29//36 23//36 39//42
f 40//26 29//35 24//26
f 24//25 29//36 40//25
f 30//39 38//26 25//26
f 25//25 38//25 30//40
f 15//31 42//43 28//31
f 28//32 42//44 15//32
f 36//37 27//26 34//26
f 34//25 27//25 36//38
f 33//26 28//31 36//37
f 36//38 28//32 33//25
f 35//33 30//39 43//39
f 43//40 30//40 35//34
f 36//37 20//33 35//33
f 35//34 20//34 36//38
f 43//39 31//26 35//33
f 35//34 31//25 43//40
f 36//37 44//45 26//37
f 26//38 44//46 36//38
f 35//33 27//26 36//37
f 36//38 27//25 35//34
f 37//26 45//41 23//35
f 23//36 45//42 37//25
f 23//35 39//41 45//41
f 45//42 39//42 23//36
f 40//26 39//41 29//35
f 29//36 39//42 40//25
f 46//47 38//26 30//39
f 30//40 38//25 46//48
f 43//39 41//26 31//26
f 31//25 41//25 43//40
f 26//37 15//31 44//45
f 44//46 15//32 26//38
f 42//43 15//31 47//43
f 47//44 15//32 42//44
f 48//45 28//31 42//43
f 42//44 28//32 48//46
f 36//37 34//26 33//26
f 33//25 34//25 36//38
f 36//37 28//31 48//45
f 48//46 28//32 36//38
f 30//39 49//47 43//39
f 43//40 49//48 30//40
f 44//45 36//37 48//45
f 48//46 36//38 44//46
f 50//26 45//41 37//26
f 37//25 45//42 50//25
f 39//41 53//49 45//41
f 45//42 53//50 39//42
f 54//26 39//41 40//26
f 40//25 39//42 54//25
f 46//47 51//26 38//26
f 38//25 51//25 46//48
f 49//47 30//39 46//47
f 46//48 30//40 49//48
f 43//39 52//26 41//26
f 41//25 52//25 43//40
f 44//45 15//31 47//43
f 47//44 15//32 44//46
f 47//43 55//51 42//43
f 42//44 55//52 47//44
f 48//45 42//43 56//53
f 56//54 42//44 48//46
f 49//47 52//26 43//39
f 43//40 52//25 49//48
f 48//45 57//53 44//45
f 44//46 57//54 48//46
f 59//26 45//41 50//26
f 50//25 45//42 59//25
f 53//49 39//41 60//49
f 60//50 39//42 53//50
f 59//26 53//49 45//41
f 45//42 53//50 59//25
f 61//26 39//41 54//26
f 54//25 39//42 61//25
f 62//55 51//26 46//47
f 46//48 51//25 62//56
f 46//47 63//55 49//47
f 49//48 63//56 46//48
f 44//45 47//43 57//53
f 57//54 47//44 44//46
f 55//51 47//43 64//51
f 64//52 47//44 55//52
f 56//53 42//43 55//51
f 55//52 42//44 56//54
f 57//53 48//45 56//53
f 56//54 48//46 57//54
f 49//47 58//26 52//26
f 52//25 58//25 49//48
f 61//26 60//49 39//41
f 39//42 60//50 61//25
f 60//49 67//57 53//49
f 53//50 67//58 60//50
f 68//26 53//49 59//26
f 59//25 53//50 68//25
f 62//55 65//26 51//26
f 51//25 65//25 62//56
f 63//55 46//47 62//55
f 62//56 46//48 63//56
f 63//55 58//26 49//47
f 49//48 58//25 63//56
f 57//53 47//43 64//51
f 64//52 47//44 57//54
f 64//51 69//59 55//51
f 55//52 69//60 64//52
f 56//53 55//51 69//59
f 69//60 55//52 56//54
f 56//53 70//59 57//53
f 57//54 70//60 56//54
f 63//55 66//26 58//26
f 58//25 66//25 63//56
f 72//26 60//49 61//26
f 61//25 60//50 72//25
f 67//57 60//49 73//57
f 73//58 60//50 67//58
f 74//26 67//57 53//49
f 53//50 67//58 74//25
f 74//26 53//49 68//26
f 68//25 53//50 74//25
f 62//55 71//26 65//26
f 65//25 71//25 62//56
f 62//55 75//61 63//55
f 63//56 75//62 62//56
f 57//53 64//51 70//59
f 70//60 64//52 57//54
f 69//59 64//51 70//59
f 70//60 64//52 69//60
f 70//59 56//53 69//59
f 69//60 56//54 70//60
f 63//55 76//26 66//26
f 66//25 76//25 63//56
f 77//26 60//49 72//26
f 72//25 60//50 77//25
f 77//26 73//57 60//49
f 60//50 73//58 77//25
f 78//63 67//57 73//57
f 73//58 67//58 78//64
f 67//57 74//26 79//26
f 79//25 74//25 67//58
f 81//61 71//26 62//55
f 62//56 71//25 81//62
f 75//61 62//55 81//61
f 81//62 62//56 75//62
f 75//61 76//26 63//55
f 63//56 76//25 75//62
f 73//57 77//26 82//26
f 82//25 77//25 73//58
f 67//57 78//63 83//63
f 83//64 78//64 67//58
f 84//65 78//63 73//57
f 73//58 78//64 84//66
f 86//65 67//57 79//26
f 79//25 67//58 86//66
f 81//61 84//65 75//61
f 75//62 84//66 81//62
f 75//61 87//26 76//26
f 76//25 87//25 75//62
f 84//65 73//57 82//26
f 82//25 73//58 84//66
f 88//67 83//63 78//63
f 78//64 83//64 88//68
f 86//65 83//63 67//57
f 67//58 83//64 86//66
f 89//69 78//63 84//65
f 84//66 78//64 89//70
f 84//65 81//61 86//65
f 86//66 81//62 84//66
f 84//65 90//26 75//61
f 75//62 90//25 84//66
f 75//61 90//26 87//26
f 87//25 90//25 75//62
f 84//65 82//26 90//26
f 90//25 82//25 84//66
f 83//63 88//67 91//67
f 91//68 88//68 83//64
f 89//69 88//67 78//63
f 78//64 88//68 89//70
f 92//69 83//63 86//65
f 86//66 83//64 92//70
f 84//65 92//69 89//69
f 89//70 92//70 84//66
f 86//65 85//26 81//61
f 81//62 85//25 86//66
f 92//69 84//65 86//65
f 86//66 84//66 92//70
f 93//71 91//67 88//67
f 88//68 91//68 93//72
f 92//69 91//67 83//63
f 83//64 91//68 92//70
f 94//73 88//67 89//69
f 89//70 88//68 94//74
f 95//73 89//69 92//69
f 92//70 89//70 95//74
f 91//67 93//71 96//71
f 96//72 93//72 91//68
f 88//67 94//73 93//71
f 93//72 94//74 88//68
f 95//73 91//67 92//69
f 92//70 91//68 95//74
f 89//69 95//73 94//73
f 94//74 95//74 89//70
f 94//73 96//71 93//71
f 93//72 96//72 94//74
f 91//67 95//73 96//71
f 96//72 95//74 91//68
f 96//71 94//73 95//73
f 95//74 94//74 96//72