mtllib new-3.mtl
v -0.129615 -0.132100 -0.053892
v -0.178331 -0.062084 -0.039021
v -0.135810 -0.136340 -0.044495
v -0.172136 -0.057844 -0.048418
v -0.143971 -0.141540 -0.037351
v -0.192381 -0.168652 -0.045601
v -0.125808 -0.129108 -0.064902
v -0.234902 -0.094396 -0.040126
v -0.186491 -0.067284 -0.031876
v -0.183972 -0.164388 -0.038133
v -0.198900 -0.171674 -0.055246
v -0.168328 -0.054852 -0.059427
v -0.241421 -0.097418 -0.049772
v -0.226493 -0.090132 -0.032658
v -0.153540 -0.147344 -0.032947
v -0.120326 -0.128803 -0.026463
v -0.174247 -0.159171 -0.033352
v -0.124647 -0.127568 -0.076774
v -0.203085 -0.173247 -0.066412
v -0.216767 -0.084915 -0.027877
v -0.196061 -0.073088 -0.027472
v -0.207516 -0.178583 -0.028453
v -0.245606 -0.098991 -0.060938
v -0.167168 -0.053312 -0.071300
v -0.163867 -0.153358 -0.031583
v -0.206387 -0.079102 -0.026108
v -0.168733 -0.053329 -0.083225
v -0.126212 -0.127585 -0.088699
v -0.204650 -0.173264 -0.078338
v -0.247171 -0.099008 -0.072863
v -0.172918 -0.054902 -0.094391
v -0.246010 -0.097469 -0.084735
v -0.130397 -0.129158 -0.099865
v -0.203490 -0.171724 -0.090210
v -0.136916 -0.132180 -0.109511
v -0.179437 -0.057924 -0.104036
v -0.242203 -0.094477 -0.095745
v -0.199682 -0.168732 -0.101219
v -0.145325 -0.136444 -0.116979
v -0.193487 -0.164492 -0.110617
v -0.155050 -0.141661 -0.121760
v -0.236008 -0.090236 -0.105142
v -0.187845 -0.062188 -0.111504
v -0.165430 -0.147474 -0.123529
v -0.185326 -0.159293 -0.117761
v -0.218556 -0.178583 -0.114199
v -0.175757 -0.153488 -0.122165
v -0.197571 -0.067405 -0.116286
v -0.208971 -0.172029 -0.128648
v -0.227847 -0.085037 -0.112286
v -0.207951 -0.073218 -0.118054
v -0.218278 -0.079232 -0.116690
vn 0.760376 0.397544 0.513602
vn 0.625915 0.305511 0.717560
vn 0.448800 0.192659 0.872617
vn 0.843018 0.462484 0.274643
vn 0.241099 0.066677 0.968207
vn -0.601919 -0.395807 0.693564
vn -0.743408 -0.461392 0.484213
vn -0.419410 -0.303248 0.855649
vn 0.868210 0.495907 0.016968
vn -0.208319 -0.190023 0.959424
vn -0.834235 -0.495534 0.241864
vn 0.016968 -0.063848 0.997815
vn 0.834235 0.495534 -0.241864
vn -0.868210 -0.495907 -0.016968
vn 0.743408 0.461392 -0.484213
vn -0.843018 -0.462484 -0.274643
vn 0.601919 0.395807 -0.693564
vn -0.760376 -0.397544 -0.513602
vn 0.419410 0.303248 -0.855649
vn -0.625915 -0.305511 -0.717560
vn 0.208319 0.190023 -0.959424
vn -0.016968 0.063848 -0.997815
vn -0.448800 -0.192659 -0.872617
vn -0.241099 -0.066677 -0.968207
vn -0.495907 0.866025 0.063848
vn 0.495907 -0.866025 -0.063848
vn 0.780635 -0.118189 0.613710
vn -0.780635 0.118189 -0.613710
vn -0.315731 -0.744150 0.588689
vn 0.315731 0.744150 -0.588689
vn -0.454551 -0.744150 -0.489514
vn 0.454551 0.744150 0.489514
vn -0.334029 -0.661741 -0.671211
vn 0.334029 0.661741 0.671211
vt 0.328681 0.000000
vt 0.313029 0.111258
vt 0.313029 0.000000
vt 0.328681 0.111258
vt 0.297378 0.000000
vt 0.344332 0.000000
vt 0.297378 0.111258
vt 0.344332 0.111258
vt 0.281726 0.000000
vt 0.219121 0.000000
vt 0.203469 0.111258
vt 0.203469 0.000000
vt 0.234772 0.111258
vt 0.234772 0.000000
vt 0.359984 0.000000
vt 0.219121 0.111258
vt 0.281726 0.111258
vt 0.250423 0.111258
vt 0.250423 0.000000
vt 0.187818 0.111258
vt 0.359984 0.111258
vt 0.187818 0.000000
vt 0.266075 0.000000
vt 0.266075 0.111258
vt 0.375635 0.111258
vt 0.172166 0.111258
vt 0.375635 0.000000
vt 0.172166 0.000000
vt 0.000000 0.000000
vt 0.015651 0.111258
vt 0.000000 0.111258
vt 0.156515 0.000000
vt 0.015651 0.000000
vt 0.156515 0.111258
vt 0.031303 0.111258
vt 0.140863 0.000000
vt 0.031303 0.000000
vt 0.140863 0.111258
vt 0.046954 0.000000
vt 0.125212 0.000000
vt 0.046954 0.111258
vt 0.062606 0.000000
vt 0.125212 0.111258
vt 0.078257 0.000000
vt 0.062606 0.111258
vt 0.109560 0.111258
vt 0.109560 0.000000
vt 0.093909 0.000000
vt 0.078257 0.111258
vt 0.093909 0.111258
usemtl material-0
f 1/1/1 2/2/2 3/3/2
f 2/2/2 1/1/1 4/4/1
f 2/2/2 5/5/3 3/3/2
f 7/6/4 4/4/1 1/1/1
f 5/5/3 2/2/2 9/7/3
f 4/4/1 7/6/4 12/8/4
f 9/7/3 15/9/5 5/5/3
f 6/10/6 13/11/7 11/12/7
f 14/13/8 6/10/6 10/14/8
f 18/15/9 12/8/4 7/6/4
f 13/11/7 6/10/6 8/16/6
f 6/10/6 14/13/8 8/16/6
f 15/9/5 9/7/3 21/17/5
f 20/18/10 10/14/8 17/19/10
f 23/20/11 11/12/7 13/11/7
f 10/14/8 20/18/10 14/13/8
f 12/8/4 18/15/9 24/21/9
f 11/12/7 23/20/11 19/22/11
f 21/17/5 25/23/12 15/9/5
f 17/19/10 26/24/12 20/18/10
f 18/15/9 27/25/13 24/21/9
f 30/26/14 19/22/11 23/20/11
f 25/23/12 21/17/5 26/24/12
f 26/24/12 17/19/10 25/23/12
f 27/25/13 18/15/9 28/27/13
f 19/22/11 30/26/14 29/28/14
f 28/29/13 31/30/15 27/31/13
f 30/26/14 34/32/16 29/28/14
f 31/30/15 28/29/13 33/33/15
f 34/32/16 30/26/14 32/34/16
f 33/33/15 36/35/17 31/30/15
f 32/34/16 38/36/18 34/32/16
f 36/35/17 33/33/15 35/37/17
f 38/36/18 32/34/16 37/38/18
f 39/39/19 36/35/17 35/37/17
f 37/38/18 40/40/20 38/36/18
f 36/35/17 39/39/19 43/41/19
f 41/42/21 43/41/19 39/39/19
f 40/40/20 37/38/18 42/43/20
f 44/44/22 48/45/21 41/42/21
f 43/41/19 41/42/21 48/45/21
f 40/40/20 50/46/23 45/47/23
f 50/46/23 40/40/20 42/43/20
f 47/48/24 51/49/22 44/44/22
f 48/45/21 44/44/22 51/49/22
f 45/47/23 52/50/24 47/48/24
f 52/50/24 45/47/23 50/46/23
f 51/49/22 47/48/24 52/50/24
usemtl material-1
f 3//20 2//20 1//18
f 4//18 1//18 2//20
f 3//20 5//23 2//20
f 1//18 4//18 7//16
f 4//25 8//25 2//25
f 2//26 8//26 4//26
f 9//23 2//20 5//23
f 12//16 7//16 4//18
f 4//25 13//25 8//25
f 8//26 13//26 4//26
f 2//25 8//25 14//25
f 14//26 8//26 2//26
f 2//25 14//25 9//25
f 9//26 14//26 2//26
f 5//23 15//24 9//23
f 11//15 13//15 6//17
f 10//19 6//17 14//19
f 7//16 12//16 18//14
f 12//25 13//25 4//25
f 4//26 13//26 12//26
f 8//17 6//17 13//15
f 8//17 14//19 6//17
f 9//25 14//25 20//25
f 20//26 14//26 9//26
f 21//24 9//23 15//24
f 17//21 10//19 20//21
f 13//15 11//15 23//13
f 14//19 20//21 10//19
f 24//14 18//14 12//16
f 12//25 23//25 13//25
f 13//26 23//26 12//26
f 19//13 23//13 11//15
f 9//25 20//25 21//25
f 21//26 20//26 9//26
f 15//24 25//22 21//24
f 20//21 26//22 17//21
f 24//14 27//11 18//14
f 24//25 23//25 12//25
f 12//26 23//26 24//26
f 23//13 19//13 30//9
f 21//25 20//25 26//25
f 26//26 20//26 21//26
f 26//22 21//24 25//22
f 25//22 17//21 26//22
f 28//11 18//14 27//11
f 27//25 30//25 24//25
f 24//26 30//26 27//26
f 24//25 30//25 23//25
f 23//26 30//26 24//26
f 29//9 30//9 19//13
f 27//11 31//7 28//11
f 27//25 32//25 30//25
f 30//26 32//26 27//26
f 29//9 34//4 30//9
f 33//7 28//11 31//7
f 31//25 32//25 27//25
f 27//26 32//26 31//26
f 32//4 30//9 34//4
f 31//7 36//6 33//7
f 31//25 37//25 32//25
f 32//26 37//26 31//26
f 34//4 38//1 32//4
f 35//6 33//7 36//6
f 36//25 37//25 31//25
f 31//26 37//26 36//26
f 37//1 32//4 38//1
f 35//6 36//6 39//8
f 36//25 42//25 37//25
f 37//26 42//26 36//26
f 38//1 40//2 37//1
f 43//8 39//8 36//6
f 39//8 43//8 41//10
f 43//25 42//25 36//25
f 36//26 42//26 43//26
f 42//2 37//1 40//2
f 41//10 48//10 44//12
f 48//10 41//10 43//8
f 45//3 50//3 40//2
f 43//25 50//25 42//25
f 42//26 50//26 43//26
f 42//2 40//2 50//3
f 44//12 51//12 47//5
f 51//12 44//12 48//10
f 47//5 52//5 45//3
f 48//25 50//25 43//25
f 43//26 50//26 48//26
f 50//3 45//3 52//5
f 52//5 47//5 51//12
f 52//25 48//25 51//25
f 51//26 48//26 52//26
f 48//25 52//25 50//25
f 50//26 52//26 48//26
usemtl material-2
f 25//26 16//27 22//29
f 22//30 16//28 25//25
f 46//31 45//26 40//26
f 40//25 45//25 46//32
f 49//33 44//26 47//26
f 47//25 44//25 49//34
f 46//31 47//26 45//26
f 45//25 47//25 46//32