# SSTK version 0.8.0
# 4
mtllib original-4.mtl
o Group5/mesh7/mesh7-geometry#mesh7-geometry
v -0.147304 -0.196407 -0.363394
v -0.205982 -0.183619 -0.857343
v -0.147304 -0.228645 -0.857343
v -0.205982 -0.154178 -0.347773
v -0.205982 0.217060 -0.857343
v -0.078972 -0.222953 -0.373214
v -0.251008 -0.099145 -0.327416
v -0.205982 0.221614 -0.208763
v -0.147304 0.262085 -0.857343
v -0.251008 -0.124941 -0.857343
v -0.078972 -0.256949 -0.857343
v -0.147304 0.263843 -0.193143
v -0.251008 0.166581 -0.229121
v -0.251008 0.158381 -0.857343
v -0.005643 -0.232007 -0.376563
v -0.078972 0.290389 -0.183323
v -0.279312 0.102493 -0.252828
v -0.279312 -0.035057 -0.303709
v -0.078972 0.290389 -0.857343
v -0.279312 0.090049 -0.857343
v -0.005643 -0.266603 -0.857343
v -0.279312 -0.056609 -0.857343
v 0.067687 -0.222953 -0.373214
v -0.005643 0.299443 -0.179974
v -0.005643 0.300043 -0.857343
v -0.288966 0.016720 -0.857343
v -0.288966 0.033718 -0.278268
v 0.067687 -0.256949 -0.857343
v 0.067687 0.290389 -0.183323
v 0.136019 -0.196407 -0.363394
v 0.067687 0.290389 -0.857343
v 0.136019 -0.228645 -0.857343
v 0.136019 0.263843 -0.193143
v 0.136019 0.262085 -0.857343
v 0.194697 -0.154178 -0.347773
v 0.194697 -0.183619 -0.857343
v 0.194697 0.221614 -0.208763
v 0.194697 0.217060 -0.857343
v 0.239722 -0.124941 -0.857343
v 0.239722 -0.099145 -0.327416
v 0.239722 0.166581 -0.229121
v 0.239722 0.158381 -0.857343
v 0.268026 -0.056609 -0.857343
v 0.268026 -0.035057 -0.303709
v 0.268026 0.102493 -0.252828
v 0.268026 0.090049 -0.857343
v 0.277680 0.016720 -0.857343
v 0.277680 0.033718 -0.278268
vn -0.5166108214766374 -0.8545337047018295 0.053715981437559505
vn -0.6917612513345481 -0.7209182619280354 0.04175201516957454
vn -0.45175694041574815 -0.8901458825946617 0.05963199213486873
vn 0.45175694041574815 0.8901458825946617 -0.05963199213486873
vn 0.6917612513345481 0.7209182619280354 -0.04175201516957454
vn 0.5166108214766374 0.8545337047018295 -0.053715981437559505
vn -0.6766750017857455 -0.7350560019398129 0.042469000112075696
vn 0.6766750017857455 0.7350560019398129 -0.042469000112075696
vn 0 0 -1
vn 0 0 1
vn -0.2870739170412479 -0.9556627238321481 0.06555398105618052
vn 0.2870739170412479 0.9556627238321481 -0.06555398105618052
vn -0.8298560765185428 -0.5572190513794995 0.02908300268165655
vn 0.8298560765185428 0.5572190513794995 -0.02908300268165655
vn 0 -0.34693593678532914 0.9378888291086989
vn 0 0.34693593678532914 -0.9378888291086989
vn -0.21207508018454263 -0.9748123685717522 0.06902902609953455
vn 0.21207508018454263 0.9748123685717522 -0.06902902609953455
vn -0.8822439137862469 -0.47029495404230914 0.021640997885220153
vn 0.8822439137862469 0.47029495404230914 -0.021640997885220153
vn -0.6955599028563718 0.7184498996594979 -0.005114999285626462
vn -0.5286591966734169 0.8488273157833433 -0.0034120012693431845
vn -0.7070980656070364 0.7070980656070364 -0.004965000460670142
vn 0.7070980656070364 -0.7070980656070364 0.004965000460670142
vn 0.5286591966734169 -0.8488273157833433 0.0034120012693431845
vn 0.6955599028563718 -0.7184498996594979 0.005114999285626462
vn -0.04371898403326159 -0.9965086360621578 0.07112797402314396
vn 0.04371898403326159 0.9965086360621578 -0.07112797402314396
vn -0.949413420346239 -0.31373613890451013 0.013557006002270836
vn 0.949413420346239 0.31373613890451013 -0.013557006002270836
vn -0.44575807302654513 0.89515214664876 -0.0015410002524551575
vn 0.44575807302654513 -0.89515214664876 0.0015410002524551575
vn -0.8371679829067044 0.5469139888331104 -0.005903999879452133
vn -0.8777721114608265 0.47902306082707063 -0.007282000924679459
vn 0.8777721114608265 -0.47902306082707063 0.007282000924679459
vn 0.8371679829067044 -0.5469139888331104 0.005903999879452133
vn 0.03997100594236998 -0.9966651481712286 0.07114001057617274
vn -0.03997100594236998 0.9966651481712286 -0.07114001057617274
vn -0.20643696969567438 0.978459856365039 0.00029499995669489453
vn -0.29383705323813675 0.9558551731842455 -0.0008210001487508728
vn 0.29383705323813675 -0.9558551731842455 0.0008210001487508728
vn 0.20643696969567438 -0.978459856365039 -0.00029499995669489453
vn -0.9509817522027172 0.3091999194317875 -0.0053959985939648295
vn -0.9736734751264825 0.22789011120424835 -0.005105002491103988
vn 0.9736734751264825 -0.22789011120424835 0.005105002491103988
vn 0.9509817522027172 -0.3091999194317875 0.0053959985939648295
vn -0.9755421378285051 -0.21966203103473256 0.00813200114892173
vn 0.9755421378285051 0.21966203103473256 -0.00813200114892173
vn 0.2020450137134017 -0.9769300663071767 0.06917700469525101
vn -0.2020450137134017 0.9769300663071767 -0.06917700469525101
vn -0.041165007730192285 0.9991521876263108 0.0005900001107934762
vn 0.041165007730192285 -0.9991521876263108 -0.0005900001107934762
vn -0.9988845802238377 0.047207980161086543 -0.00100099957933502
vn 0.9988845802238377 -0.047207980161086543 0.00100099957933502
vn -0.9990278445542765 -0.04404899314610934 0.0017469997281721044
vn 0.9990278445542765 0.04404899314610934 -0.0017469997281721044
vn 0.29041991455353655 -0.9546547191243938 0.06550298072791236
vn -0.29041991455353655 0.9546547191243938 -0.06550298072791236
vn 0.04379900830162101 0.9990401893570964 0.0005890001116385027
vn -0.04379900830162101 -0.9990401893570964 -0.0005890001116385027
vn 0.4390681060077382 -0.8964442164357249 0.06005801450028866
vn -0.4390681060077382 0.8964442164357249 -0.06005801450028866
vn 0.213592935430545 0.9769227046748455 0.00029499991082109796
vn -0.213592935430545 -0.9769227046748455 -0.00029499991082109796
vn 0.29118511253986473 0.9566663697411 -0.0008290003203995667
vn -0.29118511253986473 -0.9566663697411 0.0008290003203995667
vn 0.5247872277044403 -0.8495533686200123 0.05345502319405942
vn -0.5247872277044403 0.8495533686200123 -0.05345502319405942
vn 0.45486423944014376 0.8905594687897371 -0.001535000808023103
vn -0.45486423944014376 -0.8905594687897371 0.001535000808023103
vn 0.6918299548954557 -0.7208539530032073 0.041723997279762365
vn -0.6918299548954557 0.7208539530032073 -0.041723997279762365
vn 0.5221089027392133 0.8528718411232105 -0.0034519993569460867
vn -0.5221089027392133 -0.8528718411232105 0.0034519993569460867
vn 0.7065379479938632 -0.706496947996881 0.040818996995436195
vn -0.7065379479938632 0.706496947996881 -0.040818996995436195
vn 0.6956199272767662 0.7183919248960793 -0.005094999467345855
vn -0.6956199272767662 -0.7183919248960793 0.005094999467345855
vn 0.8356547751512357 -0.5485118524124842 0.028562992314585256
vn -0.8356547751512357 0.5485118524124842 -0.028562992314585256
vn 0.6839628558551853 0.7294988462584993 -0.005122998920330654
vn -0.6839628558551853 -0.7294988462584993 0.005122998920330654
vn 0.8761406051752105 -0.48154878299442383 0.022099990040840636
vn -0.8761406051752105 0.48154878299442383 -0.022099990040840636
vn 0.8328247712855286 0.553504847993752 -0.005939998368728171
vn -0.8328247712855286 -0.553504847993752 0.005939998368728171
vn 0.9506490773785601 -0.30998202523114293 0.013322001084350983
vn -0.9506490773785601 0.30998202523114293 -0.013322001084350983
vn 0.8832020890846248 0.46893904729977387 -0.007088000714934772
vn -0.8832020890846248 -0.46893904729977387 0.007088000714934772
vn 0.9734600299815959 -0.2287010070437624 0.00845100026028236
vn -0.9734600299815959 0.2287010070437624 -0.00845100026028236
vn 0.9501022306292686 0.3118920757091595 -0.005393001309105387
vn -0.9501022306292686 -0.3118920757091595 0.005393001309105387
vn 0.9988834472057132 -0.04720802113529544 0.0018060008085566761
vn -0.9988834472057132 0.04720802113529544 -0.0018060008085566761
vn 0.9756319120443481 0.2193589802242404 -0.00489999955825281
vn -0.9756319120443481 -0.2193589802242404 0.00489999955825281
vn 0.9990430062989663 0.04373000027571765 -0.0008710000054916551
vn -0.9990430062989663 -0.04373000027571765 0.0008710000054916551
usemtl material_0_0
f 1//1 2//2 3//3
f 3//4 2//5 1//6
f 4//7 2//2 1//1
f 1//6 2//5 4//8
f 5//9 3//9 2//9
f 2//10 3//10 5//10
f 1//1 3//3 6//11
f 6//12 3//4 1//6
f 2//2 4//7 7//13
f 7//14 4//8 2//5
f 1//15 8//15 4//15
f 4//16 8//16 1//16
f 9//9 3//9 5//9
f 5//10 3//10 9//10
f 5//9 2//9 10//9
f 10//10 2//10 5//10
f 6//11 3//3 11//17
f 11//18 3//4 6//12
f 6//15 12//15 1//15
f 1//16 12//16 6//16
f 4//15 13//15 7//15
f 7//16 13//16 4//16
f 2//2 7//13 10//19
f 10//20 7//14 2//5
f 1//15 12//15 8//15
f 8//16 12//16 1//16
f 4//15 8//15 13//15
f 13//16 8//16 4//16
f 9//9 11//9 3//9
f 3//10 11//10 9//10
f 8//21 9//22 5//23
f 5//24 9//25 8//26
f 5//9 10//9 14//9
f 14//10 10//10 5//10
f 6//11 11//17 15//27
f 15//28 11//18 6//12
f 6//15 16//15 12//15
f 12//16 16//16 6//16
f 7//15 13//15 17//15
f 17//16 13//16 7//16
f 10//19 7//13 18//29
f 18//30 7//14 10//20
f 12//31 9//22 8//21
f 8//26 9//25 12//32
f 14//33 13//34 8//21
f 8//26 13//35 14//36
f 19//9 11//9 9//9
f 9//10 11//10 19//10
f 14//33 8//21 5//23
f 5//24 8//26 14//36
f 14//9 10//9 20//9
f 20//10 10//10 14//10
f 15//27 11//17 21//37
f 21//38 11//18 15//28
f 15//15 16//15 6//15
f 6//16 16//16 15//16
f 16//39 19//40 12//31
f 12//32 19//41 16//42
f 20//43 17//44 13//34
f 13//35 17//45 20//46
f 7//15 17//15 18//15
f 18//16 17//16 7//16
f 10//19 18//29 22//47
f 22//48 18//30 10//20
f 12//31 19//40 9//22
f 9//25 19//41 12//32
f 20//43 13//34 14//33
f 14//36 13//35 20//46
f 19//9 21//9 11//9
f 11//10 21//10 19//10
f 20//9 10//9 22//9
f 22//10 10//10 20//10
f 23//49 15//27 21//37
f 21//38 15//28 23//50
f 15//15 24//15 16//15
f 16//16 24//16 15//16
f 16//39 25//51 19//40
f 19//41 25//52 16//42
f 26//53 17//44 20//43
f 20//46 17//45 26//54
f 18//15 17//15 27//15
f 27//16 17//16 18//16
f 22//47 18//29 27//55
f 27//56 18//30 22//48
f 25//9 21//9 19//9
f 19//10 21//10 25//10
f 20//9 22//9 26//9
f 26//10 22//10 20//10
f 23//15 24//15 15//15
f 15//16 24//16 23//16
f 23//49 21//37 28//57
f 28//58 21//38 23//50
f 24//59 25//51 16//39
f 16//42 25//52 24//60
f 26//53 27//55 17//44
f 17//45 27//56 26//54
f 22//47 27//55 26//53
f 26//54 27//56 22//48
f 25//9 28//9 21//9
f 21//10 28//10 25//10
f 23//15 29//15 24//15
f 24//16 29//16 23//16
f 30//61 23//49 28//57
f 28//58 23//50 30//62
f 24//59 31//63 25//51
f 25//52 31//64 24//60
f 31//9 28//9 25//9
f 25//10 28//10 31//10
f 30//15 29//15 23//15
f 23//16 29//16 30//16
f 24//59 29//65 31//63
f 31//64 29//66 24//60
f 30//61 28//57 32//67
f 32//68 28//58 30//62
f 31//9 32//9 28//9
f 28//10 32//10 31//10
f 30//15 33//15 29//15
f 29//16 33//16 30//16
f 29//65 34//69 31//63
f 31//64 34//70 29//66
f 35//71 30//61 32//67
f 32//68 30//62 35//72
f 34//9 32//9 31//9
f 31//10 32//10 34//10
f 35//15 33//15 30//15
f 30//16 33//16 35//16
f 29//65 33//73 34//69
f 34//70 33//74 29//66
f 35//71 32//67 36//75
f 36//76 32//68 35//72
f 34//9 36//9 32//9
f 32//10 36//10 34//10
f 35//15 37//15 33//15
f 33//16 37//16 35//16
f 33//73 38//77 34//69
f 34//70 38//78 33//74
f 36//75 39//79 35//71
f 35//72 39//80 36//76
f 38//9 36//9 34//9
f 34//10 36//10 38//10
f 40//15 37//15 35//15
f 35//16 37//16 40//16
f 33//73 37//81 38//77
f 38//78 37//82 33//74
f 38//9 39//9 36//9
f 36//10 39//10 38//10
f 35//71 39//79 40//83
f 40//84 39//80 35//72
f 40//15 41//15 37//15
f 37//16 41//16 40//16
f 41//85 38//77 37//81
f 37//82 38//78 41//86
f 42//9 39//9 38//9
f 38//10 39//10 42//10
f 39//79 43//87 40//83
f 40//84 43//88 39//80
f 44//15 41//15 40//15
f 40//16 41//16 44//16
f 42//89 38//77 41//85
f 41//86 38//78 42//90
f 42//9 43//9 39//9
f 39//10 43//10 42//10
f 40//83 43//87 44//91
f 44//92 43//88 40//84
f 44//15 45//15 41//15
f 41//16 45//16 44//16
f 45//93 42//89 41//85
f 41//86 42//90 45//94
f 46//9 43//9 42//9
f 42//10 43//10 46//10
f 43//87 47//95 44//91
f 44//92 47//96 43//88
f 45//15 44//15 48//15
f 48//16 44//16 45//16
f 46//97 42//89 45//93
f 45//94 42//90 46//98
f 43//9 46//9 47//9
f 47//10 46//10 43//10
f 44//91 47//95 48//99
f 48//100 47//96 44//92
f 48//99 46//97 45//93
f 45//94 46//98 48//100
f 47//95 46//97 48//99
f 48//100 46//98 47//96
