# SSTK version 0.8.0
# 8
mtllib original-8.mtl
o mesh15/mesh15-geometry#mesh15-geometry
v -0.169948 0.408899 0.041524
v -0.118464 0.360206 0.145474
v -0.165579 0.427007 0.002868
v -0.163119 0.390929 0.079887
v -0.165579 0.192428 -0.107017
v -0.169948 0.174320 -0.068361
v -0.145559 0.374320 0.115342
v -0.150311 0.209439 -0.143332
v -0.163119 0.156350 -0.029998
v -0.145559 0.139741 0.005457
v 0.158662 0.178352 -0.076967
v -0.150311 0.444018 -0.033447
v 0.151834 0.196322 -0.115330
v 0.154293 0.160244 -0.038311
v -0.118464 0.125627 0.035589
v -0.125184 0.458774 -0.064946
v -0.125184 0.224195 -0.174831
v 0.134273 0.212931 -0.150785
v 0.139025 0.143233 -0.001996
v 0.113898 0.128477 0.029504
v -0.083680 0.114968 0.058343
v 0.158662 0.412931 0.032918
v 0.154293 0.394823 0.071574
v -0.091910 0.470267 -0.089483
v 0.151834 0.430901 -0.005445
v 0.139025 0.377812 0.107889
v 0.080625 0.116984 0.054040
v -0.083680 0.349547 0.168228
v -0.052758 0.477716 -0.105385
v 0.107178 0.227045 -0.180916
v 0.134273 0.447509 -0.040900
v 0.113898 0.363056 0.139388
v 0.080625 0.351563 0.163925
v -0.043578 0.108491 0.072169
v 0.041472 0.344114 0.179827
v 0.041472 0.109535 0.069942
v -0.091910 0.235688 -0.199368
v -0.043578 0.343070 0.182054
v -0.052758 0.243137 -0.215269
v 0.072395 0.237704 -0.203670
v 0.107178 0.461624 -0.071031
v -0.000891 0.106638 0.076126
v -0.000891 0.341217 0.186010
v -0.010394 0.480613 -0.111568
v -0.010394 0.246034 -0.221453
v 0.032293 0.478760 -0.107612
v 0.032293 0.244181 -0.217497
v 0.072395 0.472283 -0.093786
vn 0 0.9055689975721696 0.42419899886272255
vn -0.9730039493838494 0.09789999490719345 -0.20899498912797645
vn -0.9995820781788168 -0.012263000959107737 0.02617800204742089
vn -0.9580403458258021 -0.12159004389060925 0.2595660936961089
vn -0.8801170993674262 0.20139102273755116 -0.42992504853961544
vn -0.8512096607857825 -0.2226309112797072 0.4752658106025725
vn -0.686370634655304 -0.3084998357902087 0.6585766494496215
vn 0 -0.9055689975721696 -0.42419899886272255
vn -0.7272518859654588 0.291157954345854 -0.621555902538799
vn -0.47475602216873297 -0.37334501743334597 0.7970070372162444
vn 0.9580403458258021 0.12159004389060925 -0.2595660936961089
vn 0.9995820781788168 0.012263000959107737 -0.02617800204742089
vn 0.9730039493838494 -0.09789999490719345 0.20899498912797645
vn 0.8512096607857825 0.2226309112797072 -0.4752658106025725
vn 0.8801170993674262 -0.20139102273755116 0.42992504853961544
vn -0.5248258398216037 0.3610828897964356 -0.7708287647407844
vn 0.7272518859654588 -0.291157954345854 0.621555902538799
vn 0.5248258398216037 -0.3610828897964356 0.7708287647407844
vn -0.2307880010002352 -0.41274800178884985 0.8811220038187828
vn -0.28663316098326064 0.4064002282486563 -0.8675714872586492
vn 0.686370634655304 0.3084998357902087 -0.6585766494496215
vn 0.28663316098326064 -0.4064002282486563 0.8675714872586492
vn 0.028908010623002064 -0.4240221558179944 0.9051903326357839
vn -0.028908010623002064 0.4240221558179944 -0.9051903326357839
vn 0.47475602216873297 0.37334501743334597 -0.7970070372162444
vn 0.2307880010002352 0.41274800178884985 -0.8811220038187828
usemtl material_0_0
f 1//1 2//1 3//1
f 2//1 1//1 4//1
f 5//2 1//3 3//2
f 6//3 4//4 1//3
f 2//1 4//1 7//1
f 1//3 5//2 6//3
f 3//2 8//5 5//2
f 4//4 6//3 9//4
f 9//4 7//6 4//4
f 10//6 2//7 7//6
f 5//8 11//8 6//8
f 8//5 3//2 12//5
f 8//8 13//8 5//8
f 6//8 14//8 9//8
f 7//6 9//4 10//6
f 2//7 10//6 15//7
f 5//8 13//8 11//8
f 6//8 11//8 14//8
f 3//1 16//1 12//1
f 12//5 17//9 8//5
f 8//8 18//8 13//8
f 9//8 14//8 19//8
f 9//8 19//8 10//8
f 10//8 20//8 15//8
f 21//10 2//7 15//7
f 13//11 22//12 11//12
f 11//12 23//13 14//13
f 3//1 24//1 16//1
f 17//9 12//5 16//9
f 17//8 18//8 8//8
f 18//14 25//11 13//11
f 14//13 26//15 19//15
f 10//8 19//8 20//8
f 15//8 20//8 27//8
f 2//7 21//10 28//10
f 15//8 27//8 21//8
f 22//12 13//11 25//11
f 23//13 11//12 22//12
f 26//15 14//13 23//13
f 24//1 3//1 29//1
f 24//16 17//9 16//9
f 17//8 30//8 18//8
f 25//11 18//14 31//14
f 32//17 19//15 26//15
f 19//15 32//17 20//17
f 20//17 33//18 27//18
f 34//19 28//10 21//10
f 28//1 35//1 2//1
f 21//8 27//8 36//8
f 25//1 23//1 22//1
f 35//1 26//1 23//1
f 29//20 37//16 24//16
f 17//9 24//16 37//16
f 37//8 30//8 17//8
f 30//21 31//14 18//14
f 31//1 23//1 25//1
f 26//1 35//1 32//1
f 33//18 20//17 32//17
f 35//22 27//18 33//18
f 28//10 34//19 38//19
f 21//8 36//8 34//8
f 35//1 28//1 38//1
f 27//18 35//22 36//22
f 37//16 29//20 39//20
f 37//8 40//8 30//8
f 31//14 30//21 41//21
f 23//1 31//1 41//1
f 32//1 35//1 33//1
f 42//23 38//19 34//19
f 34//8 36//8 42//8
f 35//1 38//1 43//1
f 43//23 36//22 35//22
f 44//24 39//20 29//20
f 39//8 40//8 37//8
f 40//25 41//21 30//21
f 38//19 42//23 43//23
f 36//22 43//23 42//23
f 39//20 44//24 45//24
f 29//1 46//1 44//1
f 39//8 47//8 40//8
f 41//21 40//25 48//25
f 46//26 45//24 44//24
f 47//8 39//8 45//8
f 46//1 29//1 48//1
f 46//26 40//25 47//26
f 40//25 46//26 48//25
f 48//1 29//1 41//1
f 45//24 46//26 47//26
usemtl material_1_0
f 3//8 2//8 1//8
f 4//8 1//8 2//8
f 3//13 1//12 5//13
f 1//12 4//11 6//12
f 7//8 4//8 2//8
f 6//12 5//13 1//12
f 5//13 8//15 3//13
f 9//11 6//12 4//11
f 4//11 7//14 9//11
f 7//14 2//21 10//14
f 6//1 11//1 5//1
f 12//15 3//13 8//15
f 5//1 13//1 8//1
f 9//1 14//1 6//1
f 10//14 9//11 7//14
f 15//21 10//14 2//21
f 11//1 13//1 5//1
f 14//1 11//1 6//1
f 12//8 16//8 3//8
f 8//15 17//17 12//15
f 13//1 18//1 8//1
f 19//1 14//1 9//1
f 10//1 19//1 9//1
f 15//1 20//1 10//1
f 15//21 2//21 21//25
f 11//3 22//3 13//4
f 14//2 23//2 11//3
f 16//8 24//8 3//8
f 16//17 12//15 17//17
f 8//1 18//1 17//1
f 13//4 25//4 18//6
f 19//5 26//5 14//2
f 20//1 19//1 10//1
f 27//1 20//1 15//1
f 28//25 21//25 2//21
f 21//1 27//1 15//1
f 25//4 13//4 22//3
f 22//3 11//3 23//2
f 23//2 14//2 26//5
f 29//8 3//8 24//8
f 16//17 17//17 24//18
f 18//1 30//1 17//1
f 31//6 18//6 25//4
f 26//5 19//5 32//9
f 20//9 32//9 19//5
f 27//16 33//16 20//9
f 21//25 28//25 34//26
f 2//8 35//8 28//8
f 36//1 27//1 21//1
f 22//8 23//8 25//8
f 23//8 26//8 35//8
f 24//18 37//18 29//22
f 37//18 24//18 17//17
f 17//1 30//1 37//1
f 18//6 31//6 30//7
f 25//8 23//8 31//8
f 32//8 35//8 26//8
f 32//9 20//9 33//16
f 33//16 27//16 35//20
f 38//26 34//26 28//25
f 34//1 36//1 21//1
f 38//8 28//8 35//8
f 36//20 35//20 27//16
f 39//22 29//22 37//18
f 30//1 40//1 37//1
f 41//7 30//7 31//6
f 41//8 31//8 23//8
f 33//8 35//8 32//8
f 34//26 38//26 42//24
f 42//1 36//1 34//1
f 43//8 38//8 35//8
f 35//20 36//20 43//24
f 29//22 39//22 44//23
f 37//1 40//1 39//1
f 30//7 41//7 40//10
f 43//24 42//24 38//26
f 42//24 43//24 36//20
f 45//23 44//23 39//22
f 44//8 46//8 29//8
f 40//1 47//1 39//1
f 48//10 40//10 41//7
f 44//23 45//23 46//19
f 45//1 39//1 47//1
f 48//8 29//8 46//8
f 47//19 40//10 46//19
f 48//10 46//19 40//10
f 41//8 29//8 48//8
f 47//19 46//19 45//23
