# SSTK version 0.8.0
# 5
mtllib original-5.mtl
o Group6/mesh10/mesh10-geometry#mesh10-geometry
v 0.240725 -0.269050 0.360807
v 0.232330 -0.150471 0.007436
v 0.240725 -0.094381 0.037764
v 0.232330 -0.325141 0.330479
v 0.232330 -0.038290 0.068092
v 0.232330 -0.212960 0.391135
v 0.207718 -0.202739 -0.020826
v 0.207718 0.013978 0.096353
v 0.207718 -0.160692 0.419397
v 0.207718 -0.377409 0.302218
v 0.168565 -0.247623 -0.045094
v 0.168565 0.058861 0.120621
v 0.168565 -0.115808 0.443665
v 0.168565 -0.422292 0.277950
v 0.117541 -0.456732 0.259328
v 0.117541 0.093301 0.139243
v 0.117541 -0.081368 0.462287
v 0.117541 -0.282063 -0.063716
v 0.058122 -0.478383 0.247622
v 0.058122 -0.059718 0.473993
v 0.058122 0.114952 0.150949
v 0.058122 -0.303713 -0.075422
v -0.005643 -0.485767 0.243629
v -0.005643 -0.052333 0.477986
v -0.005643 0.122336 0.154942
v -0.005643 -0.311098 -0.079415
v -0.069407 -0.303713 -0.075422
v -0.069407 -0.059718 0.473993
v -0.069407 0.114952 0.150949
v -0.069407 -0.478383 0.247622
v -0.128827 -0.282063 -0.063716
v -0.128827 0.093301 0.139243
v -0.128827 -0.081368 0.462287
v -0.128827 -0.456732 0.259328
v -0.179851 -0.247623 -0.045094
v -0.179851 0.058861 0.120621
v -0.179851 -0.115808 0.443665
v -0.179851 -0.422292 0.277950
v -0.219003 -0.377409 0.302218
v -0.219003 -0.202739 -0.020826
v -0.219003 0.013978 0.096353
v -0.219003 -0.160692 0.419397
v -0.243616 -0.325141 0.330479
v -0.243616 -0.212960 0.391135
v -0.243616 -0.038290 0.068092
v -0.243616 -0.150471 0.007436
v -0.252010 -0.269050 0.360807
v -0.252010 -0.094381 0.037764
vn 1 0 0
vn 0.9659257476147434 -0.22766994051247055 -0.12310096783513698
vn -1 0 0
vn -0.9659257476147434 0.22766994051247055 0.12310096783513698
vn 0 0.4756238685906129 -0.879648756963198
vn 0 -0.4756238685906129 0.879648756963198
vn 0.9659257476147434 0.22766994051247055 0.12310096783513698
vn -0.9659257476147434 -0.22766994051247055 -0.12310096783513698
vn 0.8660254334696537 -0.43982422014417244 -0.2378121190315352
vn -0.8660254334696537 0.43982422014417244 0.2378121190315352
vn 0.8660254334696537 0.43982422014417244 0.2378121190315352
vn -0.8660254334696537 -0.43982422014417244 -0.2378121190315352
vn 0.7071071223426242 -0.6220051076184 -0.3363170581890779
vn -0.7071071223426242 0.6220051076184 0.3363170581890779
vn 0.7071071223426242 0.6220051076184 0.3363170581890779
vn -0.7071071223426242 -0.6220051076184 -0.3363170581890779
vn 0.4999999314467641 -0.7617978955525639 -0.41190294352543294
vn -0.4999999314467641 0.7617978955525639 0.41190294352543294
vn 0.4999999314467641 0.7617978955525639 0.41190294352543294
vn -0.4999999314467641 -0.7617978955525639 -0.41190294352543294
vn 0.2588190285852692 -0.8496750938423708 -0.4594180507404294
vn -0.2588190285852692 0.8496750938423708 0.4594180507404294
vn 0.2588190285852692 0.8496750938423708 0.4594180507404294
vn -0.2588190285852692 -0.8496750938423708 -0.4594180507404294
vn 0 -0.879648756963198 -0.4756238685906129
vn 0 0.879648756963198 0.4756238685906129
usemtl material_0_0
f 1//1 2//2 3//1
f 2//2 1//1 4//2
f 3//3 2//4 1//3
f 4//4 1//3 2//4
f 2//5 5//5 3//5
f 3//6 5//6 2//6
f 3//1 6//7 1//1
f 1//3 6//8 3//3
f 4//2 7//9 2//2
f 2//4 7//10 4//4
f 5//5 2//5 8//5
f 8//6 2//6 5//6
f 6//7 3//1 5//7
f 5//8 3//3 6//8
f 7//9 4//2 10//9
f 10//10 4//4 7//10
f 8//5 2//5 7//5
f 7//6 2//6 8//6
f 9//11 5//7 8//11
f 8//12 5//8 9//12
f 5//7 9//11 6//7
f 6//8 9//12 5//8
f 10//9 11//13 7//9
f 7//10 11//14 10//10
f 8//5 7//5 12//5
f 12//6 7//6 8//6
f 8//11 13//15 9//11
f 9//12 13//16 8//12
f 11//13 10//9 14//13
f 14//14 10//10 11//14
f 12//5 7//5 11//5
f 11//6 7//6 12//6
f 13//15 8//11 12//15
f 12//16 8//12 13//16
f 15//17 11//13 14//13
f 14//14 11//14 15//18
f 12//5 11//5 16//5
f 16//6 11//6 12//6
f 16//19 13//15 12//15
f 12//16 13//16 16//20
f 11//13 15//17 18//17
f 18//18 15//18 11//14
f 16//5 11//5 18//5
f 18//6 11//6 16//6
f 13//15 16//19 17//19
f 17//20 16//20 13//16
f 19//21 18//17 15//17
f 15//18 18//18 19//22
f 16//5 18//5 21//5
f 21//6 18//6 16//6
f 21//23 17//19 16//19
f 16//20 17//20 21//24
f 18//17 19//21 22//21
f 22//22 19//22 18//18
f 17//19 21//23 20//23
f 20//24 21//24 17//20
f 21//5 18//5 22//5
f 22//6 18//6 21//6
f 23//25 22//21 19//21
f 19//22 22//22 23//26
f 25//26 20//23 21//23
f 21//24 20//24 25//25
f 21//5 22//5 25//5
f 25//6 22//6 21//6
f 22//21 23//25 26//25
f 26//26 23//26 22//22
f 20//23 25//26 24//26
f 24//25 25//25 20//24
f 25//5 22//5 26//5
f 26//6 22//6 25//6
f 23//25 27//24 26//25
f 26//26 27//23 23//26
f 25//26 28//22 24//26
f 24//25 28//21 25//25
f 25//5 26//5 29//5
f 29//6 26//6 25//6
f 27//24 23//25 30//24
f 30//23 23//26 27//23
f 29//5 26//5 27//5
f 27//6 26//6 29//6
f 28//22 25//26 29//22
f 29//21 25//25 28//21
f 30//24 31//20 27//24
f 27//23 31//19 30//23
f 29//5 27//5 32//5
f 32//6 27//6 29//6
f 29//22 33//18 28//22
f 28//21 33//17 29//21
f 31//20 30//24 34//20
f 34//19 30//23 31//19
f 32//5 27//5 31//5
f 31//6 27//6 32//6
f 33//18 29//22 32//18
f 32//17 29//21 33//17
f 34//20 35//16 31//20
f 31//19 35//15 34//19
f 32//5 31//5 36//5
f 36//6 31//6 32//6
f 32//18 37//14 33//18
f 33//17 37//13 32//17
f 35//16 34//20 38//16
f 38//15 34//19 35//15
f 36//5 31//5 35//5
f 35//6 31//6 36//6
f 37//14 32//18 36//14
f 36//13 32//17 37//13
f 39//12 35//16 38//16
f 38//15 35//15 39//11
f 36//5 35//5 40//5
f 40//6 35//6 36//6
f 41//10 37//14 36//14
f 36//13 37//13 41//9
f 35//16 39//12 40//12
f 40//11 39//11 35//15
f 36//5 40//5 41//5
f 41//6 40//6 36//6
f 37//14 41//10 42//10
f 42//9 41//9 37//13
f 43//8 40//12 39//12
f 39//11 40//11 43//7
f 41//5 40//5 45//5
f 45//6 40//6 41//6
f 45//4 42//10 41//10
f 41//9 42//9 45//2
f 40//12 43//8 46//8
f 46//7 43//7 40//11
f 42//10 45//4 44//4
f 44//2 45//2 42//9
f 45//5 40//5 46//5
f 46//6 40//6 45//6
f 47//3 46//8 43//8
f 43//7 46//7 47//1
f 48//3 44//4 45//4
f 45//2 44//2 48//1
f 45//5 46//5 48//5
f 48//6 46//6 45//6
f 46//8 47//3 48//3
f 48//1 47//1 46//7
f 44//4 48//3 47//3
f 47//1 48//1 44//2
usemtl material_1_0
f 6//6 4//6 1//6
f 1//5 4//5 6//5
f 4//6 6//6 9//6
f 9//5 6//5 4//5
f 4//6 9//6 10//6
f 10//5 9//5 4//5
f 10//6 9//6 13//6
f 13//5 9//5 10//5
f 10//6 13//6 14//6
f 14//5 13//5 10//5
f 14//6 13//6 17//6
f 17//5 13//5 14//5
f 14//6 17//6 15//6
f 15//5 17//5 14//5
f 15//6 17//6 20//6
f 20//5 17//5 15//5
f 15//6 20//6 19//6
f 19//5 20//5 15//5
f 19//6 20//6 24//6
f 24//5 20//5 19//5
f 19//6 24//6 23//6
f 23//5 24//5 19//5
f 23//6 24//6 28//6
f 28//5 24//5 23//5
f 23//6 28//6 30//6
f 30//5 28//5 23//5
f 30//6 28//6 33//6
f 33//5 28//5 30//5
f 30//6 33//6 34//6
f 34//5 33//5 30//5
f 34//6 33//6 37//6
f 37//5 33//5 34//5
f 34//6 37//6 38//6
f 38//5 37//5 34//5
f 38//6 37//6 42//6
f 42//5 37//5 38//5
f 38//6 42//6 39//6
f 39//5 42//5 38//5
f 39//6 42//6 44//6
f 44//5 42//5 39//5
f 39//6 44//6 43//6
f 43//5 44//5 39//5
f 43//6 44//6 47//6
f 47//5 44//5 43//5
