# SSTK version 0.8.0
# 4
mtllib original-4.mtl
o mesh4/mesh4-geometry#mesh4-geometry
v -0.101505 0.009708 -0.443113
v -0.101505 -0.048121 -0.443113
v -0.105312 -0.019207 -0.443113
v -0.090345 0.036651 -0.443113
v -0.105312 -0.019207 -0.475752
v -0.101505 0.009708 -0.475752
v -0.090345 0.036651 -0.475752
v -0.090345 -0.075065 -0.443113
v -0.101505 -0.048121 -0.475752
v -0.072591 0.059788 -0.475752
v -0.072591 -0.098202 -0.443113
v -0.090345 -0.075065 -0.475752
v -0.072591 0.059788 -0.443113
v -0.088715 0.035710 -0.475752
v -0.088715 -0.074124 -0.475752
v -0.049454 0.077542 -0.443113
v 0.006404 0.090627 -0.475752
v -0.049454 -0.115956 -0.443113
v -0.072591 -0.098202 -0.475752
v -0.049454 0.077542 -0.475752
v -0.088715 0.035710 -0.500165
v 0.006404 -0.129041 -0.475752
v -0.022510 0.088703 -0.475752
v -0.022510 -0.127116 -0.443113
v 0.006404 0.090627 -0.500165
v -0.088715 -0.074124 -0.500165
v -0.049454 -0.115956 -0.475752
v 0.006404 -0.129041 -0.500165
v -0.022510 0.088703 -0.443113
v -0.022510 -0.127116 -0.475752
v 0.101523 0.035710 -0.475752
v 0.006404 0.092509 -0.475752
v 0.101523 -0.074124 -0.500165
v 0.006404 -0.130923 -0.443113
v 0.006404 -0.130923 -0.475752
v 0.101523 0.035710 -0.500165
v 0.101523 -0.074124 -0.475752
v 0.006404 0.092509 -0.443113
v 0.035318 0.088703 -0.475752
v 0.035318 0.088703 -0.443113
v 0.035318 -0.127116 -0.443113
v 0.035318 -0.127116 -0.475752
v 0.062262 0.077542 -0.475752
v 0.103153 -0.075065 -0.475752
v 0.085399 0.059788 -0.475752
v 0.062262 0.077542 -0.443113
v 0.062262 -0.115956 -0.475752
v 0.085399 -0.098202 -0.475752
v 0.103153 0.036651 -0.475752
v 0.062262 -0.115956 -0.443113
v 0.085399 0.059788 -0.443113
v 0.103153 -0.075065 -0.443113
v 0.114313 -0.048121 -0.475752
v 0.085399 -0.098202 -0.443113
v 0.114313 -0.048121 -0.443113
v 0.114313 0.009708 -0.475752
v 0.103153 0.036651 -0.443113
v 0.118120 -0.019207 -0.443113
v 0.118120 -0.019207 -0.475752
v 0.114313 0.009708 -0.443113
vt 0.018168 0.105587
vt 0.018168 0.097679
vt 0.018688 0.101633
vt 0.016642 0.109271
vt 0.046291 0.099215
vt 0.050754 0.103203
vt 0.046291 0.103203
vt 0.046291 0.098324
vt 0.050754 0.102312
vt 0.046291 0.102312
vt 0.046291 0.090597
vt 0.050754 0.094585
vt 0.046291 0.094585
vt 0.016642 0.093995
vt 0.050754 0.099215
vt 0.050754 0.098324
vt 0.050754 0.090597
vt 0.050754 0.080548
vt 0.046291 0.07656
vt 0.050754 0.07656
vt 0.014214 0.090831
vt 0.046291 0.093209
vt 0.050754 0.097196
vt 0.046291 0.097196
vt -0.018688 0.101633
vt -0.018168 0.105587
vt -0.018168 0.097679
vt -0.016642 0.109271
vt -0.016642 0.093995
vt 0.046291 0.080548
vt -0.014214 0.112435
vt -0.016419 0.109142
vt 0.014214 0.112435
vt 0.046291 0.080714
vt 0.050754 0.084702
vt 0.046291 0.084702
vt 0.050754 0.093209
vt -0.016419 0.094124
vt 0.050754 0.057169
vt 0.046291 0.061157
vt 0.046291 0.057169
vt -0.003412 0.116652
vt 0.01105 0.088404
vt 0.050754 0.080714
vt -0.014214 0.090831
vt 0.050754 0.061157
vt 0.01105 0.114862
vt 0.050754 0.040352
vt 0.050754 0.055371
vt 0.054092 0.040352
vt -0.01105 0.114862
vt 0.050754 0.109142
vt 0.054092 0.109142
vt 0.050754 0.094124
vt 0.046291 0.062584
vt 0.050754 0.066571
vt 0.046291 0.066571
vt -0.003412 0.086615
vt 0.050754 0.037735
vt 0.046291 0.033747
vt 0.050754 0.033747
vt 0.007366 0.086878
vt 0.054092 0.055371
vt -0.007366 0.116388
vt 0.054092 0.094124
vt 0.050754 0.062584
vt -0.01105 0.088404
vt 0.050754 0.046262
vt 0.050754 0.061281
vt 0.054092 0.046262
vt 0.046291 0.037735
vt 0.007366 0.116388
vt 0.050754 0.040052
vt 0.046291 0.04404
vt 0.046291 0.040052
vt -0.050754 0.061281
vt -0.050754 0.046262
vt -0.054092 0.061281
vt -0.003412 0.116909
vt 0.054092 0.061281
vt 0.050754 0.04404
vt -0.007366 0.086878
vt -0.054092 0.040352
vt -0.054092 0.055371
vt -0.050754 0.040352
vt 0.050754 0.011877
vt 0.046291 0.007889
vt 0.050754 0.007889
vt 0.003412 0.086357
vt 0.046291 0.018643
vt 0.050754 0.014655
vt 0.050754 0.018643
vt -0.054092 0.046262
vt 0.009594 0.109142
vt -0.003412 0.086357
vt -0.050754 0.055371
vt 0.009594 0.094124
vt 0.046291 0.011877
vt 0.003412 0.116909
vt 0.046291 0.014655
vt -0.054092 0.109142
vt -0.050754 0.109142
vt -0.054092 0.094124
vt 0.000541 0.116388
vt -0.050754 0.094124
vt -0.050754 0.018643
vt -0.046291 0.014655
vt -0.046291 0.018643
vt -0.000541 0.086878
vt -0.046291 0.007889
vt -0.050754 0.011877
vt -0.050754 0.007889
vt 0.004226 0.114862
vt -0.050754 0.014655
vt 0.000541 0.086878
vt 0.009817 0.093995
vt -0.000541 0.116388
vt -0.046291 0.011877
vt 0.007389 0.112435
vt -0.046291 0.040052
vt -0.050754 0.04404
vt -0.050754 0.040052
vt -0.046291 0.04404
vt 0.004226 0.088404
vt 0.007389 0.090831
vt 0.009817 0.109271
vt -0.004226 0.088404
vt -0.046291 0.033747
vt -0.050754 0.037735
vt -0.050754 0.033747
vt -0.046291 0.062584
vt -0.050754 0.066571
vt -0.050754 0.062584
vt -0.046291 0.066571
vt -0.004226 0.114862
vt -0.050754 0.07656
vt -0.046291 0.080548
vt -0.050754 0.080548
vt 0.011343 0.097679
vt -0.046291 0.037735
vt -0.050754 0.080714
vt -0.046291 0.084702
vt -0.050754 0.084702
vt -0.007389 0.090831
vt -0.007389 0.112435
vt -0.046291 0.057169
vt -0.050754 0.061157
vt -0.050754 0.057169
vt -0.046291 0.07656
vt -0.046291 0.094585
vt -0.050754 0.090597
vt -0.046291 0.090597
vt -0.050754 0.094585
vt 0.011343 0.105587
vt -0.046291 0.080714
vt -0.009817 0.093995
vt -0.046291 0.061157
vt -0.009817 0.109271
vt -0.011343 0.097679
vt -0.046291 0.102312
vt -0.050754 0.098324
vt -0.046291 0.098324
vt 0.011864 0.101633
vt -0.050754 0.093209
vt -0.046291 0.097196
vt -0.050754 0.097196
vt -0.011343 0.105587
vt -0.050754 0.102312
vt -0.011864 0.101633
vt -0.050754 0.099215
vt -0.046291 0.103203
vt -0.050754 0.103203
vt -0.046291 0.093209
vt -0.046291 0.099215
vn 0 0 -1
vn 0 0 1
vn 0.965925849201117 0.2588189595935754 0
vn 1 0 0
vn -1 0 0
vn -0.965925849201117 -0.2588189595935754 0
vn 0.965925849201117 -0.2588189595935754 0
vn -0.965925849201117 0.2588189595935754 0
vn 0.8660253028382762 -0.5000001748438417 0
vn -0.8660253028382762 0.5000001748438417 0
vn 0.7071067811865476 -0.7071067811865476 0
vn -0.7071067811865476 0.7071067811865476 0
vn 0.8660253028382762 0.5000001748438417 0
vn -0.8660253028382762 -0.5000001748438417 0
vn 0.7071067811865476 0.7071067811865476 0
vn -0.7071067811865476 -0.7071067811865476 0
vn 0.5000001748438417 -0.8660253028382762 0
vn -0.5000001748438417 0.8660253028382762 0
vn 0 1 0
vn 0.5000001748438417 0.8660253028382762 0
vn -0.5000001748438417 -0.8660253028382762 0
vn 0.2588189595935754 -0.965925849201117 0
vn -0.2588189595935754 0.965925849201117 0
vn 0 -1 0
vn 0.2588189595935754 0.965925849201117 0
vn -0.2588189595935754 -0.965925849201117 0
usemtl material_0_0
f 1/1/1 2/2/1 3/3/1
f 2/2/1 1/1/1 4/4/1
f 3/3/2 2/2/2 1/1/2
f 4/4/2 1/1/2 2/2/2
f 2/5/3 5/6/4 3/7/4
f 3/7/5 5/6/5 2/5/6
f 3/8/4 6/9/7 1/10/7
f 1/10/8 6/9/8 3/8/5
f 1/11/7 7/12/9 4/13/9
f 4/13/10 7/12/10 1/11/8
f 2/2/1 4/4/1 8/14/1
f 8/14/2 4/4/2 2/2/2
f 5/6/4 2/5/3 9/15/3
f 9/15/6 2/5/6 5/6/5
f 6/9/7 3/8/4 5/16/4
f 5/16/5 3/8/5 6/9/8
f 7/12/9 1/11/7 6/17/7
f 6/17/8 1/11/8 7/12/10
f 10/18/11 4/19/9 7/20/9
f 7/20/10 4/19/10 10/18/12
f 8/14/1 4/4/1 11/21/1
f 11/21/2 4/4/2 8/14/2
f 8/22/13 9/23/3 2/24/3
f 2/24/6 9/23/6 8/22/14
f 5/25/1 6/26/1 9/27/1
f 7/28/1 12/29/1 6/26/1
f 4/19/9 10/18/11 13/30/11
f 13/30/12 10/18/12 4/19/10
f 7/28/1 10/31/1 14/32/1
f 11/21/1 4/4/1 13/33/1
f 13/33/2 4/4/2 11/21/2
f 11/34/15 12/35/13 8/36/13
f 8/36/14 12/35/14 11/34/16
f 9/23/3 8/22/13 12/37/13
f 12/37/14 8/22/14 9/23/6
f 12/29/1 9/27/1 6/26/1
f 15/38/1 12/29/1 7/28/1
f 10/39/11 16/40/17 13/41/11
f 13/41/12 16/40/18 10/39/12
f 17/42/1 14/32/1 10/31/1
f 14/32/1 15/38/1 7/28/1
f 11/21/1 13/33/1 18/43/1
f 18/43/2 13/33/2 11/21/2
f 12/35/13 11/34/15 19/44/15
f 19/44/16 11/34/16 12/35/14
f 19/45/1 12/29/1 15/38/1
f 16/40/17 10/39/11 20/46/17
f 20/46/18 10/39/12 16/40/18
f 18/43/1 13/33/1 16/47/1
f 16/47/2 13/33/2 18/43/2
f 14/48/10 17/49/19 21/50/10
f 20/51/1 17/42/1 10/31/1
f 14/52/10 21/53/10 15/54/14
f 18/55/20 19/56/15 11/57/15
f 11/57/16 19/56/16 18/55/21
f 22/58/1 19/45/1 15/38/1
f 23/59/22 16/60/17 20/61/17
f 20/61/18 16/60/18 23/59/23
f 18/43/1 16/47/1 24/62/1
f 24/62/2 16/47/2 18/43/2
f 25/63/19 21/50/10 17/49/19
f 23/64/1 17/42/1 20/51/1
f 26/65/14 15/54/14 21/53/10
f 19/56/15 18/55/20 27/66/20
f 27/66/21 18/55/21 19/56/16
f 27/67/1 19/45/1 22/58/1
f 22/68/24 15/69/14 28/70/24
f 16/60/17 23/59/22 29/71/22
f 29/71/23 23/59/23 16/60/18
f 24/62/1 16/47/1 29/72/1
f 29/72/2 16/47/2 24/62/2
f 30/73/25 18/74/20 24/75/25
f 24/75/26 18/74/21 30/73/26
f 21/32/1 25/42/1 26/38/1
f 17/76/19 31/77/13 25/78/19
f 32/79/1 17/42/1 23/64/1
f 26/80/14 28/70/24 15/69/14
f 18/74/20 30/73/25 27/81/20
f 27/81/21 30/73/26 18/74/21
f 30/82/1 27/67/1 22/58/1
f 28/83/24 33/84/9 22/85/24
f 32/86/24 29/87/22 23/88/22
f 23/88/23 29/87/23 32/86/19
f 24/62/1 29/72/1 34/89/1
f 34/89/2 29/72/2 24/62/2
f 24/90/25 35/91/19 30/92/25
f 30/92/26 35/91/24 24/90/26
f 28/58/1 26/38/1 25/42/1
f 36/93/13 25/78/19 31/77/13
f 31/94/1 17/42/1 32/79/1
f 35/95/1 30/82/1 22/58/1
f 37/96/9 22/85/24 33/84/9
f 33/97/1 28/58/1 36/94/1
f 29/87/22 32/86/24 38/98/24
f 38/98/19 32/86/19 29/87/23
f 34/89/1 29/72/1 38/99/1
f 38/99/2 29/72/2 34/89/2
f 35/91/19 24/90/25 34/100/19
f 34/100/24 24/90/26 35/91/24
f 36/94/1 28/58/1 25/42/1
f 36/101/13 31/102/13 33/103/9
f 39/104/1 31/94/1 32/79/1
f 37/97/1 35/95/1 22/58/1
f 37/105/9 33/103/9 31/102/13
f 32/106/24 40/107/26 38/108/24
f 38/108/19 40/107/25 32/106/19
f 34/89/1 38/99/1 41/109/1
f 41/109/2 38/99/2 34/89/2
f 34/110/19 42/111/23 35/112/19
f 35/112/24 42/111/22 34/110/24
f 43/113/1 31/94/1 39/104/1
f 40/107/26 32/106/24 39/114/26
f 39/114/25 32/106/19 40/107/25
f 42/115/1 35/95/1 37/97/1
f 31/94/1 44/116/1 37/97/1
f 41/109/1 38/99/1 40/117/1
f 40/117/2 38/99/2 41/109/2
f 42/111/23 34/110/19 41/118/23
f 41/118/22 34/110/24 42/111/22
f 45/119/1 31/94/1 43/113/1
f 46/120/21 39/121/26 43/122/21
f 43/122/20 39/121/25 46/120/20
f 39/121/26 46/120/21 40/123/26
f 40/123/25 46/120/20 39/121/25
f 47/124/1 42/115/1 37/97/1
f 44/116/1 48/125/1 37/97/1
f 44/116/1 31/94/1 49/126/1
f 41/109/1 40/117/1 50/127/1
f 50/127/2 40/117/2 41/109/2
f 41/128/23 47/129/18 42/130/23
f 42/130/22 47/129/17 41/128/22
f 49/126/1 31/94/1 45/119/1
f 51/131/16 43/132/21 45/133/16
f 45/133/15 43/132/20 51/131/15
f 43/132/21 51/131/16 46/134/21
f 46/134/20 51/131/15 43/132/20
f 50/127/1 40/117/1 46/135/1
f 46/135/2 40/117/2 50/127/2
f 48/125/1 47/124/1 37/97/1
f 48/136/12 52/137/10 44/138/10
f 44/138/9 52/137/9 48/136/11
f 53/139/1 44/116/1 49/126/1
f 47/129/18 41/128/23 50/140/18
f 50/140/17 41/128/22 47/129/17
f 49/141/14 51/142/16 45/143/16
f 45/143/15 51/142/15 49/141/13
f 54/144/1 46/135/1 51/145/1
f 51/145/2 46/135/2 54/144/2
f 50/127/1 46/135/1 54/144/1
f 54/144/2 46/135/2 50/127/2
f 50/146/18 48/147/12 47/148/18
f 47/148/17 48/147/11 50/146/17
f 52/137/10 48/136/12 54/149/12
f 54/149/11 48/136/11 52/137/9
f 55/150/8 44/151/10 52/152/10
f 52/152/9 44/151/9 55/150/7
f 44/151/10 55/150/8 53/153/8
f 53/153/7 55/150/7 44/151/9
f 56/154/1 53/139/1 49/126/1
f 51/142/16 49/141/14 57/155/14
f 57/155/13 49/141/13 51/142/15
f 54/144/1 51/145/1 52/156/1
f 52/156/2 51/145/2 54/144/2
f 48/147/12 50/146/18 54/157/12
f 54/157/11 50/146/17 48/147/11
f 52/156/1 57/158/1 55/159/1
f 55/159/2 57/158/2 52/156/2
f 58/160/5 53/161/8 55/162/8
f 55/162/7 53/161/7 58/160/4
f 59/163/1 53/139/1 56/154/1
f 56/164/6 57/165/14 49/166/14
f 49/166/13 57/165/13 56/164/3
f 52/156/1 51/145/1 57/158/1
f 57/158/2 51/145/2 52/156/2
f 55/159/1 57/158/1 60/167/1
f 60/167/2 57/158/2 55/159/2
f 53/161/8 58/160/5 59/168/5
f 59/168/4 58/160/4 53/161/7
f 55/159/1 60/167/1 58/169/1
f 58/169/2 60/167/2 55/159/2
f 59/170/5 60/171/6 56/172/6
f 56/172/3 60/171/3 59/170/4
f 57/165/14 56/164/6 60/173/6
f 60/173/3 56/164/3 57/165/13
f 60/171/6 59/170/5 58/174/5
f 58/174/4 59/170/4 60/171/3
usemtl material_1_0
f 9//2 6//2 5//2
f 6//2 12//2 7//2
f 14//2 10//2 7//2
f 6//2 9//2 12//2
f 7//2 12//2 15//2
f 10//2 14//2 17//2
f 7//2 15//2 14//2
f 15//2 12//2 19//2
f 21//9 17//24 14//9
f 10//2 17//2 20//2
f 15//13 21//9 14//9
f 15//2 19//2 22//2
f 17//24 21//9 25//24
f 20//2 17//2 23//2
f 21//9 15//13 26//13
f 22//2 19//2 27//2
f 28//19 15//13 22//19
f 26//2 25//2 21//2
f 25//24 31//14 17//24
f 23//2 17//2 32//2
f 15//13 28//19 26//13
f 22//2 27//2 30//2
f 22//19 33//10 28//19
f 25//2 26//2 28//2
f 31//14 25//24 36//14
f 32//2 17//2 31//2
f 22//2 30//2 35//2
f 33//10 22//19 37//10
f 36//2 28//2 33//2
f 25//2 28//2 36//2
f 33//10 31//14 36//14
f 32//2 31//2 39//2
f 22//2 35//2 37//2
f 31//14 33//10 37//10
f 39//2 31//2 43//2
f 37//2 35//2 42//2
f 37//2 44//2 31//2
f 43//2 31//2 45//2
f 37//2 42//2 47//2
f 37//2 48//2 44//2
f 49//2 31//2 44//2
f 45//2 31//2 49//2
f 37//2 47//2 48//2
f 49//2 44//2 53//2
f 49//2 53//2 56//2
f 56//2 53//2 59//2
